G04 EAGLE Gerber RS-274X export*
G75*
%MOMM*%
%FSLAX34Y34*%
%LPD*%
%INSoldermask Bottom*%
%IPPOS*%
%AMOC8*
5,1,8,0,0,1.08239X$1,22.5*%
G01*
%ADD10C,3.403200*%
%ADD11C,1.524000*%
%ADD12P,1.951982X8X202.500000*%
%ADD13C,1.803400*%
%ADD14P,1.759533X8X202.500000*%
%ADD15P,1.649562X8X202.500000*%
%ADD16P,1.649562X8X22.500000*%
%ADD17P,1.649562X8X112.500000*%
%ADD18P,1.951982X8X292.500000*%
%ADD19C,1.727200*%
%ADD20R,1.209600X1.209600*%


D10*
X292100Y558800D03*
D11*
X139954Y914400D02*
X126746Y914400D01*
X126746Y889000D02*
X139954Y889000D01*
X139954Y863600D02*
X126746Y863600D01*
X126746Y838200D02*
X139954Y838200D01*
X139954Y812800D02*
X126746Y812800D01*
X126746Y787400D02*
X139954Y787400D01*
X139954Y762000D02*
X126746Y762000D01*
X126746Y736600D02*
X139954Y736600D01*
X202946Y736600D02*
X216154Y736600D01*
X216154Y762000D02*
X202946Y762000D01*
X202946Y787400D02*
X216154Y787400D01*
X216154Y812800D02*
X202946Y812800D01*
X202946Y838200D02*
X216154Y838200D01*
X216154Y863600D02*
X202946Y863600D01*
X202946Y889000D02*
X216154Y889000D01*
X216154Y914400D02*
X202946Y914400D01*
D12*
X120650Y133350D03*
D13*
X146050Y133350D03*
D12*
X196850Y133350D03*
D13*
X222250Y133350D03*
D14*
X222250Y66675D03*
X222250Y41275D03*
X196850Y66675D03*
X196850Y41275D03*
X171450Y66675D03*
X171450Y41275D03*
X146050Y66675D03*
X146050Y41275D03*
X120650Y66675D03*
X120650Y41275D03*
D11*
X126746Y469900D02*
X139954Y469900D01*
X139954Y444500D02*
X126746Y444500D01*
X126746Y317500D02*
X139954Y317500D01*
X202946Y317500D02*
X216154Y317500D01*
X139954Y419100D02*
X126746Y419100D01*
X126746Y393700D02*
X139954Y393700D01*
X139954Y342900D02*
X126746Y342900D01*
X126746Y368300D02*
X139954Y368300D01*
X202946Y342900D02*
X216154Y342900D01*
X216154Y368300D02*
X202946Y368300D01*
X202946Y393700D02*
X216154Y393700D01*
X216154Y419100D02*
X202946Y419100D01*
X202946Y444500D02*
X216154Y444500D01*
X216154Y469900D02*
X202946Y469900D01*
D15*
X95250Y469900D03*
X19050Y469900D03*
D16*
X57150Y393700D03*
X107950Y393700D03*
D15*
X285750Y393700D03*
X234950Y393700D03*
D16*
X19050Y444500D03*
X95250Y444500D03*
D17*
X38100Y260350D03*
X38100Y209550D03*
X63500Y234950D03*
X38100Y234950D03*
D11*
X95250Y577596D02*
X95250Y590804D01*
X146050Y590804D02*
X146050Y577596D01*
X120650Y577596D02*
X120650Y590804D01*
X95250Y540004D02*
X95250Y526796D01*
X146050Y526796D02*
X146050Y540004D01*
X120650Y540004D02*
X120650Y526796D01*
D15*
X133350Y292100D03*
X82550Y292100D03*
X95250Y317500D03*
X19050Y317500D03*
D16*
X69850Y622300D03*
X146050Y622300D03*
D15*
X57150Y673100D03*
X107950Y673100D03*
X82550Y698500D03*
X82550Y673100D03*
D18*
X298450Y476250D03*
D13*
X298450Y501650D03*
D17*
X304800Y241300D03*
X304800Y317500D03*
D15*
X323850Y889000D03*
X247650Y889000D03*
X323850Y863600D03*
X247650Y863600D03*
X323850Y838200D03*
X247650Y838200D03*
D16*
X247650Y914400D03*
X323850Y914400D03*
X19050Y889000D03*
X95250Y889000D03*
X19050Y863600D03*
X95250Y863600D03*
D15*
X95250Y838200D03*
X19050Y838200D03*
X95250Y806450D03*
X44450Y806450D03*
D16*
X247650Y762000D03*
X298450Y762000D03*
D15*
X311150Y730250D03*
X234950Y730250D03*
X222250Y635000D03*
X273050Y635000D03*
X247650Y660400D03*
X247650Y635000D03*
D16*
X234950Y444500D03*
X311150Y444500D03*
X209550Y574675D03*
X234950Y574675D03*
D15*
X234950Y520700D03*
X209550Y520700D03*
D16*
X44450Y774700D03*
X95250Y774700D03*
D15*
X298450Y793750D03*
X247650Y793750D03*
D16*
X222250Y698500D03*
X298450Y698500D03*
D17*
X133350Y177800D03*
X133350Y254000D03*
D19*
X33020Y146050D02*
X17780Y146050D01*
X17780Y120650D02*
X33020Y120650D01*
X33020Y95250D02*
X17780Y95250D01*
X17780Y69850D02*
X33020Y69850D01*
X33020Y44450D02*
X17780Y44450D01*
X17780Y19050D02*
X33020Y19050D01*
X316230Y146050D02*
X331470Y146050D01*
X331470Y120650D02*
X316230Y120650D01*
X316230Y95250D02*
X331470Y95250D01*
X331470Y69850D02*
X316230Y69850D01*
X316230Y44450D02*
X331470Y44450D01*
X331470Y19050D02*
X316230Y19050D01*
D17*
X279400Y241300D03*
X279400Y317500D03*
D20*
X22225Y285750D03*
X66675Y546100D03*
X250825Y57150D03*
X114300Y165100D03*
X34925Y352425D03*
X307975Y190500D03*
X269875Y92075D03*
X184150Y381000D03*
X95250Y101600D03*
X158750Y698500D03*
X158750Y406400D03*
X95250Y228600D03*
X57150Y469900D03*
X209550Y292100D03*
X209550Y203200D03*
X171450Y863600D03*
X171450Y215900D03*
X234950Y215900D03*
X260350Y219075D03*
X31750Y384175D03*
X107950Y368300D03*
M02*
