M48
;GenerationSoftware,Autodesk,EAGLE,9.6.2*%
;CreationDate,2022-05-18T20:20:44Z*%
FMAT,2
ICI,OFF
METRIC,TZ,000.000
T5C0.600
T4C0.813
T3C0.914
T2C1.016
T1C3.200
%
G90
M71
T1
X29210Y55880
T2
X32385Y1905
X32385Y4445
X32385Y6985
X32385Y9525
X32385Y12065
X32385Y14605
X2540Y1905
X2540Y4445
X2540Y6985
X2540Y9525
X2540Y12065
X2540Y14605
T3
X12065Y4128
X12065Y6667
X14605Y4128
X14605Y6667
X17145Y4128
X17145Y6667
X19685Y4128
X19685Y6667
X22225Y4128
X22225Y6667
T4
X13335Y88900
X13335Y86360
X13335Y83820
X13335Y81280
X13335Y78740
X13335Y76200
X13335Y73660
X20955Y73660
X20955Y76200
X20955Y78740
X20955Y81280
X20955Y83820
X20955Y86360
X20955Y88900
X20955Y91440
X12065Y13335
X14605Y13335
X19685Y13335
X22225Y13335
X13335Y91440
X27940Y24130
X3810Y20955
X13335Y25400
X13335Y17780
X29845Y69850
X22225Y69850
X24765Y79375
X29845Y79375
X9525Y77470
X13335Y46990
X13335Y44450
X13335Y31750
X20955Y31750
X13335Y41910
X13335Y39370
X13335Y34290
X13335Y36830
X20955Y34290
X20955Y36830
X20955Y39370
X20955Y41910
X20955Y44450
X20955Y46990
X9525Y46990
X1905Y46990
X5715Y39370
X10795Y39370
X28575Y39370
X23495Y39370
X1905Y44450
X9525Y44450
X3810Y26035
X27940Y31750
X6350Y23495
X3810Y23495
X9525Y58420
X14605Y58420
X12065Y58420
X9525Y53340
X14605Y53340
X12065Y53340
X13335Y29210
X8255Y29210
X9525Y31750
X1905Y31750
X6985Y62230
X14605Y62230
X5715Y67310
X10795Y67310
X8255Y69850
X8255Y67310
X29845Y47625
X29845Y50165
X30480Y24130
X30480Y31750
X32385Y88900
X24765Y88900
X32385Y86360
X24765Y86360
X32385Y83820
X24765Y83820
X24765Y91440
X32385Y91440
X1905Y88900
X9525Y88900
X1905Y86360
X9525Y86360
X9525Y83820
X1905Y83820
X9525Y80645
X4445Y80645
X24765Y76200
X29845Y76200
X31115Y73025
X23495Y73025
X22225Y63500
X27305Y63500
X24765Y66040
X24765Y63500
X23495Y44450
X31115Y44450
X20955Y57467
X23495Y57467
X23495Y52070
X20955Y52070
X4445Y77470
T5
X5715Y46990
X20955Y29210
X20955Y20320
X17145Y86360
X17145Y21590
X23495Y21590
X26035Y21907
X9525Y22860
X15875Y40640
X15875Y69850
X9525Y10160
X18415Y38100
X26987Y9208
X30797Y19050
X3492Y35243
X11430Y16510
X25082Y5715
X6667Y54610
X3175Y38418
X10795Y36830
X2223Y28575
M30