G04 EAGLE Gerber RS-274X export*
G75*
%MOMM*%
%FSLAX34Y34*%
%LPD*%
%INTop Copper*%
%IPPOS*%
%AMOC8*
5,1,8,0,0,1.08239X$1,22.5*%
G01*
%ADD10R,1.676400X1.676400*%
%ADD11P,1.814519X8X292.500000*%
%ADD12R,3.116000X3.116000*%
%ADD13C,1.650000*%
%ADD14P,1.429621X8X112.500000*%
%ADD15P,1.429621X8X292.500000*%
%ADD16C,1.524000*%
%ADD17C,2.705100*%
%ADD18C,1.016000*%
%ADD19C,0.406400*%

G36*
X127164Y10163D02*
X127164Y10163D01*
X127182Y10161D01*
X127364Y10182D01*
X127547Y10201D01*
X127564Y10206D01*
X127581Y10208D01*
X127756Y10265D01*
X127932Y10319D01*
X127947Y10327D01*
X127964Y10333D01*
X128124Y10423D01*
X128286Y10511D01*
X128299Y10522D01*
X128315Y10531D01*
X128454Y10651D01*
X128595Y10768D01*
X128606Y10782D01*
X128620Y10794D01*
X128732Y10939D01*
X128847Y11082D01*
X128855Y11098D01*
X128866Y11112D01*
X128948Y11277D01*
X129033Y11439D01*
X129038Y11456D01*
X129046Y11472D01*
X129093Y11651D01*
X129144Y11826D01*
X129146Y11844D01*
X129150Y11861D01*
X129177Y12192D01*
X129177Y16151D01*
X139382Y16151D01*
X139400Y16152D01*
X139417Y16151D01*
X139600Y16172D01*
X139782Y16191D01*
X139799Y16196D01*
X139817Y16198D01*
X139992Y16255D01*
X140167Y16309D01*
X140183Y16317D01*
X140200Y16323D01*
X140360Y16413D01*
X140521Y16500D01*
X140535Y16512D01*
X140551Y16521D01*
X140690Y16641D01*
X140831Y16758D01*
X140842Y16772D01*
X140855Y16784D01*
X140968Y16929D01*
X141083Y17072D01*
X141091Y17088D01*
X141102Y17102D01*
X141184Y17267D01*
X141268Y17429D01*
X141273Y17446D01*
X141281Y17462D01*
X141329Y17641D01*
X141335Y17661D01*
X141428Y17691D01*
X141604Y17745D01*
X141619Y17753D01*
X141636Y17759D01*
X141796Y17849D01*
X141958Y17937D01*
X141971Y17948D01*
X141987Y17957D01*
X142126Y18077D01*
X142267Y18195D01*
X142278Y18208D01*
X142292Y18220D01*
X142404Y18365D01*
X142519Y18508D01*
X142527Y18524D01*
X142538Y18538D01*
X142620Y18703D01*
X142705Y18866D01*
X142710Y18883D01*
X142718Y18899D01*
X142765Y19077D01*
X142816Y19252D01*
X142818Y19270D01*
X142822Y19287D01*
X142849Y19618D01*
X142849Y29823D01*
X148817Y29823D01*
X149463Y29650D01*
X150042Y29315D01*
X150515Y28842D01*
X150850Y28263D01*
X151023Y27617D01*
X151023Y24455D01*
X151024Y24446D01*
X151023Y24437D01*
X151044Y24244D01*
X151063Y24055D01*
X151065Y24046D01*
X151066Y24037D01*
X151124Y23853D01*
X151181Y23670D01*
X151185Y23662D01*
X151188Y23653D01*
X151281Y23485D01*
X151373Y23316D01*
X151378Y23309D01*
X151383Y23301D01*
X151507Y23154D01*
X151630Y23006D01*
X151637Y23001D01*
X151643Y22994D01*
X151794Y22875D01*
X151944Y22754D01*
X151952Y22750D01*
X151959Y22744D01*
X152132Y22657D01*
X152301Y22569D01*
X152310Y22566D01*
X152318Y22562D01*
X152504Y22510D01*
X152688Y22457D01*
X152697Y22456D01*
X152706Y22454D01*
X152899Y22440D01*
X153090Y22424D01*
X153098Y22425D01*
X153107Y22425D01*
X153300Y22449D01*
X153489Y22471D01*
X153498Y22474D01*
X153507Y22475D01*
X153690Y22536D01*
X153872Y22596D01*
X153880Y22600D01*
X153888Y22603D01*
X154055Y22699D01*
X154223Y22794D01*
X154230Y22800D01*
X154237Y22804D01*
X154490Y23019D01*
X160786Y29315D01*
X169414Y29315D01*
X175515Y23214D01*
X175515Y14586D01*
X174557Y13628D01*
X174551Y13621D01*
X174544Y13616D01*
X174423Y13465D01*
X174302Y13317D01*
X174298Y13309D01*
X174292Y13302D01*
X174204Y13132D01*
X174113Y12961D01*
X174111Y12952D01*
X174107Y12945D01*
X174054Y12760D01*
X173998Y12575D01*
X173998Y12566D01*
X173995Y12558D01*
X173980Y12367D01*
X173962Y12174D01*
X173963Y12165D01*
X173962Y12156D01*
X173985Y11967D01*
X174005Y11774D01*
X174008Y11765D01*
X174009Y11757D01*
X174069Y11575D01*
X174127Y11390D01*
X174131Y11382D01*
X174134Y11374D01*
X174228Y11207D01*
X174322Y11038D01*
X174328Y11031D01*
X174332Y11023D01*
X174457Y10878D01*
X174582Y10731D01*
X174589Y10725D01*
X174595Y10718D01*
X174746Y10602D01*
X174898Y10481D01*
X174906Y10477D01*
X174913Y10472D01*
X175084Y10387D01*
X175257Y10299D01*
X175266Y10296D01*
X175274Y10292D01*
X175459Y10243D01*
X175645Y10191D01*
X175654Y10190D01*
X175663Y10188D01*
X175993Y10161D01*
X179207Y10161D01*
X179216Y10162D01*
X179225Y10161D01*
X179416Y10182D01*
X179607Y10201D01*
X179616Y10203D01*
X179625Y10204D01*
X179807Y10262D01*
X179992Y10319D01*
X180000Y10323D01*
X180009Y10326D01*
X180177Y10419D01*
X180346Y10511D01*
X180353Y10516D01*
X180361Y10521D01*
X180509Y10646D01*
X180656Y10768D01*
X180661Y10775D01*
X180668Y10781D01*
X180788Y10933D01*
X180908Y11082D01*
X180912Y11090D01*
X180918Y11097D01*
X181005Y11269D01*
X181093Y11439D01*
X181096Y11448D01*
X181100Y11456D01*
X181152Y11642D01*
X181205Y11826D01*
X181206Y11835D01*
X181208Y11844D01*
X181222Y12036D01*
X181238Y12228D01*
X181237Y12236D01*
X181237Y12245D01*
X181213Y12438D01*
X181191Y12627D01*
X181188Y12636D01*
X181187Y12645D01*
X181126Y12828D01*
X181066Y13010D01*
X181062Y13018D01*
X181059Y13026D01*
X180963Y13192D01*
X180868Y13361D01*
X180862Y13368D01*
X180858Y13375D01*
X180643Y13628D01*
X179685Y14586D01*
X179685Y23214D01*
X185840Y29369D01*
X185857Y29390D01*
X185878Y29407D01*
X185985Y29545D01*
X186095Y29680D01*
X186108Y29704D01*
X186124Y29725D01*
X186202Y29882D01*
X186284Y30036D01*
X186292Y30062D01*
X186304Y30086D01*
X186349Y30255D01*
X186399Y30422D01*
X186401Y30449D01*
X186408Y30475D01*
X186435Y30805D01*
X186435Y35575D01*
X186433Y35602D01*
X186435Y35628D01*
X186413Y35802D01*
X186395Y35976D01*
X186388Y36001D01*
X186384Y36028D01*
X186329Y36193D01*
X186277Y36360D01*
X186264Y36384D01*
X186256Y36409D01*
X186169Y36561D01*
X186085Y36715D01*
X186068Y36735D01*
X186055Y36758D01*
X185840Y37011D01*
X176711Y46140D01*
X176696Y46153D01*
X176685Y46165D01*
X176680Y46169D01*
X176673Y46178D01*
X176535Y46285D01*
X176400Y46395D01*
X176376Y46408D01*
X176355Y46424D01*
X176198Y46502D01*
X176044Y46584D01*
X176019Y46592D01*
X175994Y46604D01*
X175825Y46649D01*
X175658Y46699D01*
X175632Y46701D01*
X175606Y46708D01*
X175275Y46735D01*
X110475Y46735D01*
X110448Y46733D01*
X110422Y46735D01*
X110248Y46713D01*
X110074Y46695D01*
X110049Y46688D01*
X110022Y46684D01*
X109857Y46629D01*
X109690Y46577D01*
X109666Y46564D01*
X109641Y46556D01*
X109489Y46469D01*
X109335Y46385D01*
X109315Y46368D01*
X109292Y46355D01*
X109039Y46140D01*
X97552Y34654D01*
X96059Y34035D01*
X61272Y34035D01*
X61250Y34033D01*
X61227Y34035D01*
X61050Y34013D01*
X60872Y33995D01*
X60850Y33989D01*
X60828Y33986D01*
X60658Y33930D01*
X60487Y33877D01*
X60467Y33866D01*
X60445Y33859D01*
X60290Y33771D01*
X60133Y33685D01*
X60115Y33671D01*
X60096Y33660D01*
X59961Y33542D01*
X59823Y33428D01*
X59809Y33410D01*
X59792Y33395D01*
X59683Y33253D01*
X59633Y33191D01*
X56625Y30183D01*
X52845Y28617D01*
X48755Y28617D01*
X44975Y30183D01*
X42083Y33075D01*
X40517Y36855D01*
X40517Y40945D01*
X42083Y44725D01*
X44975Y47617D01*
X48755Y49183D01*
X52845Y49183D01*
X56625Y47617D01*
X59517Y44725D01*
X60058Y43419D01*
X60069Y43399D01*
X60076Y43378D01*
X60164Y43222D01*
X60248Y43064D01*
X60263Y43047D01*
X60274Y43027D01*
X60391Y42892D01*
X60505Y42753D01*
X60522Y42739D01*
X60537Y42722D01*
X60678Y42613D01*
X60817Y42500D01*
X60837Y42489D01*
X60855Y42476D01*
X61016Y42396D01*
X61174Y42313D01*
X61195Y42306D01*
X61215Y42296D01*
X61389Y42250D01*
X61560Y42200D01*
X61583Y42198D01*
X61604Y42192D01*
X61935Y42165D01*
X92725Y42165D01*
X92752Y42167D01*
X92778Y42165D01*
X92952Y42187D01*
X93126Y42205D01*
X93151Y42212D01*
X93178Y42216D01*
X93343Y42271D01*
X93510Y42323D01*
X93534Y42336D01*
X93559Y42344D01*
X93711Y42431D01*
X93865Y42515D01*
X93885Y42532D01*
X93908Y42545D01*
X94161Y42760D01*
X105648Y54246D01*
X107141Y54865D01*
X178609Y54865D01*
X180102Y54246D01*
X193946Y40402D01*
X194565Y38909D01*
X194565Y30005D01*
X194567Y29979D01*
X194565Y29952D01*
X194587Y29778D01*
X194605Y29605D01*
X194612Y29579D01*
X194616Y29552D01*
X194672Y29387D01*
X194723Y29220D01*
X194736Y29196D01*
X194744Y29171D01*
X194831Y29019D01*
X194915Y28866D01*
X194932Y28845D01*
X194945Y28822D01*
X195160Y28569D01*
X200515Y23214D01*
X200515Y14586D01*
X199557Y13628D01*
X199551Y13621D01*
X199544Y13616D01*
X199423Y13465D01*
X199302Y13317D01*
X199298Y13309D01*
X199292Y13302D01*
X199204Y13132D01*
X199113Y12961D01*
X199111Y12952D01*
X199107Y12945D01*
X199054Y12760D01*
X198998Y12575D01*
X198998Y12566D01*
X198995Y12558D01*
X198980Y12367D01*
X198962Y12174D01*
X198963Y12165D01*
X198962Y12156D01*
X198985Y11967D01*
X199005Y11774D01*
X199008Y11765D01*
X199009Y11757D01*
X199069Y11575D01*
X199127Y11390D01*
X199131Y11382D01*
X199134Y11374D01*
X199228Y11207D01*
X199322Y11038D01*
X199328Y11031D01*
X199332Y11023D01*
X199457Y10878D01*
X199582Y10731D01*
X199589Y10725D01*
X199595Y10718D01*
X199746Y10602D01*
X199898Y10481D01*
X199906Y10477D01*
X199913Y10472D01*
X200084Y10387D01*
X200257Y10299D01*
X200266Y10296D01*
X200274Y10292D01*
X200459Y10243D01*
X200645Y10191D01*
X200654Y10190D01*
X200663Y10188D01*
X200993Y10161D01*
X337058Y10161D01*
X337076Y10163D01*
X337094Y10161D01*
X337276Y10182D01*
X337459Y10201D01*
X337476Y10206D01*
X337493Y10208D01*
X337668Y10265D01*
X337844Y10319D01*
X337859Y10327D01*
X337876Y10333D01*
X338036Y10423D01*
X338198Y10511D01*
X338211Y10522D01*
X338227Y10531D01*
X338366Y10651D01*
X338507Y10768D01*
X338518Y10782D01*
X338532Y10794D01*
X338644Y10939D01*
X338759Y11082D01*
X338767Y11098D01*
X338778Y11112D01*
X338860Y11277D01*
X338945Y11439D01*
X338950Y11456D01*
X338958Y11472D01*
X339005Y11651D01*
X339056Y11826D01*
X339058Y11844D01*
X339062Y11861D01*
X339089Y12192D01*
X339089Y840568D01*
X339088Y840581D01*
X339089Y840595D01*
X339068Y840781D01*
X339049Y840969D01*
X339045Y840981D01*
X339044Y840995D01*
X338986Y841174D01*
X338931Y841354D01*
X338925Y841365D01*
X338921Y841378D01*
X338829Y841543D01*
X338739Y841708D01*
X338731Y841718D01*
X338724Y841730D01*
X338602Y841872D01*
X338482Y842017D01*
X338471Y842025D01*
X338463Y842035D01*
X338315Y842151D01*
X338168Y842269D01*
X338156Y842275D01*
X338146Y842284D01*
X337977Y842368D01*
X337811Y842455D01*
X337798Y842458D01*
X337786Y842464D01*
X337605Y842514D01*
X337424Y842566D01*
X337410Y842567D01*
X337397Y842571D01*
X337209Y842584D01*
X337022Y842599D01*
X337009Y842597D01*
X336996Y842598D01*
X336808Y842574D01*
X336623Y842552D01*
X336610Y842548D01*
X336597Y842546D01*
X336281Y842445D01*
X333390Y841247D01*
X314310Y841247D01*
X310762Y842717D01*
X308047Y845432D01*
X307985Y845581D01*
X307975Y845601D01*
X307968Y845622D01*
X307879Y845778D01*
X307795Y845936D01*
X307781Y845953D01*
X307770Y845973D01*
X307653Y846108D01*
X307538Y846247D01*
X307521Y846261D01*
X307507Y846278D01*
X307365Y846387D01*
X307226Y846500D01*
X307206Y846511D01*
X307188Y846524D01*
X307028Y846604D01*
X306869Y846687D01*
X306848Y846694D01*
X306828Y846704D01*
X306655Y846750D01*
X306483Y846800D01*
X306461Y846802D01*
X306439Y846808D01*
X306108Y846835D01*
X294625Y846835D01*
X294598Y846833D01*
X294572Y846835D01*
X294398Y846813D01*
X294224Y846795D01*
X294199Y846788D01*
X294172Y846784D01*
X294007Y846729D01*
X293839Y846677D01*
X293816Y846664D01*
X293791Y846656D01*
X293639Y846569D01*
X293485Y846485D01*
X293465Y846468D01*
X293442Y846455D01*
X293189Y846240D01*
X271360Y824411D01*
X271343Y824391D01*
X271322Y824373D01*
X271215Y824235D01*
X271105Y824100D01*
X271092Y824076D01*
X271076Y824055D01*
X270998Y823898D01*
X270916Y823744D01*
X270908Y823719D01*
X270896Y823694D01*
X270851Y823525D01*
X270801Y823358D01*
X270799Y823332D01*
X270792Y823306D01*
X270765Y822975D01*
X270765Y681280D01*
X270767Y681254D01*
X270765Y681227D01*
X270787Y681053D01*
X270805Y680880D01*
X270812Y680854D01*
X270816Y680828D01*
X270871Y680662D01*
X270923Y680495D01*
X270936Y680471D01*
X270944Y680446D01*
X271031Y680295D01*
X271115Y680141D01*
X271132Y680120D01*
X271145Y680097D01*
X271360Y679844D01*
X277404Y673799D01*
X277418Y673788D01*
X277430Y673774D01*
X277574Y673661D01*
X277716Y673544D01*
X277732Y673536D01*
X277746Y673525D01*
X277910Y673441D01*
X278072Y673355D01*
X278089Y673350D01*
X278105Y673342D01*
X278282Y673293D01*
X278458Y673241D01*
X278475Y673239D01*
X278493Y673234D01*
X278676Y673221D01*
X278859Y673204D01*
X278876Y673206D01*
X278894Y673205D01*
X279076Y673228D01*
X279259Y673248D01*
X279276Y673253D01*
X279294Y673255D01*
X279467Y673314D01*
X279643Y673369D01*
X279658Y673378D01*
X279675Y673384D01*
X279835Y673475D01*
X279995Y673564D01*
X280009Y673575D01*
X280024Y673584D01*
X280277Y673799D01*
X287176Y680698D01*
X288951Y680698D01*
X288951Y670493D01*
X288952Y670475D01*
X288951Y670458D01*
X288972Y670275D01*
X288991Y670093D01*
X288996Y670076D01*
X288998Y670058D01*
X289055Y669883D01*
X289086Y669783D01*
X289082Y669776D01*
X289034Y669598D01*
X288984Y669423D01*
X288982Y669405D01*
X288978Y669388D01*
X288951Y669057D01*
X288951Y658852D01*
X287176Y658852D01*
X280277Y665751D01*
X280263Y665762D01*
X280252Y665776D01*
X280109Y665889D01*
X279966Y666006D01*
X279950Y666014D01*
X279936Y666025D01*
X279772Y666109D01*
X279610Y666195D01*
X279593Y666200D01*
X279577Y666208D01*
X279400Y666257D01*
X279224Y666309D01*
X279206Y666311D01*
X279189Y666316D01*
X279006Y666329D01*
X278823Y666346D01*
X278805Y666344D01*
X278787Y666345D01*
X278605Y666322D01*
X278423Y666302D01*
X278406Y666297D01*
X278388Y666295D01*
X278214Y666236D01*
X278039Y666181D01*
X278023Y666172D01*
X278006Y666166D01*
X277847Y666075D01*
X277687Y665986D01*
X277673Y665975D01*
X277657Y665966D01*
X277404Y665751D01*
X271014Y659360D01*
X262386Y659360D01*
X256285Y665461D01*
X256285Y674089D01*
X262040Y679844D01*
X262057Y679865D01*
X262078Y679882D01*
X262185Y680020D01*
X262295Y680155D01*
X262308Y680179D01*
X262324Y680200D01*
X262402Y680357D01*
X262484Y680511D01*
X262492Y680537D01*
X262504Y680561D01*
X262549Y680730D01*
X262599Y680897D01*
X262601Y680924D01*
X262608Y680950D01*
X262635Y681280D01*
X262635Y826309D01*
X263254Y827802D01*
X264683Y829231D01*
X264683Y829232D01*
X288368Y852917D01*
X288369Y852917D01*
X289798Y854346D01*
X291291Y854965D01*
X306108Y854965D01*
X306131Y854967D01*
X306153Y854965D01*
X306330Y854987D01*
X306509Y855005D01*
X306530Y855011D01*
X306553Y855014D01*
X306722Y855070D01*
X306894Y855123D01*
X306914Y855133D01*
X306935Y855140D01*
X307090Y855229D01*
X307248Y855315D01*
X307265Y855329D01*
X307284Y855340D01*
X307419Y855457D01*
X307557Y855572D01*
X307571Y855590D01*
X307588Y855604D01*
X307697Y855746D01*
X307810Y855886D01*
X307820Y855906D01*
X307833Y855924D01*
X307985Y856219D01*
X308047Y856368D01*
X310762Y859083D01*
X311482Y859381D01*
X314310Y860553D01*
X333390Y860553D01*
X336281Y859355D01*
X336294Y859351D01*
X336305Y859345D01*
X336485Y859294D01*
X336666Y859239D01*
X336679Y859238D01*
X336692Y859234D01*
X336880Y859219D01*
X337067Y859201D01*
X337080Y859202D01*
X337094Y859201D01*
X337280Y859223D01*
X337467Y859242D01*
X337480Y859246D01*
X337493Y859248D01*
X337672Y859306D01*
X337852Y859362D01*
X337863Y859369D01*
X337876Y859373D01*
X338041Y859466D01*
X338205Y859556D01*
X338215Y859564D01*
X338227Y859571D01*
X338369Y859694D01*
X338513Y859815D01*
X338521Y859825D01*
X338532Y859834D01*
X338647Y859982D01*
X338764Y860130D01*
X338770Y860141D01*
X338778Y860152D01*
X338862Y860321D01*
X338948Y860488D01*
X338952Y860500D01*
X338958Y860513D01*
X339007Y860695D01*
X339058Y860875D01*
X339059Y860888D01*
X339062Y860901D01*
X339089Y861232D01*
X339089Y865968D01*
X339088Y865981D01*
X339089Y865995D01*
X339068Y866181D01*
X339049Y866369D01*
X339045Y866381D01*
X339044Y866395D01*
X338986Y866574D01*
X338931Y866754D01*
X338925Y866765D01*
X338921Y866778D01*
X338829Y866943D01*
X338739Y867108D01*
X338731Y867118D01*
X338724Y867130D01*
X338602Y867272D01*
X338482Y867417D01*
X338471Y867425D01*
X338463Y867435D01*
X338315Y867551D01*
X338168Y867669D01*
X338156Y867675D01*
X338146Y867684D01*
X337977Y867768D01*
X337811Y867855D01*
X337798Y867858D01*
X337786Y867864D01*
X337605Y867914D01*
X337424Y867966D01*
X337410Y867967D01*
X337397Y867971D01*
X337209Y867984D01*
X337022Y867999D01*
X337009Y867997D01*
X336996Y867998D01*
X336808Y867974D01*
X336623Y867952D01*
X336610Y867948D01*
X336597Y867946D01*
X336281Y867845D01*
X333390Y866647D01*
X314310Y866647D01*
X310762Y868117D01*
X308047Y870832D01*
X307985Y870981D01*
X307975Y871001D01*
X307968Y871022D01*
X307879Y871178D01*
X307795Y871336D01*
X307781Y871353D01*
X307770Y871373D01*
X307653Y871508D01*
X307538Y871647D01*
X307521Y871661D01*
X307507Y871678D01*
X307365Y871787D01*
X307226Y871900D01*
X307206Y871911D01*
X307188Y871924D01*
X307028Y872004D01*
X306869Y872087D01*
X306848Y872094D01*
X306828Y872104D01*
X306655Y872150D01*
X306483Y872200D01*
X306461Y872202D01*
X306439Y872208D01*
X306108Y872235D01*
X294625Y872235D01*
X294598Y872233D01*
X294572Y872235D01*
X294398Y872213D01*
X294224Y872195D01*
X294199Y872188D01*
X294172Y872184D01*
X294007Y872129D01*
X293840Y872077D01*
X293816Y872064D01*
X293791Y872056D01*
X293639Y871968D01*
X293485Y871885D01*
X293465Y871868D01*
X293442Y871855D01*
X293189Y871640D01*
X258660Y837111D01*
X258643Y837091D01*
X258622Y837073D01*
X258515Y836935D01*
X258405Y836800D01*
X258392Y836776D01*
X258376Y836755D01*
X258298Y836598D01*
X258216Y836444D01*
X258208Y836419D01*
X258196Y836394D01*
X258151Y836225D01*
X258101Y836058D01*
X258099Y836032D01*
X258092Y836006D01*
X258065Y835675D01*
X258065Y704041D01*
X257446Y702548D01*
X245960Y691061D01*
X245943Y691041D01*
X245922Y691023D01*
X245815Y690885D01*
X245705Y690750D01*
X245692Y690726D01*
X245676Y690705D01*
X245598Y690548D01*
X245516Y690394D01*
X245508Y690369D01*
X245496Y690344D01*
X245451Y690175D01*
X245401Y690008D01*
X245399Y689982D01*
X245392Y689956D01*
X245365Y689625D01*
X245365Y682221D01*
X245367Y682203D01*
X245365Y682185D01*
X245386Y682003D01*
X245405Y681820D01*
X245410Y681803D01*
X245412Y681786D01*
X245469Y681611D01*
X245523Y681435D01*
X245531Y681420D01*
X245537Y681403D01*
X245627Y681243D01*
X245715Y681081D01*
X245726Y681068D01*
X245735Y681052D01*
X245855Y680913D01*
X245972Y680772D01*
X245986Y680761D01*
X245998Y680747D01*
X246143Y680635D01*
X246286Y680520D01*
X246302Y680512D01*
X246316Y680501D01*
X246481Y680419D01*
X246643Y680334D01*
X246660Y680329D01*
X246676Y680321D01*
X246855Y680274D01*
X247030Y680223D01*
X247048Y680221D01*
X247065Y680217D01*
X247396Y680190D01*
X250924Y680190D01*
X252115Y678999D01*
X252115Y660551D01*
X250924Y659360D01*
X232476Y659360D01*
X231285Y660551D01*
X231285Y678999D01*
X232476Y680190D01*
X235204Y680190D01*
X235222Y680192D01*
X235240Y680190D01*
X235422Y680211D01*
X235605Y680230D01*
X235622Y680235D01*
X235639Y680237D01*
X235814Y680294D01*
X235990Y680348D01*
X236005Y680356D01*
X236022Y680362D01*
X236182Y680452D01*
X236344Y680540D01*
X236357Y680551D01*
X236373Y680560D01*
X236512Y680680D01*
X236653Y680797D01*
X236664Y680811D01*
X236678Y680823D01*
X236790Y680968D01*
X236905Y681111D01*
X236913Y681127D01*
X236924Y681141D01*
X237006Y681306D01*
X237091Y681468D01*
X237096Y681485D01*
X237104Y681501D01*
X237151Y681680D01*
X237202Y681855D01*
X237204Y681873D01*
X237208Y681890D01*
X237235Y682221D01*
X237235Y692959D01*
X237854Y694452D01*
X249340Y705939D01*
X249357Y705959D01*
X249378Y705977D01*
X249485Y706115D01*
X249595Y706250D01*
X249608Y706274D01*
X249624Y706295D01*
X249702Y706452D01*
X249784Y706606D01*
X249792Y706631D01*
X249804Y706656D01*
X249849Y706825D01*
X249899Y706992D01*
X249901Y707018D01*
X249908Y707044D01*
X249935Y707375D01*
X249935Y839009D01*
X250554Y840502D01*
X289798Y879746D01*
X291291Y880365D01*
X306108Y880365D01*
X306131Y880367D01*
X306153Y880365D01*
X306330Y880387D01*
X306509Y880405D01*
X306530Y880411D01*
X306553Y880414D01*
X306722Y880470D01*
X306894Y880523D01*
X306914Y880533D01*
X306935Y880540D01*
X307090Y880629D01*
X307248Y880715D01*
X307265Y880729D01*
X307284Y880740D01*
X307419Y880857D01*
X307557Y880972D01*
X307571Y880990D01*
X307588Y881004D01*
X307697Y881146D01*
X307810Y881286D01*
X307820Y881306D01*
X307833Y881324D01*
X307985Y881619D01*
X308047Y881768D01*
X310762Y884483D01*
X314310Y885953D01*
X333390Y885953D01*
X336281Y884755D01*
X336294Y884751D01*
X336305Y884745D01*
X336485Y884694D01*
X336666Y884639D01*
X336679Y884638D01*
X336692Y884634D01*
X336880Y884619D01*
X337067Y884601D01*
X337080Y884602D01*
X337094Y884601D01*
X337280Y884623D01*
X337467Y884642D01*
X337480Y884646D01*
X337493Y884648D01*
X337672Y884706D01*
X337852Y884762D01*
X337863Y884769D01*
X337876Y884773D01*
X338041Y884866D01*
X338205Y884956D01*
X338215Y884964D01*
X338227Y884971D01*
X338369Y885094D01*
X338513Y885215D01*
X338521Y885225D01*
X338532Y885234D01*
X338647Y885382D01*
X338764Y885530D01*
X338770Y885541D01*
X338778Y885552D01*
X338862Y885721D01*
X338948Y885888D01*
X338952Y885900D01*
X338958Y885913D01*
X339007Y886095D01*
X339058Y886275D01*
X339059Y886288D01*
X339062Y886301D01*
X339089Y886632D01*
X339089Y891368D01*
X339088Y891381D01*
X339089Y891395D01*
X339068Y891581D01*
X339049Y891769D01*
X339045Y891781D01*
X339044Y891795D01*
X338986Y891974D01*
X338931Y892154D01*
X338925Y892165D01*
X338921Y892178D01*
X338829Y892343D01*
X338739Y892508D01*
X338731Y892518D01*
X338724Y892530D01*
X338602Y892672D01*
X338482Y892817D01*
X338471Y892825D01*
X338463Y892835D01*
X338315Y892951D01*
X338168Y893069D01*
X338156Y893075D01*
X338146Y893084D01*
X337977Y893168D01*
X337811Y893255D01*
X337798Y893258D01*
X337786Y893264D01*
X337605Y893314D01*
X337424Y893366D01*
X337410Y893367D01*
X337397Y893371D01*
X337209Y893384D01*
X337022Y893399D01*
X337009Y893397D01*
X336996Y893398D01*
X336808Y893374D01*
X336623Y893352D01*
X336610Y893348D01*
X336597Y893346D01*
X336281Y893245D01*
X333390Y892047D01*
X314310Y892047D01*
X310762Y893517D01*
X308047Y896232D01*
X307985Y896381D01*
X307975Y896401D01*
X307968Y896422D01*
X307879Y896578D01*
X307795Y896736D01*
X307781Y896753D01*
X307770Y896773D01*
X307653Y896908D01*
X307538Y897047D01*
X307521Y897061D01*
X307507Y897078D01*
X307365Y897187D01*
X307226Y897300D01*
X307206Y897311D01*
X307188Y897324D01*
X307028Y897404D01*
X306869Y897487D01*
X306848Y897494D01*
X306828Y897504D01*
X306655Y897550D01*
X306483Y897600D01*
X306461Y897602D01*
X306439Y897608D01*
X306108Y897635D01*
X262875Y897635D01*
X262848Y897633D01*
X262822Y897635D01*
X262648Y897613D01*
X262474Y897595D01*
X262449Y897588D01*
X262422Y897584D01*
X262257Y897529D01*
X262090Y897477D01*
X262066Y897464D01*
X262041Y897456D01*
X261889Y897369D01*
X261735Y897285D01*
X261715Y897268D01*
X261692Y897255D01*
X261439Y897040D01*
X193382Y828983D01*
X193365Y828963D01*
X193344Y828945D01*
X193237Y828807D01*
X193127Y828672D01*
X193114Y828648D01*
X193098Y828627D01*
X193055Y828540D01*
X187727Y823213D01*
X180573Y823213D01*
X176596Y827190D01*
X176575Y827207D01*
X176557Y827228D01*
X176419Y827335D01*
X176284Y827445D01*
X176260Y827458D01*
X176239Y827474D01*
X176083Y827552D01*
X175928Y827634D01*
X175903Y827642D01*
X175879Y827654D01*
X175709Y827699D01*
X175542Y827749D01*
X175516Y827751D01*
X175490Y827758D01*
X175159Y827785D01*
X167741Y827785D01*
X167714Y827783D01*
X167687Y827785D01*
X167514Y827763D01*
X167340Y827745D01*
X167315Y827738D01*
X167288Y827734D01*
X167122Y827678D01*
X166955Y827627D01*
X166932Y827614D01*
X166906Y827606D01*
X166755Y827519D01*
X166601Y827435D01*
X166581Y827418D01*
X166557Y827405D01*
X166304Y827190D01*
X162327Y823213D01*
X155173Y823213D01*
X150113Y828273D01*
X150113Y835427D01*
X155173Y840487D01*
X162327Y840487D01*
X166304Y836510D01*
X166325Y836493D01*
X166343Y836472D01*
X166481Y836365D01*
X166616Y836255D01*
X166640Y836242D01*
X166661Y836226D01*
X166817Y836148D01*
X166972Y836066D01*
X166997Y836058D01*
X167021Y836046D01*
X167191Y836001D01*
X167358Y835951D01*
X167384Y835949D01*
X167410Y835942D01*
X167741Y835915D01*
X175159Y835915D01*
X175186Y835917D01*
X175213Y835915D01*
X175386Y835937D01*
X175560Y835955D01*
X175585Y835962D01*
X175612Y835966D01*
X175778Y836022D01*
X175945Y836073D01*
X175968Y836086D01*
X175994Y836094D01*
X176145Y836181D01*
X176299Y836265D01*
X176319Y836282D01*
X176343Y836295D01*
X176596Y836510D01*
X180573Y840487D01*
X187727Y840487D01*
X189122Y839093D01*
X189135Y839081D01*
X189147Y839068D01*
X189291Y838954D01*
X189433Y838838D01*
X189449Y838829D01*
X189463Y838818D01*
X189627Y838735D01*
X189789Y838649D01*
X189806Y838644D01*
X189822Y838636D01*
X189999Y838586D01*
X190175Y838534D01*
X190192Y838532D01*
X190210Y838528D01*
X190393Y838514D01*
X190576Y838498D01*
X190593Y838500D01*
X190611Y838498D01*
X190793Y838521D01*
X190976Y838541D01*
X190993Y838547D01*
X191011Y838549D01*
X191184Y838607D01*
X191360Y838663D01*
X191375Y838671D01*
X191392Y838677D01*
X191551Y838768D01*
X191712Y838857D01*
X191726Y838869D01*
X191741Y838878D01*
X191994Y839093D01*
X258048Y905146D01*
X259541Y905765D01*
X306108Y905765D01*
X306131Y905767D01*
X306153Y905765D01*
X306330Y905787D01*
X306509Y905805D01*
X306530Y905811D01*
X306553Y905814D01*
X306722Y905870D01*
X306894Y905923D01*
X306914Y905933D01*
X306935Y905940D01*
X307090Y906029D01*
X307248Y906115D01*
X307265Y906129D01*
X307284Y906140D01*
X307419Y906257D01*
X307557Y906372D01*
X307571Y906390D01*
X307588Y906404D01*
X307697Y906546D01*
X307810Y906686D01*
X307820Y906706D01*
X307833Y906724D01*
X307985Y907019D01*
X308047Y907168D01*
X310762Y909883D01*
X314310Y911353D01*
X333390Y911353D01*
X336281Y910155D01*
X336294Y910151D01*
X336305Y910145D01*
X336319Y910141D01*
X336330Y910136D01*
X336448Y910104D01*
X336485Y910094D01*
X336666Y910039D01*
X336679Y910038D01*
X336692Y910034D01*
X336717Y910032D01*
X336718Y910032D01*
X336898Y910017D01*
X337067Y910001D01*
X337080Y910002D01*
X337094Y910001D01*
X337280Y910023D01*
X337467Y910042D01*
X337480Y910046D01*
X337493Y910048D01*
X337672Y910106D01*
X337852Y910162D01*
X337863Y910169D01*
X337876Y910173D01*
X338041Y910266D01*
X338205Y910356D01*
X338215Y910364D01*
X338227Y910371D01*
X338369Y910494D01*
X338513Y910615D01*
X338521Y910625D01*
X338532Y910634D01*
X338647Y910782D01*
X338764Y910930D01*
X338770Y910941D01*
X338778Y910952D01*
X338862Y911121D01*
X338948Y911288D01*
X338952Y911300D01*
X338958Y911313D01*
X339007Y911495D01*
X339058Y911675D01*
X339059Y911688D01*
X339062Y911701D01*
X339089Y912032D01*
X339089Y916768D01*
X339088Y916781D01*
X339089Y916795D01*
X339068Y916981D01*
X339049Y917169D01*
X339045Y917181D01*
X339044Y917195D01*
X338986Y917374D01*
X338931Y917554D01*
X338925Y917565D01*
X338921Y917578D01*
X338829Y917743D01*
X338739Y917908D01*
X338731Y917918D01*
X338724Y917930D01*
X338602Y918072D01*
X338482Y918217D01*
X338471Y918225D01*
X338463Y918235D01*
X338315Y918351D01*
X338168Y918469D01*
X338156Y918475D01*
X338146Y918484D01*
X337977Y918568D01*
X337811Y918655D01*
X337798Y918658D01*
X337786Y918664D01*
X337605Y918714D01*
X337424Y918766D01*
X337410Y918767D01*
X337397Y918771D01*
X337209Y918784D01*
X337022Y918799D01*
X337009Y918797D01*
X336996Y918798D01*
X336808Y918774D01*
X336623Y918752D01*
X336610Y918748D01*
X336597Y918746D01*
X336281Y918645D01*
X333390Y917447D01*
X314310Y917447D01*
X310762Y918917D01*
X308047Y921632D01*
X307985Y921781D01*
X307975Y921801D01*
X307968Y921822D01*
X307879Y921978D01*
X307795Y922136D01*
X307781Y922153D01*
X307770Y922173D01*
X307653Y922308D01*
X307538Y922447D01*
X307521Y922461D01*
X307507Y922478D01*
X307365Y922587D01*
X307226Y922700D01*
X307206Y922711D01*
X307188Y922724D01*
X307028Y922804D01*
X306869Y922887D01*
X306848Y922894D01*
X306828Y922904D01*
X306655Y922950D01*
X306483Y923000D01*
X306461Y923002D01*
X306439Y923008D01*
X306108Y923035D01*
X262875Y923035D01*
X262848Y923033D01*
X262822Y923035D01*
X262648Y923013D01*
X262474Y922995D01*
X262449Y922988D01*
X262422Y922984D01*
X262257Y922929D01*
X262090Y922877D01*
X262066Y922864D01*
X262041Y922856D01*
X261889Y922769D01*
X261735Y922685D01*
X261715Y922668D01*
X261692Y922655D01*
X261439Y922440D01*
X205502Y866504D01*
X204009Y865885D01*
X173975Y865885D01*
X173948Y865883D01*
X173922Y865885D01*
X173748Y865863D01*
X173574Y865845D01*
X173549Y865838D01*
X173522Y865834D01*
X173357Y865779D01*
X173190Y865727D01*
X173166Y865714D01*
X173141Y865706D01*
X172989Y865619D01*
X172835Y865535D01*
X172815Y865518D01*
X172792Y865505D01*
X172539Y865290D01*
X142582Y835333D01*
X142565Y835313D01*
X142544Y835295D01*
X142437Y835157D01*
X142327Y835022D01*
X142314Y834998D01*
X142298Y834977D01*
X142220Y834820D01*
X142138Y834666D01*
X142130Y834641D01*
X142118Y834616D01*
X142073Y834447D01*
X142023Y834280D01*
X142021Y834254D01*
X142014Y834228D01*
X141987Y833897D01*
X141987Y828273D01*
X136927Y823213D01*
X129773Y823213D01*
X124713Y828273D01*
X124713Y835427D01*
X129773Y840487D01*
X135397Y840487D01*
X135424Y840489D01*
X135450Y840487D01*
X135624Y840509D01*
X135798Y840527D01*
X135823Y840534D01*
X135850Y840538D01*
X136015Y840593D01*
X136182Y840645D01*
X136206Y840658D01*
X136231Y840666D01*
X136383Y840753D01*
X136537Y840837D01*
X136557Y840854D01*
X136580Y840867D01*
X136833Y841082D01*
X169148Y873396D01*
X170641Y874015D01*
X200675Y874015D01*
X200702Y874017D01*
X200728Y874015D01*
X200902Y874037D01*
X201076Y874055D01*
X201101Y874062D01*
X201128Y874066D01*
X201293Y874121D01*
X201460Y874173D01*
X201484Y874186D01*
X201509Y874194D01*
X201661Y874281D01*
X201815Y874365D01*
X201835Y874382D01*
X201858Y874395D01*
X202111Y874610D01*
X258048Y930546D01*
X259541Y931165D01*
X306108Y931165D01*
X306131Y931167D01*
X306153Y931165D01*
X306330Y931187D01*
X306509Y931205D01*
X306530Y931211D01*
X306553Y931214D01*
X306722Y931270D01*
X306894Y931323D01*
X306914Y931333D01*
X306935Y931340D01*
X307090Y931429D01*
X307248Y931515D01*
X307265Y931529D01*
X307284Y931540D01*
X307419Y931657D01*
X307557Y931772D01*
X307571Y931790D01*
X307588Y931804D01*
X307697Y931946D01*
X307810Y932086D01*
X307820Y932106D01*
X307833Y932124D01*
X307985Y932419D01*
X308047Y932568D01*
X310762Y935283D01*
X314310Y936753D01*
X333390Y936753D01*
X336281Y935555D01*
X336294Y935551D01*
X336305Y935545D01*
X336485Y935494D01*
X336666Y935439D01*
X336679Y935438D01*
X336692Y935434D01*
X336880Y935419D01*
X337067Y935401D01*
X337080Y935402D01*
X337094Y935401D01*
X337280Y935423D01*
X337467Y935442D01*
X337480Y935446D01*
X337493Y935448D01*
X337672Y935506D01*
X337852Y935562D01*
X337863Y935569D01*
X337876Y935573D01*
X338041Y935666D01*
X338205Y935756D01*
X338215Y935764D01*
X338227Y935771D01*
X338369Y935894D01*
X338513Y936015D01*
X338521Y936025D01*
X338532Y936034D01*
X338647Y936182D01*
X338764Y936330D01*
X338770Y936341D01*
X338778Y936352D01*
X338862Y936521D01*
X338948Y936688D01*
X338952Y936700D01*
X338958Y936713D01*
X339007Y936895D01*
X339058Y937075D01*
X339059Y937088D01*
X339062Y937101D01*
X339089Y937432D01*
X339089Y942168D01*
X339088Y942181D01*
X339089Y942195D01*
X339068Y942381D01*
X339049Y942569D01*
X339045Y942581D01*
X339044Y942595D01*
X338986Y942774D01*
X338931Y942954D01*
X338925Y942965D01*
X338921Y942978D01*
X338829Y943143D01*
X338739Y943308D01*
X338731Y943318D01*
X338724Y943330D01*
X338602Y943472D01*
X338482Y943617D01*
X338471Y943625D01*
X338463Y943635D01*
X338315Y943751D01*
X338168Y943869D01*
X338156Y943875D01*
X338146Y943884D01*
X337977Y943968D01*
X337811Y944055D01*
X337798Y944058D01*
X337786Y944064D01*
X337605Y944114D01*
X337424Y944166D01*
X337410Y944167D01*
X337397Y944171D01*
X337209Y944184D01*
X337022Y944199D01*
X337009Y944197D01*
X336996Y944198D01*
X336808Y944174D01*
X336623Y944152D01*
X336610Y944148D01*
X336597Y944146D01*
X336281Y944045D01*
X333390Y942847D01*
X314310Y942847D01*
X310762Y944317D01*
X308047Y947032D01*
X307985Y947181D01*
X307975Y947201D01*
X307968Y947222D01*
X307879Y947378D01*
X307795Y947536D01*
X307781Y947553D01*
X307770Y947573D01*
X307653Y947708D01*
X307538Y947847D01*
X307521Y947861D01*
X307507Y947878D01*
X307365Y947987D01*
X307226Y948100D01*
X307206Y948111D01*
X307188Y948124D01*
X307028Y948204D01*
X306869Y948287D01*
X306848Y948294D01*
X306828Y948304D01*
X306655Y948350D01*
X306483Y948400D01*
X306461Y948402D01*
X306439Y948408D01*
X306108Y948435D01*
X262875Y948435D01*
X262848Y948433D01*
X262822Y948435D01*
X262648Y948413D01*
X262474Y948395D01*
X262449Y948388D01*
X262422Y948384D01*
X262257Y948329D01*
X262090Y948277D01*
X262066Y948264D01*
X262041Y948256D01*
X261889Y948169D01*
X261735Y948085D01*
X261715Y948068D01*
X261692Y948055D01*
X261439Y947840D01*
X218790Y905192D01*
X218786Y905186D01*
X218779Y905181D01*
X218218Y904610D01*
X217477Y904304D01*
X217471Y904300D01*
X217463Y904298D01*
X216725Y903985D01*
X215924Y903985D01*
X215917Y903985D01*
X215908Y903985D01*
X208029Y903924D01*
X208010Y903922D01*
X207991Y903924D01*
X207809Y903901D01*
X207629Y903881D01*
X207611Y903876D01*
X207592Y903873D01*
X207418Y903815D01*
X207245Y903760D01*
X207228Y903751D01*
X207210Y903745D01*
X207052Y903654D01*
X206892Y903566D01*
X206878Y903554D01*
X206861Y903544D01*
X206608Y903330D01*
X200764Y897485D01*
X192136Y897485D01*
X186035Y903586D01*
X186035Y912214D01*
X192136Y918315D01*
X200764Y918315D01*
X206431Y912648D01*
X206458Y912626D01*
X206480Y912600D01*
X206613Y912499D01*
X206742Y912393D01*
X206773Y912377D01*
X206800Y912356D01*
X206951Y912282D01*
X207098Y912204D01*
X207131Y912194D01*
X207162Y912179D01*
X207324Y912137D01*
X207484Y912089D01*
X207518Y912086D01*
X207552Y912078D01*
X207883Y912053D01*
X207885Y912053D01*
X213371Y912095D01*
X213390Y912097D01*
X213409Y912096D01*
X213591Y912119D01*
X213771Y912138D01*
X213789Y912144D01*
X213808Y912146D01*
X213982Y912205D01*
X214155Y912259D01*
X214172Y912269D01*
X214190Y912275D01*
X214348Y912366D01*
X214508Y912454D01*
X214522Y912466D01*
X214539Y912476D01*
X214792Y912690D01*
X258048Y955946D01*
X259541Y956565D01*
X306108Y956565D01*
X306131Y956567D01*
X306153Y956565D01*
X306330Y956587D01*
X306509Y956605D01*
X306530Y956611D01*
X306553Y956614D01*
X306722Y956670D01*
X306894Y956723D01*
X306914Y956733D01*
X306935Y956740D01*
X307090Y956829D01*
X307248Y956915D01*
X307265Y956929D01*
X307284Y956940D01*
X307419Y957057D01*
X307557Y957172D01*
X307571Y957190D01*
X307588Y957204D01*
X307697Y957346D01*
X307810Y957486D01*
X307820Y957506D01*
X307833Y957524D01*
X307985Y957819D01*
X308047Y957968D01*
X310762Y960683D01*
X314310Y962153D01*
X333390Y962153D01*
X336281Y960955D01*
X336294Y960951D01*
X336305Y960945D01*
X336485Y960894D01*
X336666Y960839D01*
X336679Y960838D01*
X336692Y960834D01*
X336880Y960819D01*
X337067Y960801D01*
X337080Y960802D01*
X337094Y960801D01*
X337280Y960823D01*
X337467Y960842D01*
X337480Y960846D01*
X337493Y960848D01*
X337672Y960906D01*
X337852Y960962D01*
X337863Y960969D01*
X337876Y960973D01*
X338041Y961066D01*
X338205Y961156D01*
X338215Y961164D01*
X338227Y961171D01*
X338369Y961294D01*
X338513Y961415D01*
X338521Y961425D01*
X338532Y961434D01*
X338647Y961582D01*
X338764Y961730D01*
X338770Y961741D01*
X338778Y961752D01*
X338862Y961921D01*
X338948Y962088D01*
X338952Y962100D01*
X338958Y962113D01*
X339007Y962295D01*
X339058Y962475D01*
X339059Y962488D01*
X339062Y962501D01*
X339089Y962832D01*
X339089Y967064D01*
X339080Y967157D01*
X339081Y967250D01*
X339060Y967357D01*
X339049Y967464D01*
X339022Y967554D01*
X339004Y967645D01*
X338963Y967746D01*
X338931Y967849D01*
X338887Y967931D01*
X338851Y968018D01*
X338791Y968108D01*
X338739Y968203D01*
X338680Y968275D01*
X338628Y968353D01*
X338551Y968429D01*
X338482Y968513D01*
X338409Y968571D01*
X338343Y968637D01*
X338252Y968697D01*
X338168Y968765D01*
X338085Y968808D01*
X338008Y968860D01*
X337907Y968901D01*
X337811Y968951D01*
X337721Y968976D01*
X337635Y969012D01*
X337528Y969032D01*
X337424Y969062D01*
X337331Y969070D01*
X337239Y969087D01*
X337131Y969086D01*
X337022Y969095D01*
X336930Y969084D01*
X336837Y969083D01*
X336730Y969061D01*
X336623Y969048D01*
X336534Y969019D01*
X336443Y969000D01*
X336319Y968949D01*
X336240Y968923D01*
X336197Y968899D01*
X336136Y968874D01*
X335370Y968484D01*
X333849Y967989D01*
X332270Y967739D01*
X326389Y967739D01*
X326389Y977392D01*
X326387Y977410D01*
X326389Y977427D01*
X326368Y977610D01*
X326349Y977792D01*
X326344Y977809D01*
X326342Y977827D01*
X326285Y978002D01*
X326231Y978177D01*
X326223Y978193D01*
X326217Y978210D01*
X326127Y978370D01*
X326039Y978531D01*
X326028Y978545D01*
X326019Y978561D01*
X325899Y978700D01*
X325782Y978841D01*
X325768Y978852D01*
X325756Y978865D01*
X325611Y978978D01*
X325468Y979093D01*
X325452Y979101D01*
X325438Y979112D01*
X325273Y979194D01*
X325197Y979234D01*
X325111Y979386D01*
X325023Y979548D01*
X325012Y979561D01*
X325003Y979577D01*
X324883Y979716D01*
X324765Y979857D01*
X324752Y979868D01*
X324740Y979882D01*
X324595Y979994D01*
X324452Y980109D01*
X324436Y980117D01*
X324422Y980128D01*
X324257Y980210D01*
X324094Y980295D01*
X324077Y980300D01*
X324061Y980308D01*
X323883Y980355D01*
X323708Y980406D01*
X323690Y980408D01*
X323673Y980412D01*
X323342Y980439D01*
X306371Y980439D01*
X306814Y981800D01*
X307540Y983225D01*
X307786Y983564D01*
X307812Y983608D01*
X307844Y983648D01*
X307913Y983782D01*
X307989Y983912D01*
X308006Y983960D01*
X308029Y984005D01*
X308071Y984150D01*
X308120Y984292D01*
X308126Y984343D01*
X308141Y984392D01*
X308153Y984543D01*
X308173Y984692D01*
X308169Y984743D01*
X308173Y984794D01*
X308156Y984943D01*
X308146Y985093D01*
X308133Y985143D01*
X308127Y985193D01*
X308080Y985337D01*
X308040Y985482D01*
X308018Y985528D01*
X308002Y985576D01*
X307928Y985707D01*
X307860Y985842D01*
X307829Y985882D01*
X307804Y985927D01*
X307706Y986041D01*
X307613Y986159D01*
X307574Y986193D01*
X307541Y986232D01*
X307422Y986324D01*
X307308Y986422D01*
X307263Y986447D01*
X307223Y986478D01*
X307088Y986545D01*
X306957Y986619D01*
X306908Y986635D01*
X306862Y986658D01*
X306716Y986697D01*
X306573Y986743D01*
X306523Y986749D01*
X306473Y986762D01*
X306243Y986781D01*
X306173Y986789D01*
X306160Y986788D01*
X306143Y986789D01*
X236094Y986789D01*
X236076Y986787D01*
X236058Y986789D01*
X235876Y986768D01*
X235693Y986749D01*
X235676Y986744D01*
X235659Y986742D01*
X235484Y986685D01*
X235308Y986631D01*
X235293Y986623D01*
X235276Y986617D01*
X235116Y986527D01*
X234954Y986439D01*
X234941Y986428D01*
X234925Y986419D01*
X234786Y986299D01*
X234645Y986182D01*
X234634Y986168D01*
X234620Y986156D01*
X234508Y986011D01*
X234393Y985868D01*
X234385Y985852D01*
X234374Y985838D01*
X234292Y985673D01*
X234207Y985511D01*
X234202Y985494D01*
X234194Y985478D01*
X234147Y985299D01*
X234096Y985124D01*
X234094Y985106D01*
X234090Y985089D01*
X234063Y984758D01*
X234063Y961478D01*
X232872Y960287D01*
X200028Y960287D01*
X198837Y961478D01*
X198837Y984758D01*
X198835Y984776D01*
X198837Y984794D01*
X198816Y984976D01*
X198797Y985159D01*
X198792Y985176D01*
X198790Y985193D01*
X198733Y985368D01*
X198679Y985544D01*
X198671Y985559D01*
X198665Y985576D01*
X198575Y985736D01*
X198487Y985898D01*
X198476Y985911D01*
X198467Y985927D01*
X198347Y986066D01*
X198230Y986207D01*
X198216Y986218D01*
X198204Y986232D01*
X198059Y986344D01*
X197916Y986459D01*
X197900Y986467D01*
X197886Y986478D01*
X197721Y986560D01*
X197559Y986645D01*
X197542Y986650D01*
X197526Y986658D01*
X197347Y986705D01*
X197172Y986756D01*
X197154Y986758D01*
X197137Y986762D01*
X196806Y986789D01*
X146094Y986789D01*
X146076Y986787D01*
X146058Y986789D01*
X145876Y986768D01*
X145693Y986749D01*
X145676Y986744D01*
X145659Y986742D01*
X145484Y986685D01*
X145308Y986631D01*
X145293Y986623D01*
X145276Y986617D01*
X145116Y986527D01*
X144954Y986439D01*
X144941Y986428D01*
X144925Y986419D01*
X144786Y986299D01*
X144645Y986182D01*
X144634Y986168D01*
X144620Y986156D01*
X144508Y986011D01*
X144393Y985868D01*
X144385Y985852D01*
X144374Y985838D01*
X144292Y985673D01*
X144207Y985511D01*
X144202Y985494D01*
X144194Y985478D01*
X144147Y985299D01*
X144096Y985124D01*
X144094Y985106D01*
X144090Y985089D01*
X144063Y984758D01*
X144063Y961478D01*
X142872Y960287D01*
X110028Y960287D01*
X108837Y961478D01*
X108837Y984758D01*
X108835Y984776D01*
X108837Y984794D01*
X108816Y984976D01*
X108797Y985159D01*
X108792Y985176D01*
X108790Y985193D01*
X108733Y985368D01*
X108679Y985544D01*
X108671Y985559D01*
X108665Y985576D01*
X108575Y985736D01*
X108487Y985898D01*
X108476Y985911D01*
X108467Y985927D01*
X108347Y986066D01*
X108230Y986207D01*
X108216Y986218D01*
X108204Y986232D01*
X108059Y986344D01*
X107916Y986459D01*
X107900Y986467D01*
X107886Y986478D01*
X107721Y986560D01*
X107559Y986645D01*
X107542Y986650D01*
X107526Y986658D01*
X107347Y986705D01*
X107172Y986756D01*
X107154Y986758D01*
X107137Y986762D01*
X106806Y986789D01*
X43107Y986789D01*
X43057Y986784D01*
X43005Y986787D01*
X42857Y986764D01*
X42707Y986749D01*
X42658Y986734D01*
X42607Y986727D01*
X42466Y986675D01*
X42322Y986631D01*
X42277Y986607D01*
X42229Y986589D01*
X42100Y986511D01*
X41968Y986439D01*
X41929Y986407D01*
X41885Y986380D01*
X41774Y986278D01*
X41659Y986182D01*
X41627Y986142D01*
X41589Y986107D01*
X41501Y985985D01*
X41406Y985868D01*
X41383Y985823D01*
X41353Y985781D01*
X41290Y985644D01*
X41221Y985511D01*
X41207Y985462D01*
X41185Y985415D01*
X41151Y985268D01*
X41109Y985124D01*
X41105Y985073D01*
X41094Y985023D01*
X41089Y984872D01*
X41077Y984722D01*
X41082Y984672D01*
X41081Y984621D01*
X41106Y984472D01*
X41123Y984323D01*
X41139Y984274D01*
X41148Y984224D01*
X41202Y984083D01*
X41248Y983940D01*
X41273Y983895D01*
X41292Y983848D01*
X41412Y983650D01*
X41446Y983589D01*
X41455Y983579D01*
X41464Y983564D01*
X41710Y983225D01*
X42436Y981800D01*
X42879Y980439D01*
X25908Y980439D01*
X25890Y980437D01*
X25873Y980439D01*
X25690Y980418D01*
X25508Y980399D01*
X25491Y980394D01*
X25473Y980392D01*
X25298Y980335D01*
X25123Y980281D01*
X25107Y980273D01*
X25090Y980267D01*
X24930Y980177D01*
X24769Y980089D01*
X24755Y980078D01*
X24739Y980069D01*
X24600Y979949D01*
X24459Y979832D01*
X24448Y979818D01*
X24435Y979806D01*
X24322Y979661D01*
X24207Y979518D01*
X24199Y979502D01*
X24188Y979488D01*
X24106Y979323D01*
X24066Y979247D01*
X23914Y979161D01*
X23752Y979073D01*
X23739Y979062D01*
X23723Y979053D01*
X23584Y978933D01*
X23443Y978815D01*
X23432Y978802D01*
X23418Y978790D01*
X23306Y978645D01*
X23191Y978502D01*
X23183Y978486D01*
X23172Y978472D01*
X23090Y978307D01*
X23005Y978144D01*
X23000Y978127D01*
X22992Y978111D01*
X22944Y977933D01*
X22894Y977758D01*
X22892Y977740D01*
X22888Y977723D01*
X22861Y977392D01*
X22861Y967739D01*
X16980Y967739D01*
X15401Y967989D01*
X13880Y968484D01*
X13114Y968874D01*
X13027Y968908D01*
X12945Y968951D01*
X12840Y968981D01*
X12739Y969020D01*
X12647Y969036D01*
X12558Y969062D01*
X12449Y969071D01*
X12343Y969090D01*
X12249Y969087D01*
X12156Y969095D01*
X12049Y969082D01*
X11940Y969079D01*
X11849Y969059D01*
X11757Y969048D01*
X11653Y969014D01*
X11547Y968990D01*
X11462Y968952D01*
X11374Y968923D01*
X11279Y968870D01*
X11180Y968825D01*
X11104Y968771D01*
X11023Y968725D01*
X10941Y968654D01*
X10853Y968591D01*
X10789Y968523D01*
X10718Y968462D01*
X10652Y968376D01*
X10578Y968297D01*
X10529Y968217D01*
X10472Y968144D01*
X10423Y968047D01*
X10366Y967954D01*
X10334Y967867D01*
X10292Y967783D01*
X10264Y967678D01*
X10227Y967577D01*
X10212Y967485D01*
X10188Y967395D01*
X10177Y967261D01*
X10164Y967179D01*
X10166Y967129D01*
X10161Y967064D01*
X10161Y962832D01*
X10162Y962819D01*
X10161Y962805D01*
X10182Y962619D01*
X10201Y962431D01*
X10205Y962419D01*
X10206Y962405D01*
X10264Y962226D01*
X10319Y962046D01*
X10325Y962035D01*
X10329Y962022D01*
X10421Y961857D01*
X10511Y961692D01*
X10519Y961682D01*
X10526Y961670D01*
X10648Y961528D01*
X10768Y961383D01*
X10779Y961375D01*
X10787Y961365D01*
X10935Y961249D01*
X11082Y961131D01*
X11094Y961125D01*
X11104Y961116D01*
X11273Y961032D01*
X11439Y960945D01*
X11452Y960942D01*
X11464Y960936D01*
X11645Y960886D01*
X11826Y960834D01*
X11840Y960833D01*
X11853Y960829D01*
X12041Y960816D01*
X12228Y960801D01*
X12241Y960803D01*
X12254Y960802D01*
X12442Y960826D01*
X12627Y960848D01*
X12640Y960852D01*
X12653Y960854D01*
X12969Y960955D01*
X15860Y962153D01*
X34940Y962153D01*
X38488Y960683D01*
X41203Y957968D01*
X42673Y954420D01*
X42673Y950580D01*
X41203Y947032D01*
X38488Y944317D01*
X34940Y942847D01*
X15860Y942847D01*
X12969Y944045D01*
X12956Y944049D01*
X12945Y944055D01*
X12765Y944106D01*
X12584Y944161D01*
X12571Y944162D01*
X12558Y944166D01*
X12370Y944181D01*
X12183Y944199D01*
X12170Y944198D01*
X12156Y944199D01*
X11970Y944177D01*
X11783Y944158D01*
X11770Y944154D01*
X11757Y944152D01*
X11578Y944094D01*
X11398Y944038D01*
X11387Y944031D01*
X11374Y944027D01*
X11209Y943934D01*
X11045Y943844D01*
X11035Y943836D01*
X11023Y943829D01*
X10881Y943706D01*
X10737Y943585D01*
X10729Y943575D01*
X10718Y943566D01*
X10603Y943418D01*
X10486Y943270D01*
X10480Y943259D01*
X10472Y943248D01*
X10388Y943079D01*
X10302Y942912D01*
X10298Y942900D01*
X10292Y942887D01*
X10243Y942705D01*
X10192Y942525D01*
X10191Y942512D01*
X10188Y942499D01*
X10161Y942168D01*
X10161Y937432D01*
X10162Y937419D01*
X10161Y937405D01*
X10182Y937219D01*
X10201Y937031D01*
X10205Y937019D01*
X10206Y937005D01*
X10264Y936826D01*
X10319Y936646D01*
X10325Y936635D01*
X10329Y936622D01*
X10421Y936457D01*
X10511Y936292D01*
X10519Y936282D01*
X10526Y936270D01*
X10648Y936128D01*
X10768Y935983D01*
X10779Y935975D01*
X10787Y935965D01*
X10935Y935849D01*
X11082Y935731D01*
X11094Y935725D01*
X11104Y935716D01*
X11273Y935632D01*
X11439Y935545D01*
X11452Y935542D01*
X11464Y935536D01*
X11645Y935486D01*
X11826Y935434D01*
X11840Y935433D01*
X11853Y935429D01*
X12041Y935416D01*
X12228Y935401D01*
X12241Y935403D01*
X12254Y935402D01*
X12442Y935426D01*
X12627Y935448D01*
X12640Y935452D01*
X12653Y935454D01*
X12969Y935555D01*
X15860Y936753D01*
X34940Y936753D01*
X38488Y935283D01*
X41203Y932568D01*
X41265Y932419D01*
X41275Y932399D01*
X41282Y932378D01*
X41371Y932221D01*
X41455Y932064D01*
X41469Y932047D01*
X41480Y932027D01*
X41597Y931892D01*
X41712Y931753D01*
X41729Y931739D01*
X41743Y931722D01*
X41885Y931613D01*
X42024Y931500D01*
X42044Y931489D01*
X42062Y931476D01*
X42222Y931396D01*
X42381Y931313D01*
X42402Y931306D01*
X42422Y931296D01*
X42595Y931250D01*
X42767Y931200D01*
X42789Y931198D01*
X42811Y931192D01*
X43142Y931165D01*
X55950Y931165D01*
X55977Y931167D01*
X56005Y931165D01*
X56034Y931169D01*
X57154Y931165D01*
X57158Y931165D01*
X57162Y931165D01*
X57967Y931165D01*
X58711Y930853D01*
X58715Y930852D01*
X58718Y930850D01*
X59460Y930543D01*
X60030Y929968D01*
X60033Y929966D01*
X60036Y929962D01*
X60845Y929153D01*
X60881Y929111D01*
X77297Y912565D01*
X77321Y912546D01*
X77341Y912522D01*
X77476Y912418D01*
X77608Y912309D01*
X77635Y912294D01*
X77659Y912276D01*
X77812Y912200D01*
X77963Y912119D01*
X77992Y912110D01*
X78020Y912096D01*
X78185Y912052D01*
X78348Y912003D01*
X78379Y912000D01*
X78408Y911992D01*
X78739Y911965D01*
X134004Y911965D01*
X134022Y911967D01*
X134040Y911965D01*
X134222Y911986D01*
X134405Y912005D01*
X134422Y912010D01*
X134439Y912012D01*
X134614Y912069D01*
X134790Y912123D01*
X134805Y912131D01*
X134822Y912137D01*
X134982Y912227D01*
X135144Y912315D01*
X135157Y912326D01*
X135173Y912335D01*
X135312Y912455D01*
X135453Y912572D01*
X135464Y912586D01*
X135478Y912598D01*
X135590Y912743D01*
X135705Y912886D01*
X135713Y912902D01*
X135724Y912916D01*
X135806Y913081D01*
X135891Y913243D01*
X135896Y913260D01*
X135904Y913276D01*
X135951Y913455D01*
X136002Y913630D01*
X136004Y913648D01*
X136008Y913665D01*
X136035Y913996D01*
X136035Y917124D01*
X137226Y918315D01*
X155674Y918315D01*
X156865Y917124D01*
X156865Y898676D01*
X155674Y897485D01*
X137226Y897485D01*
X136035Y898676D01*
X136035Y901804D01*
X136033Y901822D01*
X136035Y901840D01*
X136014Y902022D01*
X135995Y902205D01*
X135990Y902222D01*
X135988Y902239D01*
X135931Y902414D01*
X135877Y902590D01*
X135869Y902605D01*
X135863Y902622D01*
X135773Y902782D01*
X135685Y902944D01*
X135674Y902957D01*
X135665Y902973D01*
X135545Y903112D01*
X135428Y903253D01*
X135414Y903264D01*
X135402Y903278D01*
X135257Y903390D01*
X135114Y903505D01*
X135098Y903513D01*
X135084Y903524D01*
X134919Y903606D01*
X134757Y903691D01*
X134740Y903696D01*
X134724Y903704D01*
X134545Y903751D01*
X134370Y903802D01*
X134352Y903804D01*
X134335Y903808D01*
X134004Y903835D01*
X77400Y903835D01*
X77373Y903833D01*
X77345Y903835D01*
X77316Y903831D01*
X76196Y903835D01*
X76193Y903835D01*
X76188Y903835D01*
X75383Y903835D01*
X74639Y904147D01*
X74636Y904148D01*
X74632Y904150D01*
X73890Y904457D01*
X73320Y905032D01*
X73317Y905034D01*
X73314Y905038D01*
X72505Y905847D01*
X72469Y905889D01*
X56053Y922435D01*
X56029Y922454D01*
X56009Y922478D01*
X55874Y922582D01*
X55742Y922691D01*
X55715Y922706D01*
X55691Y922724D01*
X55538Y922800D01*
X55387Y922881D01*
X55358Y922890D01*
X55330Y922904D01*
X55165Y922948D01*
X55002Y922997D01*
X54971Y923000D01*
X54942Y923008D01*
X54611Y923035D01*
X43142Y923035D01*
X43119Y923033D01*
X43097Y923035D01*
X42920Y923013D01*
X42741Y922995D01*
X42720Y922989D01*
X42697Y922986D01*
X42528Y922930D01*
X42356Y922877D01*
X42336Y922867D01*
X42315Y922860D01*
X42160Y922771D01*
X42002Y922685D01*
X41985Y922671D01*
X41966Y922660D01*
X41831Y922543D01*
X41693Y922428D01*
X41679Y922410D01*
X41662Y922396D01*
X41553Y922254D01*
X41440Y922114D01*
X41430Y922094D01*
X41417Y922076D01*
X41265Y921781D01*
X41203Y921632D01*
X38488Y918917D01*
X34940Y917447D01*
X15860Y917447D01*
X12969Y918645D01*
X12956Y918649D01*
X12945Y918655D01*
X12765Y918706D01*
X12584Y918761D01*
X12571Y918762D01*
X12558Y918766D01*
X12370Y918781D01*
X12183Y918799D01*
X12170Y918798D01*
X12156Y918799D01*
X11970Y918777D01*
X11783Y918758D01*
X11770Y918754D01*
X11757Y918752D01*
X11578Y918694D01*
X11398Y918638D01*
X11387Y918631D01*
X11374Y918627D01*
X11209Y918534D01*
X11045Y918444D01*
X11035Y918436D01*
X11023Y918429D01*
X10881Y918306D01*
X10737Y918185D01*
X10729Y918175D01*
X10718Y918166D01*
X10603Y918018D01*
X10486Y917870D01*
X10480Y917859D01*
X10472Y917848D01*
X10388Y917679D01*
X10302Y917512D01*
X10298Y917500D01*
X10292Y917487D01*
X10243Y917305D01*
X10192Y917125D01*
X10191Y917112D01*
X10188Y917099D01*
X10161Y916768D01*
X10161Y912032D01*
X10162Y912019D01*
X10161Y912005D01*
X10161Y912003D01*
X10161Y912000D01*
X10173Y911897D01*
X10182Y911819D01*
X10201Y911631D01*
X10205Y911619D01*
X10206Y911605D01*
X10264Y911426D01*
X10319Y911246D01*
X10325Y911235D01*
X10329Y911222D01*
X10421Y911057D01*
X10511Y910892D01*
X10519Y910882D01*
X10526Y910870D01*
X10648Y910728D01*
X10768Y910583D01*
X10779Y910575D01*
X10787Y910565D01*
X10935Y910449D01*
X11082Y910331D01*
X11094Y910325D01*
X11104Y910316D01*
X11273Y910232D01*
X11439Y910145D01*
X11452Y910142D01*
X11464Y910136D01*
X11645Y910086D01*
X11826Y910034D01*
X11840Y910033D01*
X11853Y910029D01*
X12041Y910016D01*
X12228Y910001D01*
X12241Y910003D01*
X12254Y910002D01*
X12442Y910026D01*
X12569Y910041D01*
X12602Y910044D01*
X12605Y910045D01*
X12627Y910048D01*
X12640Y910052D01*
X12653Y910054D01*
X12969Y910155D01*
X15860Y911353D01*
X34940Y911353D01*
X38488Y909883D01*
X41203Y907168D01*
X42673Y903620D01*
X42673Y899780D01*
X41203Y896232D01*
X38488Y893517D01*
X34940Y892047D01*
X15860Y892047D01*
X12969Y893245D01*
X12956Y893249D01*
X12945Y893255D01*
X12765Y893306D01*
X12584Y893361D01*
X12571Y893362D01*
X12558Y893366D01*
X12370Y893381D01*
X12183Y893399D01*
X12170Y893398D01*
X12156Y893399D01*
X11970Y893377D01*
X11783Y893358D01*
X11770Y893354D01*
X11757Y893352D01*
X11578Y893294D01*
X11398Y893238D01*
X11387Y893231D01*
X11374Y893227D01*
X11209Y893134D01*
X11045Y893044D01*
X11035Y893036D01*
X11023Y893029D01*
X10881Y892906D01*
X10737Y892785D01*
X10729Y892775D01*
X10718Y892766D01*
X10603Y892618D01*
X10486Y892470D01*
X10480Y892459D01*
X10472Y892448D01*
X10388Y892279D01*
X10302Y892112D01*
X10298Y892100D01*
X10292Y892087D01*
X10243Y891905D01*
X10192Y891725D01*
X10191Y891712D01*
X10188Y891699D01*
X10161Y891368D01*
X10161Y886632D01*
X10162Y886619D01*
X10161Y886605D01*
X10182Y886419D01*
X10201Y886231D01*
X10205Y886219D01*
X10206Y886205D01*
X10264Y886026D01*
X10319Y885846D01*
X10325Y885835D01*
X10329Y885822D01*
X10421Y885657D01*
X10511Y885492D01*
X10519Y885482D01*
X10526Y885470D01*
X10648Y885328D01*
X10768Y885183D01*
X10779Y885175D01*
X10787Y885165D01*
X10935Y885049D01*
X11082Y884931D01*
X11094Y884925D01*
X11104Y884916D01*
X11273Y884832D01*
X11439Y884745D01*
X11452Y884742D01*
X11464Y884736D01*
X11645Y884686D01*
X11826Y884634D01*
X11840Y884633D01*
X11853Y884629D01*
X12041Y884616D01*
X12228Y884601D01*
X12241Y884603D01*
X12254Y884602D01*
X12442Y884626D01*
X12627Y884648D01*
X12640Y884652D01*
X12653Y884654D01*
X12969Y884755D01*
X15860Y885953D01*
X34940Y885953D01*
X38488Y884483D01*
X41203Y881768D01*
X41265Y881619D01*
X41275Y881599D01*
X41282Y881578D01*
X41371Y881422D01*
X41455Y881264D01*
X41469Y881247D01*
X41480Y881227D01*
X41597Y881092D01*
X41712Y880953D01*
X41729Y880939D01*
X41743Y880922D01*
X41885Y880813D01*
X42024Y880700D01*
X42044Y880689D01*
X42062Y880676D01*
X42222Y880596D01*
X42381Y880513D01*
X42402Y880506D01*
X42422Y880496D01*
X42595Y880450D01*
X42767Y880400D01*
X42789Y880398D01*
X42811Y880392D01*
X43142Y880365D01*
X51609Y880365D01*
X53102Y879746D01*
X140789Y792060D01*
X140809Y792043D01*
X140827Y792022D01*
X140965Y791915D01*
X141100Y791805D01*
X141124Y791792D01*
X141145Y791776D01*
X141302Y791698D01*
X141456Y791616D01*
X141481Y791608D01*
X141506Y791596D01*
X141675Y791551D01*
X141842Y791501D01*
X141868Y791499D01*
X141894Y791492D01*
X142225Y791465D01*
X184959Y791465D01*
X186452Y790846D01*
X200296Y777002D01*
X200915Y775509D01*
X200915Y757928D01*
X200916Y757919D01*
X200915Y757911D01*
X200936Y757719D01*
X200955Y757528D01*
X200957Y757519D01*
X200958Y757510D01*
X201016Y757328D01*
X201073Y757143D01*
X201077Y757135D01*
X201080Y757126D01*
X201173Y756958D01*
X201265Y756789D01*
X201270Y756782D01*
X201275Y756774D01*
X201400Y756626D01*
X201522Y756479D01*
X201529Y756474D01*
X201535Y756467D01*
X201687Y756347D01*
X201836Y756227D01*
X201844Y756223D01*
X201851Y756217D01*
X202023Y756130D01*
X202193Y756042D01*
X202202Y756039D01*
X202210Y756035D01*
X202396Y755983D01*
X202580Y755930D01*
X202589Y755930D01*
X202598Y755927D01*
X202790Y755913D01*
X202982Y755897D01*
X202990Y755898D01*
X202999Y755898D01*
X203192Y755922D01*
X203381Y755944D01*
X203390Y755947D01*
X203399Y755948D01*
X203582Y756010D01*
X203764Y756069D01*
X203772Y756074D01*
X203780Y756076D01*
X203946Y756172D01*
X204115Y756267D01*
X204122Y756273D01*
X204129Y756277D01*
X204382Y756492D01*
X205278Y757388D01*
X238122Y757388D01*
X239313Y756197D01*
X239313Y723353D01*
X238122Y722162D01*
X205278Y722162D01*
X204382Y723058D01*
X204375Y723064D01*
X204370Y723071D01*
X204219Y723192D01*
X204071Y723313D01*
X204063Y723317D01*
X204056Y723323D01*
X203886Y723411D01*
X203715Y723502D01*
X203706Y723504D01*
X203699Y723508D01*
X203514Y723561D01*
X203329Y723616D01*
X203320Y723617D01*
X203312Y723620D01*
X203121Y723635D01*
X202928Y723653D01*
X202919Y723652D01*
X202910Y723653D01*
X202721Y723630D01*
X202528Y723609D01*
X202519Y723607D01*
X202511Y723606D01*
X202329Y723546D01*
X202144Y723488D01*
X202136Y723484D01*
X202128Y723481D01*
X201961Y723387D01*
X201792Y723293D01*
X201785Y723287D01*
X201777Y723283D01*
X201632Y723158D01*
X201485Y723033D01*
X201479Y723026D01*
X201472Y723020D01*
X201356Y722869D01*
X201235Y722717D01*
X201231Y722709D01*
X201226Y722702D01*
X201141Y722531D01*
X201053Y722358D01*
X201050Y722349D01*
X201046Y722341D01*
X200997Y722156D01*
X200945Y721970D01*
X200944Y721961D01*
X200942Y721952D01*
X200915Y721622D01*
X200915Y481791D01*
X200296Y480298D01*
X182460Y462461D01*
X182443Y462441D01*
X182422Y462423D01*
X182315Y462285D01*
X182205Y462150D01*
X182192Y462126D01*
X182176Y462105D01*
X182098Y461948D01*
X182016Y461794D01*
X182008Y461769D01*
X181996Y461744D01*
X181951Y461575D01*
X181901Y461408D01*
X181899Y461382D01*
X181892Y461356D01*
X181865Y461025D01*
X181865Y449505D01*
X181867Y449479D01*
X181865Y449452D01*
X181887Y449278D01*
X181905Y449105D01*
X181912Y449079D01*
X181916Y449052D01*
X181972Y448887D01*
X182023Y448720D01*
X182036Y448696D01*
X182044Y448671D01*
X182131Y448519D01*
X182215Y448366D01*
X182232Y448345D01*
X182245Y448322D01*
X182460Y448069D01*
X188215Y442314D01*
X188215Y433686D01*
X182114Y427585D01*
X173486Y427585D01*
X167190Y433881D01*
X167183Y433887D01*
X167178Y433894D01*
X167028Y434014D01*
X166879Y434136D01*
X166871Y434140D01*
X166864Y434146D01*
X166694Y434234D01*
X166523Y434325D01*
X166514Y434327D01*
X166507Y434331D01*
X166322Y434385D01*
X166137Y434440D01*
X166128Y434440D01*
X166120Y434443D01*
X165928Y434458D01*
X165736Y434476D01*
X165727Y434475D01*
X165718Y434476D01*
X165529Y434454D01*
X165336Y434433D01*
X165327Y434430D01*
X165319Y434429D01*
X165137Y434369D01*
X164952Y434311D01*
X164944Y434307D01*
X164936Y434304D01*
X164767Y434209D01*
X164600Y434116D01*
X164593Y434110D01*
X164585Y434106D01*
X164439Y433980D01*
X164293Y433856D01*
X164287Y433849D01*
X164280Y433843D01*
X164163Y433691D01*
X164043Y433540D01*
X164039Y433532D01*
X164034Y433525D01*
X163948Y433353D01*
X163861Y433181D01*
X163858Y433172D01*
X163854Y433164D01*
X163804Y432978D01*
X163753Y432793D01*
X163752Y432784D01*
X163750Y432775D01*
X163723Y432445D01*
X163723Y429283D01*
X163550Y428637D01*
X163215Y428058D01*
X162742Y427585D01*
X162163Y427250D01*
X161517Y427077D01*
X155549Y427077D01*
X155549Y437282D01*
X155547Y437300D01*
X155549Y437317D01*
X155528Y437500D01*
X155509Y437682D01*
X155504Y437699D01*
X155502Y437717D01*
X155445Y437892D01*
X155414Y437992D01*
X155418Y437999D01*
X155465Y438177D01*
X155516Y438352D01*
X155518Y438370D01*
X155522Y438387D01*
X155549Y438718D01*
X155549Y448923D01*
X161517Y448923D01*
X162163Y448750D01*
X162742Y448415D01*
X163215Y447942D01*
X163550Y447363D01*
X163723Y446717D01*
X163723Y443555D01*
X163724Y443546D01*
X163723Y443537D01*
X163744Y443344D01*
X163763Y443155D01*
X163765Y443146D01*
X163766Y443137D01*
X163825Y442953D01*
X163881Y442770D01*
X163885Y442762D01*
X163888Y442753D01*
X163981Y442585D01*
X164073Y442416D01*
X164078Y442409D01*
X164083Y442401D01*
X164207Y442254D01*
X164330Y442106D01*
X164337Y442101D01*
X164343Y442094D01*
X164495Y441974D01*
X164644Y441854D01*
X164652Y441850D01*
X164659Y441844D01*
X164832Y441757D01*
X165001Y441669D01*
X165010Y441666D01*
X165018Y441662D01*
X165204Y441610D01*
X165388Y441557D01*
X165397Y441556D01*
X165406Y441554D01*
X165599Y441540D01*
X165790Y441524D01*
X165798Y441525D01*
X165807Y441525D01*
X166000Y441549D01*
X166189Y441571D01*
X166198Y441574D01*
X166207Y441575D01*
X166389Y441636D01*
X166572Y441696D01*
X166580Y441700D01*
X166588Y441703D01*
X166755Y441799D01*
X166923Y441894D01*
X166930Y441900D01*
X166937Y441904D01*
X167190Y442119D01*
X173140Y448069D01*
X173157Y448090D01*
X173178Y448107D01*
X173285Y448245D01*
X173395Y448380D01*
X173408Y448404D01*
X173424Y448425D01*
X173502Y448582D01*
X173584Y448736D01*
X173592Y448762D01*
X173604Y448786D01*
X173649Y448955D01*
X173699Y449122D01*
X173701Y449149D01*
X173708Y449175D01*
X173735Y449505D01*
X173735Y464359D01*
X174354Y465852D01*
X192190Y483689D01*
X192207Y483709D01*
X192228Y483727D01*
X192335Y483865D01*
X192445Y484000D01*
X192458Y484024D01*
X192474Y484045D01*
X192552Y484202D01*
X192634Y484356D01*
X192642Y484381D01*
X192654Y484406D01*
X192699Y484575D01*
X192749Y484742D01*
X192751Y484768D01*
X192758Y484794D01*
X192785Y485125D01*
X192785Y746449D01*
X192784Y746458D01*
X192785Y746467D01*
X192764Y746658D01*
X192745Y746849D01*
X192743Y746858D01*
X192742Y746867D01*
X192684Y747049D01*
X192627Y747234D01*
X192623Y747242D01*
X192620Y747251D01*
X192527Y747419D01*
X192435Y747588D01*
X192430Y747595D01*
X192425Y747603D01*
X192300Y747751D01*
X192178Y747898D01*
X192171Y747903D01*
X192165Y747910D01*
X192013Y748030D01*
X191864Y748150D01*
X191856Y748154D01*
X191849Y748160D01*
X191677Y748247D01*
X191507Y748335D01*
X191498Y748338D01*
X191490Y748342D01*
X191304Y748394D01*
X191120Y748447D01*
X191111Y748448D01*
X191102Y748450D01*
X190910Y748464D01*
X190718Y748480D01*
X190710Y748479D01*
X190701Y748479D01*
X190508Y748455D01*
X190319Y748433D01*
X190310Y748430D01*
X190301Y748429D01*
X190118Y748368D01*
X189936Y748308D01*
X189928Y748304D01*
X189920Y748301D01*
X189754Y748205D01*
X189585Y748110D01*
X189578Y748104D01*
X189571Y748100D01*
X189318Y747885D01*
X187938Y746505D01*
X186181Y746505D01*
X186181Y755650D01*
X186181Y764795D01*
X187938Y764795D01*
X189318Y763415D01*
X189325Y763409D01*
X189330Y763402D01*
X189480Y763282D01*
X189629Y763160D01*
X189637Y763156D01*
X189644Y763150D01*
X189814Y763062D01*
X189985Y762971D01*
X189994Y762969D01*
X190001Y762965D01*
X190186Y762911D01*
X190371Y762856D01*
X190380Y762856D01*
X190388Y762853D01*
X190579Y762837D01*
X190772Y762820D01*
X190781Y762821D01*
X190790Y762820D01*
X190979Y762842D01*
X191172Y762863D01*
X191181Y762866D01*
X191189Y762867D01*
X191371Y762927D01*
X191556Y762985D01*
X191564Y762989D01*
X191572Y762992D01*
X191739Y763086D01*
X191908Y763180D01*
X191915Y763186D01*
X191923Y763190D01*
X192068Y763315D01*
X192215Y763440D01*
X192221Y763447D01*
X192228Y763453D01*
X192344Y763604D01*
X192465Y763756D01*
X192469Y763764D01*
X192474Y763771D01*
X192560Y763943D01*
X192647Y764115D01*
X192650Y764124D01*
X192654Y764132D01*
X192704Y764318D01*
X192755Y764503D01*
X192756Y764512D01*
X192758Y764520D01*
X192785Y764851D01*
X192785Y772175D01*
X192783Y772202D01*
X192785Y772228D01*
X192763Y772402D01*
X192745Y772576D01*
X192738Y772601D01*
X192734Y772628D01*
X192679Y772793D01*
X192627Y772960D01*
X192614Y772984D01*
X192606Y773009D01*
X192519Y773161D01*
X192435Y773315D01*
X192418Y773335D01*
X192405Y773358D01*
X192190Y773611D01*
X183061Y782740D01*
X183041Y782757D01*
X183023Y782778D01*
X182885Y782885D01*
X182750Y782995D01*
X182726Y783008D01*
X182705Y783024D01*
X182548Y783102D01*
X182394Y783184D01*
X182369Y783192D01*
X182344Y783204D01*
X182175Y783249D01*
X182008Y783299D01*
X181982Y783301D01*
X181956Y783308D01*
X181625Y783335D01*
X138891Y783335D01*
X137398Y783954D01*
X49711Y871640D01*
X49691Y871657D01*
X49673Y871678D01*
X49535Y871785D01*
X49400Y871895D01*
X49376Y871908D01*
X49355Y871924D01*
X49198Y872002D01*
X49044Y872084D01*
X49019Y872092D01*
X48994Y872104D01*
X48825Y872149D01*
X48658Y872199D01*
X48632Y872201D01*
X48606Y872208D01*
X48275Y872235D01*
X43142Y872235D01*
X43119Y872233D01*
X43097Y872235D01*
X42920Y872213D01*
X42741Y872195D01*
X42720Y872189D01*
X42697Y872186D01*
X42528Y872130D01*
X42356Y872077D01*
X42336Y872067D01*
X42315Y872060D01*
X42160Y871971D01*
X42002Y871885D01*
X41985Y871871D01*
X41966Y871860D01*
X41831Y871743D01*
X41693Y871628D01*
X41679Y871610D01*
X41662Y871596D01*
X41553Y871454D01*
X41440Y871314D01*
X41430Y871294D01*
X41417Y871276D01*
X41265Y870981D01*
X41203Y870832D01*
X38488Y868117D01*
X34940Y866647D01*
X15860Y866647D01*
X12969Y867845D01*
X12956Y867849D01*
X12945Y867855D01*
X12765Y867906D01*
X12584Y867961D01*
X12571Y867962D01*
X12558Y867966D01*
X12370Y867981D01*
X12183Y867999D01*
X12170Y867998D01*
X12156Y867999D01*
X11970Y867977D01*
X11783Y867958D01*
X11770Y867954D01*
X11757Y867952D01*
X11578Y867894D01*
X11398Y867838D01*
X11387Y867831D01*
X11374Y867827D01*
X11209Y867734D01*
X11045Y867644D01*
X11035Y867636D01*
X11023Y867629D01*
X10881Y867506D01*
X10737Y867385D01*
X10729Y867375D01*
X10718Y867366D01*
X10602Y867217D01*
X10486Y867070D01*
X10480Y867059D01*
X10472Y867048D01*
X10388Y866879D01*
X10302Y866712D01*
X10298Y866700D01*
X10292Y866687D01*
X10243Y866505D01*
X10192Y866325D01*
X10191Y866312D01*
X10188Y866299D01*
X10161Y865968D01*
X10161Y861232D01*
X10161Y861224D01*
X10161Y861219D01*
X10162Y861214D01*
X10161Y861205D01*
X10182Y861019D01*
X10201Y860831D01*
X10205Y860819D01*
X10206Y860805D01*
X10264Y860626D01*
X10319Y860446D01*
X10325Y860435D01*
X10329Y860422D01*
X10421Y860257D01*
X10511Y860092D01*
X10519Y860082D01*
X10526Y860070D01*
X10648Y859928D01*
X10768Y859783D01*
X10779Y859775D01*
X10787Y859765D01*
X10935Y859649D01*
X11082Y859531D01*
X11094Y859525D01*
X11104Y859516D01*
X11273Y859432D01*
X11439Y859345D01*
X11452Y859342D01*
X11464Y859336D01*
X11645Y859286D01*
X11826Y859234D01*
X11840Y859233D01*
X11853Y859229D01*
X12041Y859216D01*
X12228Y859201D01*
X12241Y859203D01*
X12254Y859202D01*
X12442Y859226D01*
X12627Y859248D01*
X12640Y859252D01*
X12653Y859254D01*
X12969Y859355D01*
X15860Y860553D01*
X34940Y860553D01*
X38488Y859083D01*
X41203Y856368D01*
X42673Y852820D01*
X42673Y848980D01*
X41203Y845432D01*
X38488Y842717D01*
X34940Y841247D01*
X15860Y841247D01*
X12969Y842445D01*
X12956Y842449D01*
X12945Y842455D01*
X12765Y842506D01*
X12584Y842561D01*
X12571Y842562D01*
X12558Y842566D01*
X12370Y842581D01*
X12183Y842599D01*
X12170Y842598D01*
X12156Y842599D01*
X11970Y842577D01*
X11783Y842558D01*
X11770Y842554D01*
X11757Y842552D01*
X11578Y842494D01*
X11398Y842438D01*
X11387Y842431D01*
X11374Y842427D01*
X11209Y842334D01*
X11045Y842244D01*
X11035Y842236D01*
X11023Y842229D01*
X10881Y842106D01*
X10737Y841985D01*
X10729Y841975D01*
X10718Y841966D01*
X10603Y841818D01*
X10486Y841670D01*
X10480Y841659D01*
X10472Y841648D01*
X10388Y841479D01*
X10302Y841312D01*
X10298Y841300D01*
X10292Y841287D01*
X10243Y841105D01*
X10192Y840925D01*
X10191Y840912D01*
X10188Y840899D01*
X10161Y840568D01*
X10161Y209274D01*
X10162Y209265D01*
X10161Y209256D01*
X10182Y209064D01*
X10201Y208873D01*
X10203Y208864D01*
X10204Y208855D01*
X10262Y208673D01*
X10319Y208488D01*
X10323Y208480D01*
X10326Y208472D01*
X10419Y208303D01*
X10511Y208134D01*
X10516Y208127D01*
X10521Y208119D01*
X10646Y207971D01*
X10768Y207825D01*
X10775Y207819D01*
X10781Y207812D01*
X10933Y207692D01*
X11082Y207572D01*
X11090Y207568D01*
X11097Y207563D01*
X11269Y207475D01*
X11439Y207387D01*
X11448Y207384D01*
X11456Y207380D01*
X11642Y207329D01*
X11826Y207275D01*
X11835Y207275D01*
X11844Y207272D01*
X12036Y207258D01*
X12228Y207243D01*
X12236Y207244D01*
X12245Y207243D01*
X12438Y207267D01*
X12627Y207289D01*
X12636Y207292D01*
X12645Y207293D01*
X12828Y207355D01*
X13010Y207414D01*
X13018Y207419D01*
X13026Y207422D01*
X13192Y207517D01*
X13361Y207612D01*
X13368Y207618D01*
X13375Y207623D01*
X13628Y207837D01*
X15021Y209230D01*
X17635Y210313D01*
X20465Y210313D01*
X23079Y209230D01*
X24449Y207860D01*
X24470Y207843D01*
X24487Y207822D01*
X24625Y207715D01*
X24761Y207605D01*
X24784Y207592D01*
X24806Y207576D01*
X24962Y207498D01*
X25116Y207416D01*
X25142Y207408D01*
X25166Y207396D01*
X25335Y207351D01*
X25502Y207301D01*
X25529Y207299D01*
X25555Y207292D01*
X25886Y207265D01*
X238659Y207265D01*
X238686Y207267D01*
X238712Y207265D01*
X238886Y207287D01*
X239060Y207305D01*
X239085Y207312D01*
X239112Y207316D01*
X239278Y207371D01*
X239445Y207423D01*
X239468Y207436D01*
X239494Y207444D01*
X239645Y207531D01*
X239799Y207615D01*
X239819Y207632D01*
X239842Y207645D01*
X240095Y207860D01*
X242990Y210755D01*
X243007Y210775D01*
X243028Y210793D01*
X243135Y210931D01*
X243245Y211066D01*
X243258Y211090D01*
X243274Y211111D01*
X243352Y211268D01*
X243434Y211422D01*
X243442Y211447D01*
X243454Y211471D01*
X243499Y211641D01*
X243549Y211808D01*
X243551Y211834D01*
X243558Y211860D01*
X243585Y212191D01*
X243585Y216709D01*
X244204Y218202D01*
X258048Y232046D01*
X259541Y232665D01*
X311959Y232665D01*
X313452Y232046D01*
X327296Y218202D01*
X327915Y216709D01*
X327915Y212191D01*
X327917Y212164D01*
X327915Y212137D01*
X327937Y211964D01*
X327955Y211790D01*
X327962Y211765D01*
X327966Y211738D01*
X328022Y211572D01*
X328073Y211405D01*
X328086Y211382D01*
X328094Y211356D01*
X328181Y211205D01*
X328265Y211051D01*
X328282Y211031D01*
X328295Y211007D01*
X328510Y210754D01*
X332487Y206777D01*
X332487Y199623D01*
X327427Y194563D01*
X320273Y194563D01*
X315213Y199623D01*
X315213Y206777D01*
X319190Y210754D01*
X319207Y210775D01*
X319228Y210793D01*
X319335Y210931D01*
X319445Y211066D01*
X319458Y211090D01*
X319474Y211111D01*
X319552Y211267D01*
X319634Y211422D01*
X319642Y211447D01*
X319654Y211471D01*
X319699Y211641D01*
X319749Y211808D01*
X319751Y211834D01*
X319758Y211860D01*
X319785Y212191D01*
X319785Y213375D01*
X319783Y213402D01*
X319785Y213428D01*
X319763Y213602D01*
X319745Y213776D01*
X319738Y213801D01*
X319734Y213828D01*
X319679Y213993D01*
X319627Y214160D01*
X319614Y214184D01*
X319606Y214209D01*
X319519Y214361D01*
X319435Y214515D01*
X319418Y214535D01*
X319405Y214558D01*
X319190Y214811D01*
X310061Y223940D01*
X310041Y223957D01*
X310023Y223978D01*
X309885Y224085D01*
X309750Y224195D01*
X309726Y224208D01*
X309705Y224224D01*
X309548Y224302D01*
X309394Y224384D01*
X309369Y224392D01*
X309344Y224404D01*
X309175Y224449D01*
X309008Y224499D01*
X308982Y224501D01*
X308956Y224508D01*
X308625Y224535D01*
X262875Y224535D01*
X262848Y224533D01*
X262822Y224535D01*
X262648Y224513D01*
X262474Y224495D01*
X262449Y224488D01*
X262422Y224484D01*
X262257Y224429D01*
X262090Y224377D01*
X262066Y224364D01*
X262041Y224356D01*
X261889Y224269D01*
X261735Y224185D01*
X261715Y224168D01*
X261692Y224155D01*
X261439Y223940D01*
X252310Y214811D01*
X252293Y214791D01*
X252272Y214773D01*
X252165Y214635D01*
X252055Y214500D01*
X252042Y214476D01*
X252026Y214455D01*
X251948Y214298D01*
X251866Y214144D01*
X251858Y214119D01*
X251846Y214094D01*
X251801Y213925D01*
X251751Y213758D01*
X251749Y213732D01*
X251742Y213706D01*
X251715Y213375D01*
X251715Y212191D01*
X251717Y212164D01*
X251715Y212138D01*
X251737Y211964D01*
X251755Y211790D01*
X251762Y211765D01*
X251766Y211738D01*
X251821Y211572D01*
X251873Y211405D01*
X251886Y211382D01*
X251894Y211356D01*
X251981Y211205D01*
X252065Y211051D01*
X252082Y211031D01*
X252095Y211008D01*
X252310Y210755D01*
X256287Y206777D01*
X256287Y199623D01*
X251227Y194563D01*
X244073Y194563D01*
X240095Y198540D01*
X240075Y198557D01*
X240057Y198578D01*
X239919Y198685D01*
X239784Y198795D01*
X239760Y198808D01*
X239739Y198824D01*
X239582Y198902D01*
X239428Y198984D01*
X239403Y198992D01*
X239379Y199004D01*
X239209Y199049D01*
X239042Y199099D01*
X239016Y199101D01*
X238990Y199108D01*
X238659Y199135D01*
X25886Y199135D01*
X25859Y199133D01*
X25832Y199135D01*
X25658Y199113D01*
X25485Y199095D01*
X25459Y199088D01*
X25433Y199084D01*
X25267Y199029D01*
X25100Y198977D01*
X25076Y198964D01*
X25051Y198956D01*
X24899Y198869D01*
X24746Y198785D01*
X24726Y198768D01*
X24702Y198755D01*
X24449Y198540D01*
X23079Y197170D01*
X22373Y196878D01*
X20465Y196087D01*
X17635Y196087D01*
X15021Y197170D01*
X13628Y198563D01*
X13621Y198568D01*
X13616Y198575D01*
X13466Y198696D01*
X13317Y198818D01*
X13309Y198822D01*
X13302Y198828D01*
X13132Y198916D01*
X12961Y199006D01*
X12952Y199009D01*
X12945Y199013D01*
X12760Y199066D01*
X12575Y199121D01*
X12566Y199122D01*
X12558Y199125D01*
X12367Y199140D01*
X12174Y199158D01*
X12165Y199157D01*
X12156Y199157D01*
X11967Y199135D01*
X11774Y199114D01*
X11765Y199112D01*
X11757Y199111D01*
X11575Y199051D01*
X11390Y198993D01*
X11382Y198988D01*
X11374Y198986D01*
X11207Y198891D01*
X11038Y198798D01*
X11031Y198792D01*
X11023Y198788D01*
X10878Y198663D01*
X10731Y198537D01*
X10725Y198530D01*
X10718Y198525D01*
X10602Y198374D01*
X10481Y198222D01*
X10477Y198213D01*
X10472Y198207D01*
X10386Y198035D01*
X10299Y197863D01*
X10296Y197854D01*
X10292Y197846D01*
X10242Y197660D01*
X10191Y197475D01*
X10190Y197466D01*
X10188Y197457D01*
X10161Y197126D01*
X10161Y12192D01*
X10163Y12174D01*
X10161Y12156D01*
X10182Y11974D01*
X10201Y11791D01*
X10206Y11774D01*
X10208Y11757D01*
X10265Y11582D01*
X10319Y11406D01*
X10327Y11391D01*
X10333Y11374D01*
X10423Y11214D01*
X10511Y11052D01*
X10522Y11039D01*
X10531Y11023D01*
X10651Y10884D01*
X10768Y10743D01*
X10782Y10732D01*
X10794Y10718D01*
X10939Y10606D01*
X11082Y10491D01*
X11098Y10483D01*
X11112Y10472D01*
X11277Y10390D01*
X11439Y10305D01*
X11456Y10300D01*
X11472Y10292D01*
X11651Y10245D01*
X11826Y10194D01*
X11844Y10192D01*
X11861Y10188D01*
X12192Y10161D01*
X127146Y10161D01*
X127164Y10163D01*
G37*
%LPC*%
G36*
X161180Y223202D02*
X161180Y223202D01*
X155461Y225570D01*
X151085Y229947D01*
X148585Y235981D01*
X148575Y236001D01*
X148568Y236022D01*
X148479Y236179D01*
X148395Y236336D01*
X148381Y236353D01*
X148370Y236373D01*
X148253Y236509D01*
X148139Y236647D01*
X148121Y236661D01*
X148107Y236678D01*
X147966Y236787D01*
X147826Y236900D01*
X147806Y236911D01*
X147789Y236924D01*
X147628Y237004D01*
X147470Y237087D01*
X147448Y237094D01*
X147428Y237104D01*
X147254Y237150D01*
X147083Y237200D01*
X147061Y237202D01*
X147039Y237208D01*
X146709Y237235D01*
X132541Y237235D01*
X131048Y237854D01*
X104504Y264398D01*
X103885Y265891D01*
X103885Y553259D01*
X104504Y554752D01*
X105933Y556181D01*
X105933Y556182D01*
X128690Y578939D01*
X128707Y578959D01*
X128728Y578977D01*
X128835Y579115D01*
X128945Y579250D01*
X128958Y579274D01*
X128974Y579295D01*
X129052Y579452D01*
X129134Y579606D01*
X129142Y579631D01*
X129154Y579656D01*
X129199Y579825D01*
X129249Y579992D01*
X129251Y580018D01*
X129258Y580044D01*
X129285Y580375D01*
X129285Y746659D01*
X129283Y746686D01*
X129285Y746713D01*
X129263Y746886D01*
X129245Y747060D01*
X129238Y747085D01*
X129234Y747112D01*
X129178Y747278D01*
X129127Y747445D01*
X129114Y747468D01*
X129106Y747494D01*
X129019Y747645D01*
X128935Y747799D01*
X128918Y747819D01*
X128905Y747843D01*
X128690Y748096D01*
X124713Y752073D01*
X124713Y759227D01*
X129773Y764287D01*
X136927Y764287D01*
X141987Y759227D01*
X141987Y752073D01*
X138010Y748096D01*
X137993Y748075D01*
X137972Y748057D01*
X137865Y747919D01*
X137755Y747784D01*
X137742Y747760D01*
X137726Y747739D01*
X137648Y747583D01*
X137566Y747428D01*
X137558Y747403D01*
X137546Y747379D01*
X137501Y747209D01*
X137451Y747042D01*
X137449Y747016D01*
X137442Y746990D01*
X137415Y746659D01*
X137415Y577041D01*
X136796Y575548D01*
X112610Y551361D01*
X112593Y551341D01*
X112572Y551323D01*
X112465Y551185D01*
X112355Y551050D01*
X112342Y551026D01*
X112326Y551005D01*
X112248Y550848D01*
X112166Y550694D01*
X112158Y550669D01*
X112146Y550644D01*
X112101Y550475D01*
X112051Y550308D01*
X112049Y550282D01*
X112042Y550256D01*
X112015Y549925D01*
X112015Y526153D01*
X112016Y526144D01*
X112015Y526136D01*
X112036Y525944D01*
X112055Y525753D01*
X112057Y525744D01*
X112058Y525735D01*
X112116Y525553D01*
X112173Y525368D01*
X112177Y525360D01*
X112180Y525351D01*
X112273Y525183D01*
X112365Y525014D01*
X112370Y525007D01*
X112375Y524999D01*
X112500Y524851D01*
X112622Y524704D01*
X112629Y524699D01*
X112635Y524692D01*
X112787Y524572D01*
X112936Y524452D01*
X112944Y524448D01*
X112951Y524442D01*
X113123Y524355D01*
X113293Y524267D01*
X113302Y524264D01*
X113310Y524260D01*
X113496Y524208D01*
X113680Y524155D01*
X113689Y524155D01*
X113698Y524152D01*
X113890Y524138D01*
X114082Y524122D01*
X114090Y524123D01*
X114099Y524123D01*
X114292Y524147D01*
X114481Y524169D01*
X114490Y524172D01*
X114499Y524173D01*
X114682Y524235D01*
X114864Y524294D01*
X114872Y524299D01*
X114880Y524301D01*
X115046Y524397D01*
X115215Y524492D01*
X115222Y524498D01*
X115229Y524502D01*
X115482Y524717D01*
X116378Y525613D01*
X149222Y525613D01*
X150413Y524422D01*
X150413Y491578D01*
X149222Y490387D01*
X116378Y490387D01*
X115482Y491283D01*
X115475Y491289D01*
X115470Y491296D01*
X115319Y491417D01*
X115171Y491538D01*
X115163Y491542D01*
X115156Y491548D01*
X114986Y491636D01*
X114815Y491727D01*
X114806Y491729D01*
X114799Y491733D01*
X114614Y491786D01*
X114429Y491841D01*
X114420Y491842D01*
X114412Y491845D01*
X114221Y491860D01*
X114028Y491878D01*
X114019Y491877D01*
X114010Y491878D01*
X113821Y491855D01*
X113628Y491834D01*
X113619Y491832D01*
X113611Y491831D01*
X113429Y491771D01*
X113244Y491713D01*
X113236Y491709D01*
X113228Y491706D01*
X113061Y491612D01*
X112892Y491518D01*
X112885Y491512D01*
X112877Y491508D01*
X112732Y491383D01*
X112585Y491258D01*
X112579Y491251D01*
X112572Y491245D01*
X112456Y491094D01*
X112335Y490942D01*
X112331Y490934D01*
X112326Y490927D01*
X112241Y490756D01*
X112153Y490583D01*
X112150Y490574D01*
X112146Y490566D01*
X112097Y490381D01*
X112045Y490195D01*
X112044Y490186D01*
X112042Y490177D01*
X112015Y489847D01*
X112015Y269225D01*
X112017Y269198D01*
X112015Y269172D01*
X112037Y268998D01*
X112055Y268824D01*
X112062Y268799D01*
X112066Y268772D01*
X112121Y268607D01*
X112173Y268440D01*
X112186Y268416D01*
X112194Y268391D01*
X112281Y268239D01*
X112365Y268085D01*
X112382Y268065D01*
X112395Y268042D01*
X112610Y267789D01*
X134439Y245960D01*
X134459Y245943D01*
X134477Y245922D01*
X134615Y245815D01*
X134750Y245705D01*
X134774Y245692D01*
X134795Y245676D01*
X134952Y245598D01*
X135106Y245516D01*
X135131Y245508D01*
X135156Y245496D01*
X135325Y245451D01*
X135492Y245401D01*
X135518Y245399D01*
X135544Y245392D01*
X135875Y245365D01*
X148813Y245365D01*
X148835Y245367D01*
X148857Y245365D01*
X149035Y245387D01*
X149214Y245405D01*
X149235Y245411D01*
X149257Y245414D01*
X149428Y245470D01*
X149598Y245523D01*
X149618Y245533D01*
X149639Y245540D01*
X149795Y245629D01*
X149952Y245715D01*
X149970Y245729D01*
X149989Y245740D01*
X150124Y245858D01*
X150262Y245972D01*
X150276Y245990D01*
X150293Y246004D01*
X150402Y246147D01*
X150514Y246286D01*
X150524Y246306D01*
X150538Y246323D01*
X150690Y246619D01*
X151085Y247573D01*
X155461Y251950D01*
X155674Y252037D01*
X155674Y252038D01*
X161180Y254318D01*
X194420Y254318D01*
X200139Y251950D01*
X204515Y247573D01*
X206884Y241855D01*
X206884Y235665D01*
X204515Y229947D01*
X200139Y225570D01*
X194420Y223202D01*
X161180Y223202D01*
G37*
%LPD*%
%LPC*%
G36*
X161180Y317182D02*
X161180Y317182D01*
X155461Y319550D01*
X151085Y323927D01*
X148716Y329645D01*
X148716Y335835D01*
X151085Y341553D01*
X155461Y345930D01*
X159268Y347506D01*
X161180Y348298D01*
X171704Y348298D01*
X171722Y348300D01*
X171740Y348299D01*
X171922Y348320D01*
X172105Y348338D01*
X172122Y348343D01*
X172139Y348345D01*
X172314Y348402D01*
X172490Y348456D01*
X172505Y348465D01*
X172522Y348470D01*
X172682Y348561D01*
X172844Y348648D01*
X172857Y348659D01*
X172873Y348668D01*
X173012Y348788D01*
X173153Y348906D01*
X173164Y348920D01*
X173178Y348931D01*
X173290Y349076D01*
X173405Y349220D01*
X173413Y349235D01*
X173424Y349249D01*
X173506Y349414D01*
X173591Y349577D01*
X173596Y349594D01*
X173604Y349610D01*
X173651Y349788D01*
X173702Y349964D01*
X173704Y349982D01*
X173708Y349999D01*
X173735Y350329D01*
X173735Y378475D01*
X173733Y378502D01*
X173735Y378528D01*
X173713Y378702D01*
X173695Y378876D01*
X173688Y378901D01*
X173684Y378928D01*
X173629Y379093D01*
X173577Y379260D01*
X173564Y379284D01*
X173556Y379309D01*
X173469Y379461D01*
X173385Y379615D01*
X173368Y379635D01*
X173355Y379658D01*
X173140Y379911D01*
X129904Y423148D01*
X129285Y424641D01*
X129285Y458009D01*
X129904Y459502D01*
X154090Y483689D01*
X154107Y483709D01*
X154128Y483727D01*
X154235Y483865D01*
X154345Y484000D01*
X154358Y484024D01*
X154374Y484045D01*
X154452Y484202D01*
X154534Y484356D01*
X154542Y484381D01*
X154554Y484406D01*
X154599Y484575D01*
X154649Y484742D01*
X154651Y484768D01*
X154658Y484794D01*
X154685Y485125D01*
X154685Y746659D01*
X154683Y746686D01*
X154685Y746712D01*
X154663Y746886D01*
X154645Y747060D01*
X154638Y747085D01*
X154634Y747112D01*
X154579Y747278D01*
X154527Y747445D01*
X154514Y747468D01*
X154506Y747494D01*
X154419Y747645D01*
X154335Y747799D01*
X154318Y747819D01*
X154305Y747842D01*
X154090Y748095D01*
X150113Y752073D01*
X150113Y759227D01*
X155173Y764287D01*
X162327Y764287D01*
X167387Y759227D01*
X167387Y752073D01*
X163410Y748095D01*
X163393Y748075D01*
X163372Y748057D01*
X163265Y747919D01*
X163155Y747784D01*
X163142Y747760D01*
X163126Y747739D01*
X163048Y747582D01*
X162966Y747428D01*
X162958Y747403D01*
X162946Y747379D01*
X162901Y747209D01*
X162851Y747042D01*
X162849Y747016D01*
X162842Y746990D01*
X162815Y746659D01*
X162815Y481791D01*
X162196Y480298D01*
X138010Y456111D01*
X137993Y456091D01*
X137972Y456073D01*
X137865Y455935D01*
X137755Y455800D01*
X137742Y455776D01*
X137726Y455755D01*
X137648Y455598D01*
X137566Y455444D01*
X137558Y455419D01*
X137546Y455394D01*
X137501Y455225D01*
X137451Y455058D01*
X137449Y455032D01*
X137442Y455006D01*
X137415Y454675D01*
X137415Y427975D01*
X137417Y427948D01*
X137415Y427922D01*
X137437Y427748D01*
X137455Y427574D01*
X137462Y427549D01*
X137466Y427522D01*
X137521Y427357D01*
X137573Y427190D01*
X137586Y427166D01*
X137594Y427141D01*
X137681Y426989D01*
X137765Y426835D01*
X137782Y426815D01*
X137795Y426792D01*
X138010Y426539D01*
X181246Y383302D01*
X181865Y381809D01*
X181865Y350329D01*
X181867Y350312D01*
X181865Y350294D01*
X181886Y350112D01*
X181905Y349929D01*
X181910Y349912D01*
X181912Y349894D01*
X181969Y349720D01*
X182023Y349544D01*
X182031Y349528D01*
X182037Y349511D01*
X182127Y349351D01*
X182215Y349190D01*
X182226Y349176D01*
X182235Y349161D01*
X182355Y349021D01*
X182472Y348881D01*
X182486Y348869D01*
X182498Y348856D01*
X182643Y348743D01*
X182786Y348628D01*
X182802Y348620D01*
X182816Y348609D01*
X182981Y348527D01*
X183143Y348443D01*
X183160Y348438D01*
X183176Y348430D01*
X183355Y348382D01*
X183530Y348331D01*
X183548Y348330D01*
X183565Y348325D01*
X183896Y348298D01*
X194420Y348298D01*
X200139Y345930D01*
X204515Y341553D01*
X206884Y335835D01*
X206884Y329645D01*
X204515Y323927D01*
X200139Y319550D01*
X198213Y318753D01*
X194420Y317182D01*
X161180Y317182D01*
G37*
%LPD*%
%LPC*%
G36*
X273625Y60899D02*
X273625Y60899D01*
X273624Y60900D01*
X273624Y116900D01*
X273625Y116901D01*
X290354Y116901D01*
X290368Y116902D01*
X290381Y116901D01*
X290567Y116922D01*
X290755Y116941D01*
X290768Y116945D01*
X290781Y116946D01*
X290960Y117004D01*
X291140Y117059D01*
X291152Y117065D01*
X291164Y117069D01*
X291329Y117161D01*
X291494Y117251D01*
X291504Y117259D01*
X291516Y117266D01*
X291659Y117388D01*
X291803Y117508D01*
X291811Y117519D01*
X291822Y117527D01*
X291938Y117676D01*
X292055Y117822D01*
X292062Y117834D01*
X292070Y117844D01*
X292154Y118013D01*
X292241Y118179D01*
X292245Y118192D01*
X292251Y118204D01*
X292300Y118385D01*
X292352Y118566D01*
X292353Y118580D01*
X292357Y118593D01*
X292370Y118781D01*
X292385Y118968D01*
X292384Y118981D01*
X292385Y118994D01*
X292360Y119182D01*
X292338Y119367D01*
X292334Y119380D01*
X292332Y119393D01*
X292231Y119709D01*
X291342Y121855D01*
X291342Y125945D01*
X292908Y129725D01*
X295800Y132617D01*
X299580Y134183D01*
X303670Y134183D01*
X307450Y132617D01*
X310342Y129725D01*
X311908Y125945D01*
X311908Y121855D01*
X311019Y119709D01*
X311015Y119696D01*
X311009Y119685D01*
X310957Y119505D01*
X310903Y119324D01*
X310901Y119311D01*
X310898Y119298D01*
X310882Y119110D01*
X310865Y118923D01*
X310866Y118910D01*
X310865Y118896D01*
X310887Y118710D01*
X310906Y118523D01*
X310910Y118510D01*
X310912Y118497D01*
X310970Y118318D01*
X311026Y118138D01*
X311032Y118127D01*
X311037Y118114D01*
X311130Y117949D01*
X311219Y117785D01*
X311228Y117775D01*
X311234Y117763D01*
X311357Y117621D01*
X311478Y117477D01*
X311489Y117469D01*
X311498Y117458D01*
X311645Y117344D01*
X311793Y117226D01*
X311805Y117220D01*
X311816Y117212D01*
X311984Y117128D01*
X312151Y117042D01*
X312164Y117038D01*
X312176Y117032D01*
X312359Y116983D01*
X312539Y116932D01*
X312552Y116931D01*
X312565Y116928D01*
X312896Y116901D01*
X329625Y116901D01*
X329626Y116900D01*
X329626Y60900D01*
X329625Y60899D01*
X273625Y60899D01*
G37*
%LPD*%
%LPC*%
G36*
X22800Y60899D02*
X22800Y60899D01*
X22799Y60900D01*
X22799Y116900D01*
X22800Y116901D01*
X39529Y116901D01*
X39543Y116902D01*
X39556Y116901D01*
X39742Y116922D01*
X39930Y116941D01*
X39943Y116945D01*
X39956Y116946D01*
X40135Y117004D01*
X40315Y117059D01*
X40327Y117065D01*
X40339Y117069D01*
X40504Y117161D01*
X40669Y117251D01*
X40679Y117259D01*
X40691Y117266D01*
X40834Y117388D01*
X40978Y117508D01*
X40986Y117519D01*
X40997Y117527D01*
X41113Y117676D01*
X41230Y117822D01*
X41237Y117834D01*
X41245Y117844D01*
X41329Y118013D01*
X41416Y118179D01*
X41420Y118192D01*
X41426Y118204D01*
X41475Y118385D01*
X41527Y118566D01*
X41528Y118580D01*
X41532Y118593D01*
X41545Y118781D01*
X41560Y118968D01*
X41559Y118981D01*
X41560Y118994D01*
X41535Y119182D01*
X41513Y119367D01*
X41509Y119380D01*
X41507Y119393D01*
X41406Y119709D01*
X40517Y121855D01*
X40517Y125945D01*
X42083Y129725D01*
X44975Y132617D01*
X48755Y134183D01*
X52845Y134183D01*
X56625Y132617D01*
X59517Y129725D01*
X61083Y125945D01*
X61083Y121855D01*
X60194Y119709D01*
X60190Y119696D01*
X60184Y119685D01*
X60132Y119505D01*
X60078Y119324D01*
X60076Y119311D01*
X60073Y119298D01*
X60057Y119110D01*
X60040Y118923D01*
X60041Y118910D01*
X60040Y118896D01*
X60062Y118710D01*
X60081Y118523D01*
X60085Y118510D01*
X60087Y118497D01*
X60145Y118318D01*
X60201Y118138D01*
X60207Y118127D01*
X60212Y118114D01*
X60305Y117949D01*
X60394Y117785D01*
X60403Y117775D01*
X60409Y117763D01*
X60532Y117621D01*
X60653Y117477D01*
X60664Y117469D01*
X60673Y117458D01*
X60820Y117344D01*
X60968Y117226D01*
X60980Y117220D01*
X60991Y117212D01*
X61159Y117128D01*
X61326Y117042D01*
X61339Y117038D01*
X61351Y117032D01*
X61534Y116983D01*
X61714Y116932D01*
X61727Y116931D01*
X61740Y116928D01*
X62071Y116901D01*
X78800Y116901D01*
X78801Y116900D01*
X78801Y60900D01*
X78800Y60899D01*
X22800Y60899D01*
G37*
%LPD*%
%LPC*%
G36*
X29150Y638749D02*
X29150Y638749D01*
X29149Y638750D01*
X29149Y694750D01*
X29150Y694751D01*
X45879Y694751D01*
X45893Y694752D01*
X45906Y694751D01*
X46092Y694772D01*
X46280Y694791D01*
X46293Y694795D01*
X46306Y694796D01*
X46485Y694854D01*
X46665Y694909D01*
X46677Y694915D01*
X46689Y694919D01*
X46854Y695011D01*
X47019Y695101D01*
X47029Y695109D01*
X47041Y695116D01*
X47184Y695238D01*
X47328Y695358D01*
X47336Y695369D01*
X47347Y695377D01*
X47463Y695526D01*
X47580Y695672D01*
X47587Y695684D01*
X47595Y695694D01*
X47679Y695863D01*
X47766Y696029D01*
X47770Y696042D01*
X47776Y696054D01*
X47825Y696235D01*
X47877Y696416D01*
X47878Y696430D01*
X47882Y696443D01*
X47895Y696631D01*
X47910Y696818D01*
X47909Y696831D01*
X47910Y696844D01*
X47885Y697032D01*
X47863Y697217D01*
X47859Y697230D01*
X47857Y697243D01*
X47756Y697559D01*
X46867Y699705D01*
X46867Y703795D01*
X48433Y707575D01*
X51325Y710467D01*
X52853Y711100D01*
X55105Y712033D01*
X59195Y712033D01*
X62975Y710467D01*
X65867Y707575D01*
X67433Y703795D01*
X67433Y699705D01*
X66544Y697559D01*
X66540Y697546D01*
X66534Y697535D01*
X66482Y697355D01*
X66428Y697174D01*
X66426Y697161D01*
X66423Y697148D01*
X66407Y696960D01*
X66390Y696773D01*
X66391Y696760D01*
X66390Y696746D01*
X66412Y696560D01*
X66431Y696373D01*
X66435Y696360D01*
X66437Y696347D01*
X66495Y696168D01*
X66551Y695988D01*
X66557Y695977D01*
X66562Y695964D01*
X66654Y695799D01*
X66744Y695635D01*
X66753Y695625D01*
X66759Y695613D01*
X66882Y695471D01*
X67003Y695327D01*
X67014Y695319D01*
X67023Y695308D01*
X67170Y695194D01*
X67318Y695076D01*
X67330Y695070D01*
X67341Y695062D01*
X67509Y694978D01*
X67676Y694892D01*
X67689Y694888D01*
X67701Y694882D01*
X67884Y694833D01*
X68064Y694782D01*
X68077Y694781D01*
X68090Y694778D01*
X68421Y694751D01*
X85150Y694751D01*
X85151Y694750D01*
X85151Y638750D01*
X85150Y638749D01*
X29150Y638749D01*
G37*
%LPD*%
%LPC*%
G36*
X29150Y479999D02*
X29150Y479999D01*
X29149Y480000D01*
X29149Y536000D01*
X29150Y536001D01*
X45879Y536001D01*
X45893Y536002D01*
X45906Y536001D01*
X46092Y536022D01*
X46280Y536041D01*
X46293Y536045D01*
X46306Y536046D01*
X46485Y536104D01*
X46665Y536159D01*
X46677Y536165D01*
X46689Y536169D01*
X46854Y536261D01*
X47019Y536351D01*
X47029Y536359D01*
X47041Y536366D01*
X47184Y536488D01*
X47328Y536608D01*
X47336Y536619D01*
X47347Y536627D01*
X47463Y536776D01*
X47580Y536922D01*
X47587Y536934D01*
X47595Y536944D01*
X47679Y537113D01*
X47766Y537279D01*
X47770Y537292D01*
X47776Y537304D01*
X47825Y537485D01*
X47877Y537666D01*
X47878Y537680D01*
X47882Y537693D01*
X47895Y537881D01*
X47910Y538068D01*
X47909Y538081D01*
X47910Y538094D01*
X47885Y538282D01*
X47863Y538467D01*
X47859Y538480D01*
X47857Y538493D01*
X47756Y538809D01*
X46867Y540955D01*
X46867Y545045D01*
X48433Y548825D01*
X51325Y551717D01*
X53607Y552662D01*
X53607Y552663D01*
X55105Y553283D01*
X59195Y553283D01*
X62975Y551717D01*
X65867Y548825D01*
X67433Y545045D01*
X67433Y540955D01*
X66544Y538809D01*
X66540Y538796D01*
X66534Y538785D01*
X66482Y538605D01*
X66428Y538424D01*
X66426Y538411D01*
X66423Y538398D01*
X66407Y538210D01*
X66390Y538023D01*
X66391Y538010D01*
X66390Y537996D01*
X66412Y537810D01*
X66431Y537623D01*
X66435Y537610D01*
X66437Y537597D01*
X66495Y537418D01*
X66551Y537238D01*
X66557Y537227D01*
X66562Y537214D01*
X66654Y537049D01*
X66744Y536885D01*
X66753Y536875D01*
X66759Y536863D01*
X66882Y536721D01*
X67003Y536577D01*
X67014Y536569D01*
X67023Y536558D01*
X67170Y536444D01*
X67318Y536326D01*
X67330Y536320D01*
X67341Y536312D01*
X67509Y536228D01*
X67676Y536142D01*
X67689Y536138D01*
X67701Y536132D01*
X67884Y536083D01*
X68064Y536032D01*
X68077Y536031D01*
X68090Y536028D01*
X68421Y536001D01*
X85150Y536001D01*
X85151Y536000D01*
X85151Y480000D01*
X85150Y479999D01*
X29150Y479999D01*
G37*
%LPD*%
%LPC*%
G36*
X299580Y28617D02*
X299580Y28617D01*
X295800Y30183D01*
X292819Y33164D01*
X292814Y33173D01*
X292697Y33308D01*
X292583Y33446D01*
X292566Y33460D01*
X292551Y33478D01*
X292410Y33587D01*
X292271Y33700D01*
X292251Y33711D01*
X292233Y33724D01*
X292073Y33804D01*
X291914Y33887D01*
X291893Y33894D01*
X291872Y33904D01*
X291699Y33950D01*
X291528Y34000D01*
X291505Y34002D01*
X291484Y34008D01*
X291153Y34035D01*
X272241Y34035D01*
X270748Y34654D01*
X244204Y61198D01*
X243585Y62691D01*
X243585Y153209D01*
X244204Y154702D01*
X289218Y199717D01*
X289235Y199737D01*
X289256Y199755D01*
X289363Y199893D01*
X289473Y200028D01*
X289486Y200052D01*
X289502Y200073D01*
X289580Y200230D01*
X289662Y200384D01*
X289670Y200409D01*
X289682Y200434D01*
X289727Y200603D01*
X289777Y200770D01*
X289779Y200796D01*
X289786Y200822D01*
X289813Y201153D01*
X289813Y206777D01*
X294873Y211837D01*
X302027Y211837D01*
X307087Y206777D01*
X307087Y199623D01*
X302027Y194563D01*
X296403Y194563D01*
X296376Y194561D01*
X296350Y194563D01*
X296176Y194541D01*
X296002Y194523D01*
X295977Y194516D01*
X295950Y194512D01*
X295785Y194457D01*
X295618Y194405D01*
X295594Y194392D01*
X295569Y194384D01*
X295417Y194297D01*
X295263Y194213D01*
X295243Y194196D01*
X295220Y194183D01*
X294967Y193968D01*
X252310Y151311D01*
X252293Y151291D01*
X252272Y151273D01*
X252165Y151135D01*
X252055Y151000D01*
X252042Y150976D01*
X252026Y150955D01*
X251948Y150798D01*
X251866Y150644D01*
X251858Y150619D01*
X251846Y150594D01*
X251801Y150425D01*
X251751Y150258D01*
X251749Y150232D01*
X251742Y150206D01*
X251715Y149875D01*
X251715Y66025D01*
X251717Y65998D01*
X251715Y65972D01*
X251737Y65798D01*
X251755Y65624D01*
X251762Y65599D01*
X251766Y65572D01*
X251821Y65407D01*
X251873Y65240D01*
X251886Y65216D01*
X251894Y65191D01*
X251981Y65039D01*
X252065Y64885D01*
X252082Y64865D01*
X252095Y64842D01*
X252310Y64589D01*
X274139Y42760D01*
X274159Y42743D01*
X274177Y42722D01*
X274315Y42615D01*
X274450Y42505D01*
X274474Y42492D01*
X274495Y42476D01*
X274652Y42398D01*
X274806Y42316D01*
X274831Y42308D01*
X274856Y42296D01*
X275025Y42251D01*
X275192Y42201D01*
X275218Y42199D01*
X275244Y42192D01*
X275575Y42165D01*
X290490Y42165D01*
X290512Y42167D01*
X290535Y42165D01*
X290712Y42187D01*
X290891Y42205D01*
X290912Y42211D01*
X290934Y42214D01*
X291104Y42270D01*
X291276Y42323D01*
X291295Y42333D01*
X291316Y42340D01*
X291472Y42429D01*
X291630Y42515D01*
X291647Y42529D01*
X291666Y42540D01*
X291802Y42658D01*
X291939Y42772D01*
X291953Y42790D01*
X291970Y42804D01*
X292079Y42946D01*
X292191Y43086D01*
X292202Y43106D01*
X292215Y43124D01*
X292367Y43419D01*
X292908Y44725D01*
X295800Y47617D01*
X299580Y49183D01*
X303670Y49183D01*
X307450Y47617D01*
X310342Y44725D01*
X311908Y40945D01*
X311908Y36855D01*
X310342Y33075D01*
X307450Y30183D01*
X303670Y28617D01*
X299580Y28617D01*
G37*
%LPD*%
%LPC*%
G36*
X288656Y411989D02*
X288656Y411989D01*
X282002Y413772D01*
X276037Y417216D01*
X271166Y422087D01*
X267722Y428052D01*
X265939Y434706D01*
X265939Y441594D01*
X267722Y448248D01*
X271166Y454213D01*
X276037Y459084D01*
X282002Y462528D01*
X288656Y464311D01*
X295544Y464311D01*
X302198Y462528D01*
X308163Y459084D01*
X313034Y454213D01*
X316478Y448248D01*
X318261Y441594D01*
X318261Y434706D01*
X316478Y428052D01*
X313034Y422087D01*
X308163Y417216D01*
X302198Y413772D01*
X295544Y411989D01*
X288656Y411989D01*
G37*
%LPD*%
%LPC*%
G36*
X161180Y270192D02*
X161180Y270192D01*
X155461Y272560D01*
X151085Y276937D01*
X148716Y282655D01*
X148716Y288845D01*
X151085Y294563D01*
X155461Y298940D01*
X161180Y301308D01*
X194420Y301308D01*
X200139Y298940D01*
X204515Y294563D01*
X206884Y288845D01*
X206884Y282655D01*
X204515Y276937D01*
X200139Y272560D01*
X194420Y270192D01*
X161180Y270192D01*
G37*
%LPD*%
%LPC*%
G36*
X295278Y722162D02*
X295278Y722162D01*
X294087Y723353D01*
X294087Y756197D01*
X295278Y757388D01*
X328122Y757388D01*
X329313Y756197D01*
X329313Y723353D01*
X328122Y722162D01*
X295278Y722162D01*
G37*
%LPD*%
%LPC*%
G36*
X193678Y71287D02*
X193678Y71287D01*
X192487Y72478D01*
X192487Y105322D01*
X193678Y106513D01*
X226522Y106513D01*
X227713Y105322D01*
X227713Y72478D01*
X226522Y71287D01*
X193678Y71287D01*
G37*
%LPD*%
%LPC*%
G36*
X206378Y490387D02*
X206378Y490387D01*
X205187Y491578D01*
X205187Y524422D01*
X206378Y525613D01*
X239222Y525613D01*
X240413Y524422D01*
X240413Y491578D01*
X239222Y490387D01*
X206378Y490387D01*
G37*
%LPD*%
%LPC*%
G36*
X103678Y71287D02*
X103678Y71287D01*
X102487Y72478D01*
X102487Y105322D01*
X103678Y106513D01*
X136522Y106513D01*
X137713Y105322D01*
X137713Y72478D01*
X136522Y71287D01*
X103678Y71287D01*
G37*
%LPD*%
%LPC*%
G36*
X23985Y767587D02*
X23985Y767587D01*
X21371Y768670D01*
X19370Y770671D01*
X18287Y773285D01*
X18287Y776115D01*
X19370Y778729D01*
X21371Y780730D01*
X23985Y781813D01*
X26815Y781813D01*
X29429Y780730D01*
X30799Y779360D01*
X30820Y779343D01*
X30837Y779322D01*
X30975Y779215D01*
X31111Y779105D01*
X31134Y779092D01*
X31156Y779076D01*
X31312Y778998D01*
X31466Y778916D01*
X31492Y778908D01*
X31516Y778896D01*
X31685Y778851D01*
X31852Y778801D01*
X31879Y778799D01*
X31905Y778792D01*
X32236Y778765D01*
X75714Y778765D01*
X75741Y778767D01*
X75768Y778765D01*
X75942Y778787D01*
X76115Y778805D01*
X76141Y778812D01*
X76167Y778816D01*
X76333Y778871D01*
X76500Y778923D01*
X76524Y778936D01*
X76549Y778944D01*
X76701Y779031D01*
X76854Y779115D01*
X76874Y779132D01*
X76898Y779145D01*
X77151Y779360D01*
X78521Y780730D01*
X81135Y781813D01*
X83965Y781813D01*
X86579Y780730D01*
X88580Y778729D01*
X89663Y776115D01*
X89663Y773285D01*
X88580Y770671D01*
X86579Y768670D01*
X84138Y767659D01*
X83965Y767587D01*
X81135Y767587D01*
X78521Y768670D01*
X77151Y770040D01*
X77130Y770057D01*
X77113Y770078D01*
X76975Y770185D01*
X76839Y770295D01*
X76816Y770308D01*
X76794Y770324D01*
X76638Y770402D01*
X76484Y770484D01*
X76458Y770492D01*
X76434Y770504D01*
X76265Y770549D01*
X76098Y770599D01*
X76071Y770601D01*
X76045Y770608D01*
X75714Y770635D01*
X32236Y770635D01*
X32209Y770633D01*
X32182Y770635D01*
X32008Y770613D01*
X31835Y770595D01*
X31809Y770588D01*
X31783Y770584D01*
X31617Y770529D01*
X31450Y770477D01*
X31426Y770464D01*
X31401Y770456D01*
X31249Y770369D01*
X31096Y770285D01*
X31076Y770268D01*
X31052Y770255D01*
X30799Y770040D01*
X29429Y768670D01*
X26988Y767659D01*
X26815Y767587D01*
X23985Y767587D01*
G37*
%LPD*%
%LPC*%
G36*
X198486Y427585D02*
X198486Y427585D01*
X192385Y433686D01*
X192385Y442314D01*
X198486Y448415D01*
X207114Y448415D01*
X213215Y442314D01*
X213215Y433686D01*
X207114Y427585D01*
X198486Y427585D01*
G37*
%LPD*%
%LPC*%
G36*
X167136Y897485D02*
X167136Y897485D01*
X161035Y903586D01*
X161035Y912214D01*
X167136Y918315D01*
X175764Y918315D01*
X181865Y912214D01*
X181865Y903586D01*
X175764Y897485D01*
X167136Y897485D01*
G37*
%LPD*%
%LPC*%
G36*
X55105Y606467D02*
X55105Y606467D01*
X51325Y608033D01*
X48433Y610925D01*
X46867Y614705D01*
X46867Y618795D01*
X48433Y622575D01*
X51325Y625467D01*
X55105Y627033D01*
X59195Y627033D01*
X62975Y625467D01*
X65867Y622575D01*
X67433Y618795D01*
X67433Y614705D01*
X65867Y610925D01*
X62975Y608033D01*
X59195Y606467D01*
X55105Y606467D01*
G37*
%LPD*%
%LPC*%
G36*
X55105Y447717D02*
X55105Y447717D01*
X51325Y449283D01*
X48433Y452175D01*
X46867Y455955D01*
X46867Y460045D01*
X48433Y463825D01*
X51325Y466717D01*
X52853Y467350D01*
X55105Y468283D01*
X59195Y468283D01*
X62975Y466717D01*
X65867Y463825D01*
X67433Y460045D01*
X67433Y455955D01*
X65867Y452175D01*
X62975Y449283D01*
X59195Y447717D01*
X55105Y447717D01*
G37*
%LPD*%
%LPC*%
G36*
X269473Y194563D02*
X269473Y194563D01*
X264413Y199623D01*
X264413Y206777D01*
X269473Y211837D01*
X276627Y211837D01*
X281687Y206777D01*
X281687Y199623D01*
X276627Y194563D01*
X269473Y194563D01*
G37*
%LPD*%
%LPC*%
G36*
X320273Y270763D02*
X320273Y270763D01*
X315213Y275823D01*
X315213Y282977D01*
X320273Y288037D01*
X327427Y288037D01*
X332487Y282977D01*
X332487Y275823D01*
X327427Y270763D01*
X320273Y270763D01*
G37*
%LPD*%
%LPC*%
G36*
X269473Y270763D02*
X269473Y270763D01*
X264413Y275823D01*
X264413Y282977D01*
X269473Y288037D01*
X276627Y288037D01*
X281687Y282977D01*
X281687Y275823D01*
X276627Y270763D01*
X269473Y270763D01*
G37*
%LPD*%
%LPC*%
G36*
X294873Y270763D02*
X294873Y270763D01*
X289813Y275823D01*
X289813Y282977D01*
X294873Y288037D01*
X302027Y288037D01*
X307087Y282977D01*
X307087Y275823D01*
X302027Y270763D01*
X294873Y270763D01*
G37*
%LPD*%
%LPC*%
G36*
X244073Y270763D02*
X244073Y270763D01*
X239013Y275823D01*
X239013Y282977D01*
X244073Y288037D01*
X251227Y288037D01*
X256287Y282977D01*
X256287Y275823D01*
X251227Y270763D01*
X244073Y270763D01*
G37*
%LPD*%
%LPC*%
G36*
X27939Y967739D02*
X27939Y967739D01*
X27939Y975361D01*
X42879Y975361D01*
X42436Y974000D01*
X41710Y972575D01*
X40770Y971281D01*
X39639Y970150D01*
X38345Y969210D01*
X36920Y968484D01*
X35399Y967989D01*
X33820Y967739D01*
X27939Y967739D01*
G37*
%LPD*%
%LPC*%
G36*
X315430Y967739D02*
X315430Y967739D01*
X313851Y967989D01*
X312330Y968484D01*
X310905Y969210D01*
X309611Y970150D01*
X308480Y971281D01*
X307540Y972575D01*
X306814Y974000D01*
X306371Y975361D01*
X321311Y975361D01*
X321311Y967739D01*
X315430Y967739D01*
G37*
%LPD*%
%LPC*%
G36*
X141877Y440749D02*
X141877Y440749D01*
X141877Y446717D01*
X142050Y447363D01*
X142385Y447942D01*
X142858Y448415D01*
X143437Y448750D01*
X144083Y448923D01*
X150051Y448923D01*
X150051Y440749D01*
X141877Y440749D01*
G37*
%LPD*%
%LPC*%
G36*
X129177Y21649D02*
X129177Y21649D01*
X129177Y27617D01*
X129350Y28263D01*
X129685Y28842D01*
X130158Y29315D01*
X130737Y29650D01*
X131383Y29823D01*
X137351Y29823D01*
X137351Y21649D01*
X129177Y21649D01*
G37*
%LPD*%
%LPC*%
G36*
X144083Y427077D02*
X144083Y427077D01*
X143437Y427250D01*
X142858Y427585D01*
X142385Y428058D01*
X142050Y428637D01*
X141877Y429283D01*
X141877Y435251D01*
X150051Y435251D01*
X150051Y427077D01*
X144083Y427077D01*
G37*
%LPD*%
%LPC*%
G36*
X294449Y672524D02*
X294449Y672524D01*
X294449Y680698D01*
X296224Y680698D01*
X302623Y674299D01*
X302623Y672524D01*
X294449Y672524D01*
G37*
%LPD*%
%LPC*%
G36*
X294449Y658852D02*
X294449Y658852D01*
X294449Y667026D01*
X302623Y667026D01*
X302623Y665251D01*
X296224Y658852D01*
X294449Y658852D01*
G37*
%LPD*%
%LPC*%
G36*
X59899Y575749D02*
X59899Y575749D01*
X59899Y583453D01*
X61292Y583000D01*
X62806Y582229D01*
X64180Y581231D01*
X65381Y580030D01*
X66379Y578656D01*
X67150Y577142D01*
X67603Y575749D01*
X59899Y575749D01*
G37*
%LPD*%
%LPC*%
G36*
X304374Y156649D02*
X304374Y156649D01*
X304374Y164353D01*
X305767Y163900D01*
X307281Y163129D01*
X308655Y162131D01*
X309856Y160930D01*
X310854Y159556D01*
X311625Y158042D01*
X312078Y156649D01*
X304374Y156649D01*
G37*
%LPD*%
%LPC*%
G36*
X53549Y156649D02*
X53549Y156649D01*
X53549Y164353D01*
X54942Y163900D01*
X56456Y163129D01*
X57830Y162131D01*
X59031Y160930D01*
X60029Y159556D01*
X60800Y158042D01*
X61253Y156649D01*
X53549Y156649D01*
G37*
%LPD*%
%LPC*%
G36*
X59899Y734499D02*
X59899Y734499D01*
X59899Y742203D01*
X61292Y741750D01*
X62806Y740979D01*
X64180Y739981D01*
X65381Y738780D01*
X66379Y737406D01*
X67150Y735892D01*
X67603Y734499D01*
X59899Y734499D01*
G37*
%LPD*%
%LPC*%
G36*
X46697Y575749D02*
X46697Y575749D01*
X47150Y577142D01*
X47921Y578656D01*
X48919Y580030D01*
X50120Y581231D01*
X51494Y582229D01*
X53008Y583000D01*
X54401Y583453D01*
X54401Y575749D01*
X46697Y575749D01*
G37*
%LPD*%
%LPC*%
G36*
X59899Y729001D02*
X59899Y729001D01*
X67603Y729001D01*
X67150Y727608D01*
X66379Y726094D01*
X65381Y724720D01*
X64180Y723519D01*
X62806Y722521D01*
X61292Y721750D01*
X59899Y721297D01*
X59899Y729001D01*
G37*
%LPD*%
%LPC*%
G36*
X291172Y156649D02*
X291172Y156649D01*
X291625Y158042D01*
X292396Y159556D01*
X293394Y160930D01*
X294595Y162131D01*
X295969Y163129D01*
X297483Y163900D01*
X298876Y164353D01*
X298876Y156649D01*
X291172Y156649D01*
G37*
%LPD*%
%LPC*%
G36*
X40347Y156649D02*
X40347Y156649D01*
X40800Y158042D01*
X41571Y159556D01*
X42569Y160930D01*
X43770Y162131D01*
X45144Y163129D01*
X46658Y163900D01*
X48051Y164353D01*
X48051Y156649D01*
X40347Y156649D01*
G37*
%LPD*%
%LPC*%
G36*
X46697Y734499D02*
X46697Y734499D01*
X47150Y735892D01*
X47921Y737406D01*
X48919Y738780D01*
X50120Y739981D01*
X51494Y740979D01*
X53008Y741750D01*
X54401Y742203D01*
X54401Y734499D01*
X46697Y734499D01*
G37*
%LPD*%
%LPC*%
G36*
X53549Y151151D02*
X53549Y151151D01*
X61253Y151151D01*
X60800Y149758D01*
X60029Y148244D01*
X59031Y146870D01*
X57830Y145669D01*
X56456Y144671D01*
X54942Y143900D01*
X53549Y143447D01*
X53549Y151151D01*
G37*
%LPD*%
%LPC*%
G36*
X59899Y570251D02*
X59899Y570251D01*
X67603Y570251D01*
X67150Y568858D01*
X66379Y567344D01*
X65381Y565970D01*
X64180Y564769D01*
X62806Y563771D01*
X61292Y563000D01*
X59899Y562547D01*
X59899Y570251D01*
G37*
%LPD*%
%LPC*%
G36*
X304374Y151151D02*
X304374Y151151D01*
X312078Y151151D01*
X311625Y149758D01*
X310854Y148244D01*
X309856Y146870D01*
X308655Y145669D01*
X307281Y144671D01*
X305767Y143900D01*
X304374Y143447D01*
X304374Y151151D01*
G37*
%LPD*%
%LPC*%
G36*
X297483Y143900D02*
X297483Y143900D01*
X295969Y144671D01*
X294595Y145669D01*
X293394Y146870D01*
X292396Y148244D01*
X291625Y149758D01*
X291172Y151151D01*
X298876Y151151D01*
X298876Y143447D01*
X297483Y143900D01*
G37*
%LPD*%
%LPC*%
G36*
X53008Y563000D02*
X53008Y563000D01*
X51494Y563771D01*
X50120Y564769D01*
X48919Y565970D01*
X47921Y567344D01*
X47150Y568858D01*
X46697Y570251D01*
X54401Y570251D01*
X54401Y562547D01*
X53008Y563000D01*
G37*
%LPD*%
%LPC*%
G36*
X46658Y143900D02*
X46658Y143900D01*
X45144Y144671D01*
X43770Y145669D01*
X42569Y146870D01*
X41571Y148244D01*
X40800Y149758D01*
X40347Y151151D01*
X48051Y151151D01*
X48051Y143447D01*
X46658Y143900D01*
G37*
%LPD*%
%LPC*%
G36*
X53008Y721750D02*
X53008Y721750D01*
X51494Y722521D01*
X50120Y723519D01*
X48919Y724720D01*
X47921Y726094D01*
X47150Y727608D01*
X46697Y729001D01*
X54401Y729001D01*
X54401Y721297D01*
X53008Y721750D01*
G37*
%LPD*%
%LPC*%
G36*
X175005Y757681D02*
X175005Y757681D01*
X175005Y759438D01*
X180362Y764795D01*
X182119Y764795D01*
X182119Y757681D01*
X175005Y757681D01*
G37*
%LPD*%
%LPC*%
G36*
X180362Y746505D02*
X180362Y746505D01*
X175005Y751862D01*
X175005Y753619D01*
X182119Y753619D01*
X182119Y746505D01*
X180362Y746505D01*
G37*
%LPD*%
D10*
X152800Y438000D03*
D11*
X177800Y438000D03*
X202800Y438000D03*
D12*
X222800Y508000D03*
X132800Y508000D03*
D13*
X301625Y38900D03*
X301625Y123900D03*
X301625Y153900D03*
X50800Y38900D03*
X50800Y123900D03*
X50800Y153900D03*
X57150Y616750D03*
X57150Y701750D03*
X57150Y731750D03*
X57150Y458000D03*
X57150Y543000D03*
X57150Y573000D03*
D10*
X140100Y18900D03*
D11*
X165100Y18900D03*
X190100Y18900D03*
D12*
X210100Y88900D03*
X120100Y88900D03*
D10*
X146450Y907900D03*
D11*
X171450Y907900D03*
X196450Y907900D03*
D12*
X216450Y977900D03*
X126450Y977900D03*
D10*
X241700Y669775D03*
D11*
X266700Y669775D03*
X291700Y669775D03*
D12*
X311700Y739775D03*
X221700Y739775D03*
D14*
X273050Y203200D03*
X273050Y279400D03*
D15*
X247650Y279400D03*
X247650Y203200D03*
X323850Y279400D03*
X323850Y203200D03*
D14*
X298450Y203200D03*
X298450Y279400D03*
X133350Y755650D03*
X133350Y831850D03*
X158750Y755650D03*
X158750Y831850D03*
D15*
X184150Y831850D03*
X184150Y755650D03*
D16*
X33020Y977900D02*
X17780Y977900D01*
X17780Y952500D02*
X33020Y952500D01*
X33020Y927100D02*
X17780Y927100D01*
X17780Y901700D02*
X33020Y901700D01*
X33020Y876300D02*
X17780Y876300D01*
X17780Y850900D02*
X33020Y850900D01*
X316230Y977900D02*
X331470Y977900D01*
X331470Y952500D02*
X316230Y952500D01*
X316230Y927100D02*
X331470Y927100D01*
X331470Y901700D02*
X316230Y901700D01*
X316230Y876300D02*
X331470Y876300D01*
X331470Y850900D02*
X316230Y850900D01*
D17*
X191326Y238760D02*
X164275Y238760D01*
X164275Y285750D02*
X191326Y285750D01*
X191326Y332740D02*
X164275Y332740D01*
D18*
X311150Y622300D03*
X50800Y812800D03*
X76200Y234950D03*
D19*
X57150Y927100D02*
X25400Y927100D01*
X57150Y927100D02*
X76200Y907900D01*
X146450Y907900D01*
X260350Y952500D02*
X323850Y952500D01*
X260350Y952500D02*
X215900Y908050D01*
X196450Y907900D01*
X301625Y38900D02*
X298450Y38100D01*
X273050Y38100D01*
X247650Y63500D01*
X247650Y152400D01*
X298450Y203200D01*
X82550Y774700D02*
X25400Y774700D01*
D18*
X25400Y774700D03*
X82550Y774700D03*
D19*
X50800Y876300D02*
X25400Y876300D01*
X50800Y876300D02*
X139700Y787400D01*
X184150Y787400D01*
X196850Y774700D01*
X196850Y482600D02*
X177800Y463550D01*
X177800Y438000D01*
X196850Y482600D02*
X196850Y774700D01*
X323850Y215900D02*
X323850Y203200D01*
X323850Y215900D02*
X311150Y228600D01*
X260350Y228600D01*
X247650Y215900D01*
X247650Y203200D01*
X19050Y203200D01*
D18*
X19050Y203200D03*
D19*
X292100Y876300D02*
X323850Y876300D01*
X292100Y876300D02*
X254000Y838200D01*
X254000Y704850D01*
X241300Y692150D01*
X241300Y669775D01*
X241700Y669775D01*
X292100Y850900D02*
X323850Y850900D01*
X292100Y850900D02*
X266700Y825500D01*
X266700Y669775D01*
X177800Y381000D02*
X177800Y332740D01*
X177800Y381000D02*
X133350Y425450D01*
X133350Y457200D01*
X158750Y482600D01*
X158750Y755650D01*
X133350Y755650D02*
X133350Y577850D01*
X107950Y552450D01*
X133350Y241300D02*
X177800Y241300D01*
X177847Y241214D01*
X177892Y241126D01*
X177932Y241036D01*
X177970Y240945D01*
X178003Y240852D01*
X178033Y240758D01*
X178060Y240664D01*
X178082Y240568D01*
X178101Y240471D01*
X178117Y240374D01*
X178128Y240276D01*
X178136Y240178D01*
X178140Y240079D01*
X178140Y239981D01*
X178136Y239882D01*
X178128Y239784D01*
X178117Y239686D01*
X178101Y239589D01*
X178082Y239492D01*
X178060Y239396D01*
X178033Y239302D01*
X178003Y239208D01*
X177970Y239115D01*
X177932Y239024D01*
X177892Y238934D01*
X177847Y238846D01*
X177800Y238760D01*
X107950Y266700D02*
X107950Y552450D01*
X107950Y266700D02*
X133350Y241300D01*
X260350Y901700D02*
X323850Y901700D01*
X260350Y901700D02*
X190500Y831850D01*
X184150Y831850D01*
X158750Y831850D01*
X190100Y19050D02*
X190100Y18900D01*
X190100Y19050D02*
X190500Y25400D01*
X190500Y38100D01*
X177800Y50800D01*
X107950Y50800D01*
X95250Y38100D01*
X50800Y38100D01*
X50800Y38900D01*
X260350Y927100D02*
X323850Y927100D01*
X260350Y927100D02*
X203200Y869950D01*
X171450Y869950D01*
X133350Y831850D01*
M02*
