G04 EAGLE Gerber RS-274X export*
G75*
%MOMM*%
%FSLAX34Y34*%
%LPD*%
%INBottom Copper*%
%IPPOS*%
%AMOC8*
5,1,8,0,0,1.08239X$1,22.5*%
G01*
%ADD10R,1.676400X1.676400*%
%ADD11P,1.814519X8X292.500000*%
%ADD12R,3.116000X3.116000*%
%ADD13C,1.650000*%
%ADD14P,1.429621X8X112.500000*%
%ADD15P,1.429621X8X292.500000*%
%ADD16C,1.524000*%
%ADD17C,2.705100*%
%ADD18C,1.016000*%
%ADD19C,0.406400*%

G36*
X127164Y10163D02*
X127164Y10163D01*
X127182Y10161D01*
X127364Y10182D01*
X127547Y10201D01*
X127564Y10206D01*
X127581Y10208D01*
X127756Y10265D01*
X127932Y10319D01*
X127947Y10327D01*
X127964Y10333D01*
X128124Y10423D01*
X128286Y10511D01*
X128299Y10522D01*
X128315Y10531D01*
X128454Y10651D01*
X128595Y10768D01*
X128606Y10782D01*
X128620Y10794D01*
X128732Y10939D01*
X128847Y11082D01*
X128855Y11098D01*
X128866Y11112D01*
X128948Y11277D01*
X129033Y11439D01*
X129038Y11456D01*
X129046Y11472D01*
X129093Y11651D01*
X129144Y11826D01*
X129146Y11844D01*
X129150Y11861D01*
X129177Y12192D01*
X129177Y16151D01*
X139382Y16151D01*
X139400Y16152D01*
X139417Y16151D01*
X139600Y16172D01*
X139782Y16191D01*
X139799Y16196D01*
X139817Y16198D01*
X139992Y16255D01*
X140167Y16309D01*
X140183Y16317D01*
X140200Y16323D01*
X140360Y16413D01*
X140521Y16500D01*
X140535Y16512D01*
X140551Y16521D01*
X140690Y16641D01*
X140831Y16758D01*
X140842Y16772D01*
X140855Y16784D01*
X140968Y16929D01*
X141083Y17072D01*
X141091Y17088D01*
X141102Y17102D01*
X141184Y17267D01*
X141268Y17429D01*
X141273Y17446D01*
X141281Y17462D01*
X141329Y17641D01*
X141335Y17661D01*
X141428Y17691D01*
X141604Y17745D01*
X141619Y17753D01*
X141636Y17759D01*
X141796Y17849D01*
X141958Y17937D01*
X141971Y17948D01*
X141987Y17957D01*
X142126Y18077D01*
X142267Y18195D01*
X142278Y18208D01*
X142292Y18220D01*
X142404Y18365D01*
X142519Y18508D01*
X142527Y18524D01*
X142538Y18538D01*
X142620Y18703D01*
X142705Y18866D01*
X142710Y18883D01*
X142718Y18899D01*
X142765Y19077D01*
X142816Y19252D01*
X142818Y19270D01*
X142822Y19287D01*
X142849Y19618D01*
X142849Y29823D01*
X148817Y29823D01*
X149463Y29650D01*
X150042Y29315D01*
X150515Y28842D01*
X150850Y28263D01*
X151023Y27617D01*
X151023Y24455D01*
X151024Y24446D01*
X151023Y24437D01*
X151044Y24244D01*
X151063Y24055D01*
X151065Y24046D01*
X151066Y24037D01*
X151125Y23853D01*
X151181Y23670D01*
X151185Y23662D01*
X151188Y23653D01*
X151281Y23485D01*
X151373Y23316D01*
X151378Y23309D01*
X151383Y23301D01*
X151507Y23154D01*
X151630Y23006D01*
X151637Y23001D01*
X151643Y22994D01*
X151795Y22874D01*
X151944Y22754D01*
X151952Y22750D01*
X151959Y22744D01*
X152132Y22657D01*
X152301Y22569D01*
X152310Y22566D01*
X152318Y22562D01*
X152504Y22510D01*
X152688Y22457D01*
X152697Y22456D01*
X152706Y22454D01*
X152899Y22440D01*
X153090Y22424D01*
X153098Y22425D01*
X153107Y22425D01*
X153300Y22449D01*
X153489Y22471D01*
X153498Y22474D01*
X153507Y22475D01*
X153689Y22536D01*
X153872Y22596D01*
X153880Y22600D01*
X153888Y22603D01*
X154055Y22699D01*
X154223Y22794D01*
X154230Y22800D01*
X154237Y22804D01*
X154490Y23019D01*
X160440Y28969D01*
X160457Y28990D01*
X160478Y29007D01*
X160585Y29145D01*
X160695Y29280D01*
X160708Y29304D01*
X160724Y29325D01*
X160802Y29482D01*
X160884Y29636D01*
X160892Y29662D01*
X160904Y29686D01*
X160949Y29855D01*
X160999Y30022D01*
X161001Y30049D01*
X161008Y30075D01*
X161035Y30405D01*
X161035Y111775D01*
X161033Y111802D01*
X161035Y111828D01*
X161013Y112002D01*
X160995Y112176D01*
X160988Y112201D01*
X160984Y112228D01*
X160929Y112393D01*
X160877Y112560D01*
X160864Y112584D01*
X160856Y112609D01*
X160769Y112761D01*
X160685Y112915D01*
X160668Y112935D01*
X160655Y112958D01*
X160440Y113211D01*
X123554Y150098D01*
X122935Y151591D01*
X122935Y273859D01*
X123554Y275352D01*
X137398Y289196D01*
X138891Y289815D01*
X147761Y289815D01*
X147783Y289817D01*
X147805Y289815D01*
X147983Y289837D01*
X148161Y289855D01*
X148183Y289861D01*
X148205Y289864D01*
X148375Y289920D01*
X148546Y289973D01*
X148566Y289983D01*
X148587Y289990D01*
X148743Y290079D01*
X148900Y290165D01*
X148917Y290179D01*
X148937Y290190D01*
X149072Y290308D01*
X149210Y290422D01*
X149224Y290440D01*
X149240Y290454D01*
X149350Y290596D01*
X149462Y290736D01*
X149472Y290756D01*
X149486Y290774D01*
X149637Y291069D01*
X151085Y294563D01*
X153790Y297268D01*
X153795Y297275D01*
X153802Y297280D01*
X153922Y297430D01*
X154045Y297579D01*
X154049Y297587D01*
X154054Y297594D01*
X154143Y297764D01*
X154233Y297935D01*
X154236Y297944D01*
X154240Y297951D01*
X154293Y298136D01*
X154348Y298321D01*
X154349Y298330D01*
X154351Y298338D01*
X154367Y298529D01*
X154384Y298722D01*
X154383Y298731D01*
X154384Y298740D01*
X154362Y298929D01*
X154341Y299122D01*
X154338Y299131D01*
X154337Y299139D01*
X154278Y299321D01*
X154220Y299506D01*
X154215Y299514D01*
X154212Y299522D01*
X154117Y299691D01*
X154025Y299858D01*
X154019Y299865D01*
X154015Y299873D01*
X153889Y300019D01*
X153764Y300165D01*
X153757Y300171D01*
X153751Y300178D01*
X153600Y300295D01*
X153448Y300415D01*
X153440Y300419D01*
X153433Y300424D01*
X153261Y300510D01*
X153089Y300597D01*
X153081Y300600D01*
X153073Y300604D01*
X152887Y300654D01*
X152702Y300705D01*
X152693Y300706D01*
X152684Y300708D01*
X152353Y300735D01*
X56341Y300735D01*
X54848Y301354D01*
X28304Y327898D01*
X27685Y329391D01*
X27685Y591359D01*
X28304Y592852D01*
X29733Y594282D01*
X46871Y611419D01*
X46885Y611437D01*
X46902Y611451D01*
X47012Y611592D01*
X47126Y611731D01*
X47136Y611751D01*
X47150Y611768D01*
X47231Y611928D01*
X47315Y612086D01*
X47321Y612108D01*
X47331Y612128D01*
X47378Y612301D01*
X47429Y612472D01*
X47431Y612495D01*
X47437Y612516D01*
X47449Y612694D01*
X47466Y612873D01*
X47463Y612896D01*
X47465Y612918D01*
X47442Y613094D01*
X47422Y613274D01*
X47416Y613295D01*
X47413Y613317D01*
X47311Y613633D01*
X46867Y614705D01*
X46867Y618795D01*
X48433Y622575D01*
X51325Y625467D01*
X55105Y627033D01*
X59195Y627033D01*
X62975Y625467D01*
X65867Y622575D01*
X67433Y618795D01*
X67433Y614705D01*
X65867Y610925D01*
X62975Y608033D01*
X59195Y606467D01*
X55094Y606467D01*
X54950Y606507D01*
X54779Y606559D01*
X54757Y606561D01*
X54735Y606567D01*
X54556Y606580D01*
X54378Y606597D01*
X54356Y606595D01*
X54334Y606596D01*
X54155Y606574D01*
X53978Y606555D01*
X53956Y606549D01*
X53934Y606546D01*
X53764Y606489D01*
X53593Y606436D01*
X53574Y606425D01*
X53553Y606418D01*
X53397Y606328D01*
X53240Y606242D01*
X53223Y606228D01*
X53204Y606217D01*
X52951Y606002D01*
X36410Y589461D01*
X36393Y589441D01*
X36372Y589423D01*
X36265Y589285D01*
X36155Y589150D01*
X36142Y589126D01*
X36126Y589105D01*
X36048Y588948D01*
X35966Y588794D01*
X35958Y588769D01*
X35946Y588744D01*
X35901Y588575D01*
X35851Y588408D01*
X35849Y588382D01*
X35842Y588356D01*
X35815Y588025D01*
X35815Y332725D01*
X35817Y332698D01*
X35815Y332672D01*
X35837Y332498D01*
X35855Y332324D01*
X35862Y332299D01*
X35866Y332272D01*
X35921Y332107D01*
X35973Y331940D01*
X35986Y331916D01*
X35994Y331891D01*
X36081Y331739D01*
X36165Y331585D01*
X36182Y331565D01*
X36195Y331542D01*
X36410Y331289D01*
X58239Y309460D01*
X58259Y309443D01*
X58277Y309422D01*
X58415Y309315D01*
X58550Y309205D01*
X58574Y309192D01*
X58595Y309176D01*
X58752Y309098D01*
X58906Y309016D01*
X58931Y309008D01*
X58956Y308996D01*
X59125Y308951D01*
X59292Y308901D01*
X59318Y308899D01*
X59344Y308892D01*
X59675Y308865D01*
X223059Y308865D01*
X224552Y308246D01*
X244167Y288632D01*
X244187Y288615D01*
X244205Y288594D01*
X244343Y288487D01*
X244478Y288377D01*
X244502Y288364D01*
X244523Y288348D01*
X244680Y288270D01*
X244834Y288188D01*
X244859Y288180D01*
X244884Y288168D01*
X245053Y288123D01*
X245220Y288073D01*
X245246Y288071D01*
X245272Y288064D01*
X245603Y288037D01*
X251227Y288037D01*
X252818Y286446D01*
X252825Y286441D01*
X252830Y286434D01*
X252980Y286314D01*
X253129Y286191D01*
X253137Y286187D01*
X253144Y286182D01*
X253314Y286093D01*
X253485Y286003D01*
X253494Y286000D01*
X253501Y285996D01*
X253686Y285943D01*
X253871Y285888D01*
X253880Y285887D01*
X253888Y285885D01*
X254079Y285869D01*
X254272Y285852D01*
X254281Y285853D01*
X254290Y285852D01*
X254479Y285874D01*
X254672Y285895D01*
X254681Y285898D01*
X254689Y285899D01*
X254871Y285958D01*
X255056Y286016D01*
X255064Y286021D01*
X255072Y286024D01*
X255241Y286119D01*
X255408Y286211D01*
X255415Y286217D01*
X255423Y286221D01*
X255569Y286347D01*
X255715Y286472D01*
X255721Y286479D01*
X255728Y286485D01*
X255845Y286636D01*
X255965Y286788D01*
X255969Y286796D01*
X255974Y286803D01*
X256060Y286975D01*
X256147Y287147D01*
X256150Y287155D01*
X256154Y287163D01*
X256204Y287349D01*
X256255Y287535D01*
X256256Y287543D01*
X256258Y287552D01*
X256285Y287883D01*
X256285Y302275D01*
X256283Y302302D01*
X256285Y302328D01*
X256263Y302502D01*
X256245Y302676D01*
X256238Y302701D01*
X256234Y302728D01*
X256179Y302893D01*
X256127Y303060D01*
X256114Y303084D01*
X256106Y303109D01*
X256019Y303261D01*
X255935Y303415D01*
X255918Y303435D01*
X255905Y303458D01*
X255690Y303711D01*
X199754Y359648D01*
X199135Y361141D01*
X199135Y400304D01*
X199133Y400322D01*
X199135Y400340D01*
X199114Y400522D01*
X199095Y400705D01*
X199090Y400722D01*
X199088Y400739D01*
X199031Y400914D01*
X198977Y401090D01*
X198969Y401105D01*
X198963Y401122D01*
X198873Y401282D01*
X198785Y401444D01*
X198774Y401457D01*
X198765Y401473D01*
X198645Y401612D01*
X198528Y401753D01*
X198514Y401764D01*
X198502Y401778D01*
X198357Y401890D01*
X198214Y402005D01*
X198198Y402013D01*
X198184Y402024D01*
X198019Y402106D01*
X197857Y402191D01*
X197840Y402196D01*
X197824Y402204D01*
X197645Y402251D01*
X197470Y402302D01*
X197452Y402304D01*
X197435Y402308D01*
X197104Y402335D01*
X75391Y402335D01*
X73898Y402954D01*
X53704Y423148D01*
X53085Y424641D01*
X53085Y447196D01*
X53083Y447219D01*
X53085Y447241D01*
X53063Y447418D01*
X53045Y447597D01*
X53039Y447618D01*
X53036Y447641D01*
X52980Y447810D01*
X52927Y447982D01*
X52917Y448002D01*
X52910Y448023D01*
X52821Y448178D01*
X52735Y448336D01*
X52721Y448353D01*
X52710Y448373D01*
X52592Y448508D01*
X52478Y448645D01*
X52460Y448659D01*
X52446Y448676D01*
X52303Y448786D01*
X52164Y448898D01*
X52144Y448908D01*
X52126Y448922D01*
X51831Y449073D01*
X51325Y449283D01*
X48433Y452175D01*
X46867Y455955D01*
X46867Y460045D01*
X48433Y463825D01*
X51325Y466717D01*
X52853Y467350D01*
X55105Y468283D01*
X59195Y468283D01*
X62975Y466717D01*
X65867Y463825D01*
X67433Y460045D01*
X67433Y455955D01*
X65867Y452175D01*
X62975Y449283D01*
X62469Y449073D01*
X62449Y449063D01*
X62428Y449056D01*
X62272Y448967D01*
X62114Y448883D01*
X62097Y448869D01*
X62077Y448858D01*
X61941Y448741D01*
X61803Y448627D01*
X61789Y448609D01*
X61772Y448595D01*
X61663Y448453D01*
X61550Y448314D01*
X61539Y448294D01*
X61526Y448277D01*
X61446Y448116D01*
X61363Y447957D01*
X61356Y447936D01*
X61346Y447916D01*
X61300Y447743D01*
X61250Y447571D01*
X61248Y447549D01*
X61242Y447527D01*
X61215Y447196D01*
X61215Y427975D01*
X61217Y427948D01*
X61215Y427922D01*
X61237Y427748D01*
X61255Y427574D01*
X61262Y427549D01*
X61266Y427522D01*
X61321Y427357D01*
X61373Y427190D01*
X61386Y427166D01*
X61394Y427141D01*
X61481Y426989D01*
X61565Y426835D01*
X61582Y426815D01*
X61595Y426792D01*
X61810Y426539D01*
X77289Y411060D01*
X77309Y411043D01*
X77327Y411022D01*
X77465Y410915D01*
X77600Y410805D01*
X77624Y410792D01*
X77645Y410776D01*
X77802Y410698D01*
X77956Y410616D01*
X77981Y410608D01*
X78006Y410596D01*
X78175Y410551D01*
X78342Y410501D01*
X78368Y410499D01*
X78394Y410492D01*
X78725Y410465D01*
X197104Y410465D01*
X197122Y410467D01*
X197140Y410465D01*
X197322Y410486D01*
X197505Y410505D01*
X197522Y410510D01*
X197539Y410512D01*
X197714Y410569D01*
X197890Y410623D01*
X197905Y410631D01*
X197922Y410637D01*
X198082Y410727D01*
X198244Y410815D01*
X198257Y410826D01*
X198273Y410835D01*
X198412Y410955D01*
X198553Y411072D01*
X198564Y411086D01*
X198578Y411098D01*
X198690Y411243D01*
X198805Y411386D01*
X198813Y411402D01*
X198824Y411416D01*
X198906Y411581D01*
X198991Y411743D01*
X198996Y411760D01*
X199004Y411776D01*
X199051Y411955D01*
X199102Y412130D01*
X199104Y412148D01*
X199108Y412165D01*
X199135Y412496D01*
X199135Y426095D01*
X199133Y426121D01*
X199135Y426148D01*
X199113Y426322D01*
X199095Y426495D01*
X199088Y426521D01*
X199084Y426547D01*
X199029Y426713D01*
X198977Y426880D01*
X198964Y426904D01*
X198956Y426929D01*
X198869Y427081D01*
X198785Y427234D01*
X198768Y427255D01*
X198755Y427278D01*
X198540Y427531D01*
X192385Y433686D01*
X192385Y442314D01*
X198486Y448415D01*
X207114Y448415D01*
X213215Y442314D01*
X213215Y433686D01*
X207860Y428331D01*
X207843Y428310D01*
X207822Y428293D01*
X207715Y428155D01*
X207605Y428020D01*
X207592Y427996D01*
X207576Y427975D01*
X207498Y427818D01*
X207416Y427664D01*
X207408Y427638D01*
X207396Y427614D01*
X207351Y427445D01*
X207301Y427278D01*
X207299Y427251D01*
X207292Y427225D01*
X207265Y426895D01*
X207265Y406800D01*
X207273Y406713D01*
X207282Y406534D01*
X207335Y406129D01*
X207334Y406123D01*
X207318Y406025D01*
X207292Y405928D01*
X207282Y405805D01*
X207269Y405726D01*
X207271Y405671D01*
X207265Y405597D01*
X207265Y364475D01*
X207267Y364448D01*
X207265Y364422D01*
X207287Y364248D01*
X207305Y364074D01*
X207312Y364049D01*
X207316Y364022D01*
X207371Y363857D01*
X207423Y363690D01*
X207436Y363666D01*
X207444Y363641D01*
X207531Y363489D01*
X207615Y363335D01*
X207632Y363315D01*
X207645Y363292D01*
X207860Y363039D01*
X263796Y307102D01*
X264415Y305609D01*
X264415Y287883D01*
X264416Y287874D01*
X264415Y287865D01*
X264435Y287674D01*
X264455Y287482D01*
X264457Y287474D01*
X264458Y287465D01*
X264516Y287281D01*
X264573Y287097D01*
X264577Y287089D01*
X264580Y287081D01*
X264673Y286912D01*
X264765Y286743D01*
X264770Y286736D01*
X264775Y286728D01*
X264900Y286581D01*
X265022Y286434D01*
X265029Y286428D01*
X265035Y286421D01*
X265186Y286302D01*
X265336Y286182D01*
X265344Y286177D01*
X265351Y286172D01*
X265524Y286084D01*
X265693Y285996D01*
X265702Y285994D01*
X265710Y285990D01*
X265896Y285938D01*
X266080Y285885D01*
X266089Y285884D01*
X266098Y285882D01*
X266290Y285868D01*
X266482Y285852D01*
X266490Y285853D01*
X266499Y285852D01*
X266691Y285876D01*
X266881Y285899D01*
X266890Y285902D01*
X266899Y285903D01*
X267081Y285964D01*
X267264Y286024D01*
X267272Y286028D01*
X267280Y286031D01*
X267448Y286127D01*
X267615Y286221D01*
X267622Y286227D01*
X267629Y286232D01*
X267882Y286446D01*
X268390Y286955D01*
X268407Y286975D01*
X268428Y286993D01*
X268535Y287131D01*
X268645Y287266D01*
X268658Y287290D01*
X268674Y287311D01*
X268752Y287468D01*
X268834Y287622D01*
X268842Y287647D01*
X268854Y287671D01*
X268899Y287841D01*
X268949Y288008D01*
X268951Y288034D01*
X268958Y288060D01*
X268985Y288391D01*
X268985Y308625D01*
X268983Y308652D01*
X268985Y308678D01*
X268963Y308852D01*
X268945Y309026D01*
X268938Y309051D01*
X268934Y309078D01*
X268879Y309243D01*
X268827Y309410D01*
X268814Y309434D01*
X268806Y309459D01*
X268719Y309611D01*
X268635Y309765D01*
X268618Y309785D01*
X268605Y309808D01*
X268390Y310061D01*
X244204Y334248D01*
X243585Y335741D01*
X243585Y489847D01*
X243584Y489856D01*
X243585Y489864D01*
X243564Y490056D01*
X243545Y490247D01*
X243543Y490256D01*
X243542Y490265D01*
X243484Y490447D01*
X243427Y490632D01*
X243423Y490640D01*
X243420Y490649D01*
X243327Y490817D01*
X243235Y490986D01*
X243230Y490993D01*
X243225Y491001D01*
X243100Y491149D01*
X242978Y491296D01*
X242971Y491301D01*
X242965Y491308D01*
X242813Y491428D01*
X242664Y491548D01*
X242656Y491552D01*
X242649Y491558D01*
X242477Y491645D01*
X242307Y491733D01*
X242298Y491736D01*
X242290Y491740D01*
X242104Y491792D01*
X241920Y491845D01*
X241911Y491845D01*
X241902Y491848D01*
X241710Y491862D01*
X241518Y491878D01*
X241510Y491877D01*
X241501Y491877D01*
X241308Y491853D01*
X241119Y491831D01*
X241110Y491828D01*
X241101Y491827D01*
X240918Y491765D01*
X240736Y491706D01*
X240728Y491701D01*
X240720Y491699D01*
X240554Y491603D01*
X240385Y491508D01*
X240378Y491502D01*
X240371Y491498D01*
X240118Y491283D01*
X239222Y490387D01*
X206378Y490387D01*
X205187Y491578D01*
X205187Y524422D01*
X206378Y525613D01*
X239222Y525613D01*
X240118Y524717D01*
X240125Y524711D01*
X240130Y524704D01*
X240281Y524583D01*
X240429Y524462D01*
X240437Y524458D01*
X240444Y524452D01*
X240614Y524364D01*
X240785Y524273D01*
X240794Y524271D01*
X240801Y524267D01*
X240986Y524214D01*
X241171Y524159D01*
X241180Y524158D01*
X241188Y524155D01*
X241379Y524140D01*
X241572Y524122D01*
X241581Y524123D01*
X241590Y524122D01*
X241779Y524145D01*
X241972Y524166D01*
X241981Y524168D01*
X241989Y524169D01*
X242171Y524229D01*
X242356Y524287D01*
X242364Y524291D01*
X242372Y524294D01*
X242539Y524388D01*
X242708Y524482D01*
X242715Y524488D01*
X242723Y524492D01*
X242868Y524617D01*
X243015Y524742D01*
X243021Y524749D01*
X243028Y524755D01*
X243144Y524906D01*
X243265Y525058D01*
X243269Y525066D01*
X243274Y525073D01*
X243359Y525244D01*
X243447Y525417D01*
X243450Y525426D01*
X243454Y525434D01*
X243503Y525619D01*
X243555Y525805D01*
X243556Y525814D01*
X243558Y525823D01*
X243585Y526153D01*
X243585Y575325D01*
X243583Y575352D01*
X243585Y575378D01*
X243563Y575552D01*
X243545Y575726D01*
X243538Y575751D01*
X243534Y575778D01*
X243479Y575943D01*
X243427Y576111D01*
X243414Y576134D01*
X243406Y576159D01*
X243319Y576311D01*
X243235Y576465D01*
X243218Y576485D01*
X243205Y576508D01*
X242990Y576761D01*
X99583Y720168D01*
X99583Y720169D01*
X98154Y721598D01*
X97535Y723091D01*
X97535Y753125D01*
X97533Y753152D01*
X97535Y753178D01*
X97513Y753352D01*
X97495Y753526D01*
X97488Y753551D01*
X97484Y753578D01*
X97429Y753743D01*
X97377Y753910D01*
X97364Y753934D01*
X97356Y753959D01*
X97269Y754111D01*
X97185Y754265D01*
X97168Y754285D01*
X97155Y754308D01*
X96940Y754561D01*
X84509Y766992D01*
X84489Y767009D01*
X84471Y767030D01*
X84333Y767137D01*
X84198Y767247D01*
X84174Y767260D01*
X84153Y767276D01*
X83996Y767354D01*
X83842Y767436D01*
X83817Y767444D01*
X83792Y767456D01*
X83623Y767501D01*
X83456Y767551D01*
X83430Y767553D01*
X83404Y767560D01*
X83073Y767587D01*
X81135Y767587D01*
X78521Y768670D01*
X76520Y770671D01*
X75437Y773285D01*
X75437Y776115D01*
X76520Y778729D01*
X78521Y780730D01*
X81135Y781813D01*
X83965Y781813D01*
X86579Y780730D01*
X88580Y778729D01*
X89663Y776115D01*
X89663Y774177D01*
X89665Y774150D01*
X89663Y774124D01*
X89685Y773950D01*
X89703Y773776D01*
X89710Y773751D01*
X89714Y773724D01*
X89769Y773559D01*
X89821Y773392D01*
X89834Y773368D01*
X89842Y773343D01*
X89929Y773191D01*
X90013Y773037D01*
X90030Y773017D01*
X90043Y772994D01*
X90258Y772741D01*
X105046Y757952D01*
X105665Y756459D01*
X105665Y726425D01*
X105667Y726398D01*
X105665Y726372D01*
X105687Y726198D01*
X105705Y726024D01*
X105712Y725999D01*
X105716Y725972D01*
X105771Y725807D01*
X105823Y725639D01*
X105836Y725616D01*
X105844Y725591D01*
X105931Y725439D01*
X106015Y725285D01*
X106032Y725265D01*
X106045Y725242D01*
X106260Y724989D01*
X249667Y581582D01*
X249667Y581581D01*
X251096Y580152D01*
X251715Y578659D01*
X251715Y339075D01*
X251717Y339048D01*
X251715Y339022D01*
X251737Y338848D01*
X251755Y338674D01*
X251762Y338649D01*
X251766Y338622D01*
X251821Y338457D01*
X251873Y338290D01*
X251886Y338266D01*
X251894Y338241D01*
X251981Y338089D01*
X252065Y337935D01*
X252082Y337915D01*
X252095Y337892D01*
X252310Y337639D01*
X275067Y314882D01*
X275067Y314881D01*
X276496Y313452D01*
X277115Y311959D01*
X277115Y288391D01*
X277117Y288364D01*
X277115Y288338D01*
X277137Y288164D01*
X277155Y287990D01*
X277162Y287965D01*
X277166Y287938D01*
X277221Y287772D01*
X277273Y287605D01*
X277286Y287582D01*
X277294Y287556D01*
X277381Y287405D01*
X277465Y287251D01*
X277482Y287231D01*
X277495Y287208D01*
X277710Y286955D01*
X281687Y282977D01*
X281687Y275823D01*
X276627Y270763D01*
X269473Y270763D01*
X267882Y272354D01*
X267875Y272359D01*
X267870Y272366D01*
X267720Y272486D01*
X267571Y272609D01*
X267563Y272613D01*
X267556Y272618D01*
X267386Y272707D01*
X267215Y272797D01*
X267206Y272800D01*
X267199Y272804D01*
X267014Y272857D01*
X266829Y272912D01*
X266820Y272913D01*
X266812Y272915D01*
X266621Y272931D01*
X266428Y272948D01*
X266419Y272947D01*
X266410Y272948D01*
X266221Y272926D01*
X266028Y272905D01*
X266019Y272902D01*
X266011Y272901D01*
X265829Y272842D01*
X265644Y272784D01*
X265636Y272779D01*
X265628Y272776D01*
X265459Y272681D01*
X265292Y272589D01*
X265285Y272583D01*
X265277Y272579D01*
X265131Y272453D01*
X264985Y272328D01*
X264979Y272321D01*
X264972Y272315D01*
X264855Y272164D01*
X264735Y272012D01*
X264731Y272004D01*
X264726Y271997D01*
X264640Y271825D01*
X264553Y271653D01*
X264550Y271645D01*
X264546Y271637D01*
X264496Y271451D01*
X264445Y271265D01*
X264444Y271257D01*
X264442Y271248D01*
X264415Y270917D01*
X264415Y250175D01*
X264417Y250148D01*
X264415Y250122D01*
X264437Y249948D01*
X264455Y249774D01*
X264462Y249749D01*
X264466Y249722D01*
X264521Y249557D01*
X264573Y249390D01*
X264586Y249366D01*
X264594Y249341D01*
X264681Y249189D01*
X264765Y249035D01*
X264782Y249015D01*
X264795Y248992D01*
X265010Y248739D01*
X276496Y237252D01*
X277115Y235759D01*
X277115Y212191D01*
X277117Y212164D01*
X277115Y212138D01*
X277137Y211964D01*
X277155Y211790D01*
X277162Y211765D01*
X277166Y211738D01*
X277221Y211572D01*
X277273Y211405D01*
X277286Y211382D01*
X277294Y211356D01*
X277381Y211205D01*
X277465Y211051D01*
X277482Y211031D01*
X277495Y211008D01*
X277710Y210755D01*
X281687Y206777D01*
X281687Y199623D01*
X276627Y194563D01*
X269473Y194563D01*
X264413Y199623D01*
X264413Y206777D01*
X268390Y210755D01*
X268407Y210775D01*
X268428Y210793D01*
X268535Y210931D01*
X268645Y211066D01*
X268658Y211090D01*
X268674Y211111D01*
X268752Y211268D01*
X268834Y211422D01*
X268842Y211447D01*
X268854Y211471D01*
X268899Y211641D01*
X268949Y211808D01*
X268951Y211834D01*
X268958Y211860D01*
X268985Y212191D01*
X268985Y232425D01*
X268983Y232452D01*
X268985Y232478D01*
X268963Y232652D01*
X268945Y232826D01*
X268938Y232851D01*
X268934Y232878D01*
X268879Y233043D01*
X268827Y233210D01*
X268814Y233234D01*
X268806Y233259D01*
X268719Y233411D01*
X268635Y233565D01*
X268618Y233585D01*
X268605Y233608D01*
X268390Y233861D01*
X258333Y243918D01*
X258333Y243919D01*
X256904Y245348D01*
X256285Y246841D01*
X256285Y270917D01*
X256284Y270926D01*
X256285Y270935D01*
X256264Y271127D01*
X256245Y271318D01*
X256243Y271326D01*
X256242Y271335D01*
X256184Y271518D01*
X256127Y271703D01*
X256123Y271711D01*
X256120Y271719D01*
X256027Y271888D01*
X255935Y272057D01*
X255930Y272064D01*
X255925Y272071D01*
X255800Y272219D01*
X255678Y272366D01*
X255671Y272372D01*
X255665Y272378D01*
X255513Y272498D01*
X255364Y272618D01*
X255356Y272622D01*
X255349Y272628D01*
X255178Y272715D01*
X255007Y272804D01*
X254998Y272806D01*
X254990Y272810D01*
X254804Y272862D01*
X254620Y272915D01*
X254611Y272916D01*
X254602Y272918D01*
X254410Y272933D01*
X254218Y272948D01*
X254210Y272947D01*
X254201Y272948D01*
X254008Y272923D01*
X253819Y272901D01*
X253810Y272899D01*
X253801Y272897D01*
X253618Y272836D01*
X253436Y272776D01*
X253428Y272772D01*
X253420Y272769D01*
X253254Y272674D01*
X253085Y272579D01*
X253078Y272573D01*
X253071Y272568D01*
X252818Y272354D01*
X251227Y270763D01*
X244073Y270763D01*
X239013Y275823D01*
X239013Y281447D01*
X239011Y281474D01*
X239013Y281500D01*
X238991Y281674D01*
X238973Y281848D01*
X238966Y281873D01*
X238962Y281900D01*
X238907Y282065D01*
X238855Y282232D01*
X238842Y282256D01*
X238834Y282281D01*
X238747Y282433D01*
X238663Y282587D01*
X238646Y282607D01*
X238633Y282630D01*
X238418Y282883D01*
X221161Y300140D01*
X221141Y300157D01*
X221123Y300178D01*
X220985Y300285D01*
X220850Y300395D01*
X220826Y300408D01*
X220805Y300424D01*
X220648Y300502D01*
X220494Y300584D01*
X220469Y300592D01*
X220444Y300604D01*
X220275Y300649D01*
X220108Y300699D01*
X220082Y300701D01*
X220056Y300708D01*
X219725Y300735D01*
X203247Y300735D01*
X203238Y300734D01*
X203229Y300735D01*
X203037Y300714D01*
X202846Y300695D01*
X202838Y300693D01*
X202829Y300692D01*
X202646Y300634D01*
X202461Y300577D01*
X202453Y300573D01*
X202445Y300570D01*
X202276Y300477D01*
X202107Y300385D01*
X202100Y300380D01*
X202092Y300375D01*
X201946Y300251D01*
X201798Y300128D01*
X201792Y300121D01*
X201786Y300115D01*
X201666Y299964D01*
X201546Y299814D01*
X201541Y299806D01*
X201536Y299799D01*
X201448Y299626D01*
X201360Y299457D01*
X201358Y299448D01*
X201354Y299440D01*
X201302Y299254D01*
X201249Y299070D01*
X201248Y299061D01*
X201246Y299052D01*
X201231Y298859D01*
X201216Y298668D01*
X201217Y298660D01*
X201216Y298651D01*
X201241Y298456D01*
X201263Y298269D01*
X201265Y298260D01*
X201267Y298251D01*
X201328Y298068D01*
X201388Y297886D01*
X201392Y297878D01*
X201395Y297870D01*
X201490Y297704D01*
X201585Y297535D01*
X201591Y297528D01*
X201596Y297521D01*
X201810Y297268D01*
X204515Y294563D01*
X206884Y288845D01*
X206884Y282655D01*
X204515Y276937D01*
X200139Y272560D01*
X194420Y270192D01*
X161180Y270192D01*
X155461Y272560D01*
X151085Y276937D01*
X149637Y280431D01*
X149627Y280451D01*
X149620Y280472D01*
X149532Y280629D01*
X149447Y280786D01*
X149433Y280803D01*
X149422Y280823D01*
X149305Y280959D01*
X149191Y281097D01*
X149174Y281111D01*
X149159Y281128D01*
X149018Y281237D01*
X148878Y281350D01*
X148858Y281361D01*
X148841Y281374D01*
X148680Y281454D01*
X148522Y281537D01*
X148500Y281544D01*
X148480Y281554D01*
X148307Y281600D01*
X148135Y281650D01*
X148113Y281652D01*
X148092Y281658D01*
X147761Y281685D01*
X142225Y281685D01*
X142198Y281683D01*
X142172Y281685D01*
X141998Y281663D01*
X141824Y281645D01*
X141799Y281638D01*
X141772Y281634D01*
X141607Y281579D01*
X141440Y281527D01*
X141416Y281514D01*
X141391Y281506D01*
X141239Y281419D01*
X141085Y281335D01*
X141065Y281318D01*
X141042Y281305D01*
X140789Y281090D01*
X131660Y271961D01*
X131643Y271941D01*
X131622Y271923D01*
X131515Y271785D01*
X131405Y271650D01*
X131392Y271626D01*
X131376Y271605D01*
X131298Y271448D01*
X131216Y271294D01*
X131208Y271269D01*
X131196Y271244D01*
X131151Y271075D01*
X131101Y270908D01*
X131099Y270882D01*
X131092Y270856D01*
X131065Y270525D01*
X131065Y154925D01*
X131067Y154898D01*
X131065Y154872D01*
X131087Y154698D01*
X131105Y154524D01*
X131112Y154499D01*
X131116Y154472D01*
X131171Y154307D01*
X131223Y154140D01*
X131236Y154116D01*
X131244Y154091D01*
X131331Y153939D01*
X131415Y153785D01*
X131432Y153765D01*
X131445Y153742D01*
X131660Y153489D01*
X168546Y116602D01*
X169165Y115109D01*
X169165Y30405D01*
X169167Y30379D01*
X169165Y30352D01*
X169187Y30178D01*
X169205Y30005D01*
X169212Y29979D01*
X169216Y29952D01*
X169272Y29787D01*
X169323Y29620D01*
X169336Y29596D01*
X169344Y29571D01*
X169431Y29419D01*
X169515Y29266D01*
X169532Y29245D01*
X169545Y29222D01*
X169760Y28969D01*
X175515Y23214D01*
X175515Y14586D01*
X174557Y13628D01*
X174551Y13621D01*
X174544Y13616D01*
X174423Y13465D01*
X174302Y13317D01*
X174298Y13309D01*
X174292Y13302D01*
X174204Y13132D01*
X174113Y12961D01*
X174111Y12952D01*
X174107Y12945D01*
X174054Y12760D01*
X173998Y12575D01*
X173998Y12566D01*
X173995Y12558D01*
X173980Y12367D01*
X173962Y12174D01*
X173963Y12165D01*
X173962Y12156D01*
X173985Y11967D01*
X174005Y11774D01*
X174008Y11765D01*
X174009Y11757D01*
X174069Y11575D01*
X174127Y11390D01*
X174131Y11382D01*
X174134Y11374D01*
X174228Y11207D01*
X174322Y11038D01*
X174328Y11031D01*
X174332Y11023D01*
X174457Y10878D01*
X174582Y10731D01*
X174589Y10725D01*
X174595Y10718D01*
X174746Y10602D01*
X174898Y10481D01*
X174906Y10477D01*
X174913Y10472D01*
X175084Y10387D01*
X175257Y10299D01*
X175266Y10296D01*
X175274Y10292D01*
X175459Y10243D01*
X175645Y10191D01*
X175654Y10190D01*
X175663Y10188D01*
X175993Y10161D01*
X179207Y10161D01*
X179216Y10162D01*
X179225Y10161D01*
X179416Y10182D01*
X179607Y10201D01*
X179616Y10203D01*
X179625Y10204D01*
X179807Y10262D01*
X179992Y10319D01*
X180000Y10323D01*
X180009Y10326D01*
X180177Y10419D01*
X180346Y10511D01*
X180353Y10516D01*
X180361Y10521D01*
X180509Y10646D01*
X180656Y10768D01*
X180661Y10775D01*
X180668Y10781D01*
X180788Y10933D01*
X180908Y11082D01*
X180912Y11090D01*
X180918Y11097D01*
X181005Y11269D01*
X181093Y11439D01*
X181096Y11448D01*
X181100Y11456D01*
X181152Y11642D01*
X181205Y11826D01*
X181206Y11835D01*
X181208Y11844D01*
X181222Y12036D01*
X181238Y12228D01*
X181237Y12236D01*
X181237Y12245D01*
X181213Y12438D01*
X181191Y12627D01*
X181188Y12636D01*
X181187Y12645D01*
X181126Y12828D01*
X181066Y13010D01*
X181062Y13018D01*
X181059Y13026D01*
X180963Y13192D01*
X180868Y13361D01*
X180862Y13368D01*
X180858Y13375D01*
X180643Y13628D01*
X179685Y14586D01*
X179685Y23214D01*
X185786Y29315D01*
X194414Y29315D01*
X200515Y23214D01*
X200515Y14586D01*
X199557Y13628D01*
X199551Y13621D01*
X199544Y13616D01*
X199423Y13465D01*
X199302Y13317D01*
X199298Y13309D01*
X199292Y13302D01*
X199204Y13132D01*
X199113Y12961D01*
X199111Y12952D01*
X199107Y12945D01*
X199054Y12760D01*
X198998Y12575D01*
X198998Y12566D01*
X198995Y12558D01*
X198980Y12367D01*
X198962Y12174D01*
X198963Y12165D01*
X198962Y12156D01*
X198985Y11967D01*
X199005Y11774D01*
X199008Y11765D01*
X199009Y11757D01*
X199069Y11575D01*
X199127Y11390D01*
X199131Y11382D01*
X199134Y11374D01*
X199228Y11207D01*
X199322Y11038D01*
X199328Y11031D01*
X199332Y11023D01*
X199457Y10878D01*
X199582Y10731D01*
X199589Y10725D01*
X199595Y10718D01*
X199746Y10602D01*
X199898Y10481D01*
X199906Y10477D01*
X199913Y10472D01*
X200084Y10387D01*
X200257Y10299D01*
X200266Y10296D01*
X200274Y10292D01*
X200459Y10243D01*
X200645Y10191D01*
X200654Y10190D01*
X200663Y10188D01*
X200993Y10161D01*
X337058Y10161D01*
X337076Y10163D01*
X337094Y10161D01*
X337276Y10182D01*
X337459Y10201D01*
X337476Y10206D01*
X337493Y10208D01*
X337668Y10265D01*
X337844Y10319D01*
X337859Y10327D01*
X337876Y10333D01*
X338036Y10423D01*
X338198Y10511D01*
X338211Y10522D01*
X338227Y10531D01*
X338366Y10651D01*
X338507Y10768D01*
X338518Y10782D01*
X338532Y10794D01*
X338644Y10939D01*
X338759Y11082D01*
X338767Y11098D01*
X338778Y11112D01*
X338860Y11277D01*
X338945Y11439D01*
X338950Y11456D01*
X338958Y11472D01*
X339005Y11651D01*
X339056Y11826D01*
X339058Y11844D01*
X339062Y11861D01*
X339089Y12192D01*
X339089Y840568D01*
X339088Y840581D01*
X339089Y840595D01*
X339068Y840781D01*
X339049Y840969D01*
X339045Y840981D01*
X339044Y840995D01*
X338986Y841174D01*
X338931Y841354D01*
X338925Y841365D01*
X338921Y841378D01*
X338829Y841543D01*
X338739Y841708D01*
X338731Y841718D01*
X338724Y841730D01*
X338602Y841872D01*
X338482Y842017D01*
X338471Y842025D01*
X338463Y842035D01*
X338315Y842151D01*
X338168Y842269D01*
X338156Y842275D01*
X338146Y842284D01*
X337977Y842368D01*
X337811Y842455D01*
X337798Y842458D01*
X337786Y842464D01*
X337605Y842514D01*
X337424Y842566D01*
X337410Y842567D01*
X337397Y842571D01*
X337209Y842584D01*
X337022Y842599D01*
X337009Y842597D01*
X336996Y842598D01*
X336808Y842574D01*
X336623Y842552D01*
X336610Y842548D01*
X336597Y842546D01*
X336281Y842445D01*
X333390Y841247D01*
X314310Y841247D01*
X310762Y842717D01*
X308047Y845432D01*
X306577Y848980D01*
X306577Y852820D01*
X308047Y856368D01*
X310762Y859083D01*
X311482Y859381D01*
X314310Y860553D01*
X333390Y860553D01*
X336281Y859355D01*
X336294Y859351D01*
X336305Y859345D01*
X336485Y859294D01*
X336666Y859239D01*
X336679Y859238D01*
X336692Y859234D01*
X336880Y859219D01*
X337067Y859201D01*
X337080Y859202D01*
X337094Y859201D01*
X337280Y859223D01*
X337467Y859242D01*
X337480Y859246D01*
X337493Y859248D01*
X337672Y859306D01*
X337852Y859362D01*
X337863Y859369D01*
X337876Y859373D01*
X338041Y859466D01*
X338205Y859556D01*
X338215Y859564D01*
X338227Y859571D01*
X338369Y859694D01*
X338513Y859815D01*
X338521Y859825D01*
X338532Y859834D01*
X338647Y859982D01*
X338764Y860130D01*
X338770Y860141D01*
X338778Y860152D01*
X338862Y860321D01*
X338948Y860488D01*
X338952Y860500D01*
X338958Y860513D01*
X339007Y860695D01*
X339058Y860875D01*
X339059Y860888D01*
X339062Y860901D01*
X339089Y861232D01*
X339089Y865968D01*
X339088Y865981D01*
X339089Y865995D01*
X339068Y866181D01*
X339049Y866369D01*
X339045Y866381D01*
X339044Y866395D01*
X338986Y866574D01*
X338931Y866754D01*
X338925Y866765D01*
X338921Y866778D01*
X338829Y866943D01*
X338739Y867108D01*
X338731Y867118D01*
X338724Y867130D01*
X338602Y867272D01*
X338482Y867417D01*
X338471Y867425D01*
X338463Y867435D01*
X338315Y867551D01*
X338168Y867669D01*
X338156Y867675D01*
X338146Y867684D01*
X337977Y867768D01*
X337811Y867855D01*
X337798Y867858D01*
X337786Y867864D01*
X337605Y867914D01*
X337424Y867966D01*
X337410Y867967D01*
X337397Y867971D01*
X337209Y867984D01*
X337022Y867999D01*
X337009Y867997D01*
X336996Y867998D01*
X336808Y867974D01*
X336623Y867952D01*
X336610Y867948D01*
X336597Y867946D01*
X336281Y867845D01*
X333390Y866647D01*
X314310Y866647D01*
X310762Y868117D01*
X308047Y870832D01*
X306577Y874380D01*
X306577Y878220D01*
X308047Y881768D01*
X310762Y884483D01*
X314310Y885953D01*
X333390Y885953D01*
X336281Y884755D01*
X336294Y884751D01*
X336305Y884745D01*
X336485Y884694D01*
X336666Y884639D01*
X336679Y884638D01*
X336692Y884634D01*
X336880Y884619D01*
X337067Y884601D01*
X337080Y884602D01*
X337094Y884601D01*
X337280Y884623D01*
X337467Y884642D01*
X337480Y884646D01*
X337493Y884648D01*
X337672Y884706D01*
X337852Y884762D01*
X337863Y884769D01*
X337876Y884773D01*
X338041Y884866D01*
X338205Y884956D01*
X338215Y884964D01*
X338227Y884971D01*
X338369Y885094D01*
X338513Y885215D01*
X338521Y885225D01*
X338532Y885234D01*
X338647Y885382D01*
X338764Y885530D01*
X338770Y885541D01*
X338778Y885552D01*
X338862Y885721D01*
X338948Y885888D01*
X338952Y885900D01*
X338958Y885913D01*
X339007Y886095D01*
X339058Y886275D01*
X339059Y886288D01*
X339062Y886301D01*
X339089Y886632D01*
X339089Y891368D01*
X339088Y891381D01*
X339089Y891395D01*
X339068Y891581D01*
X339049Y891769D01*
X339045Y891781D01*
X339044Y891795D01*
X338986Y891974D01*
X338931Y892154D01*
X338925Y892165D01*
X338921Y892178D01*
X338829Y892343D01*
X338739Y892508D01*
X338731Y892518D01*
X338724Y892530D01*
X338602Y892672D01*
X338482Y892817D01*
X338471Y892825D01*
X338463Y892835D01*
X338315Y892951D01*
X338168Y893069D01*
X338156Y893075D01*
X338146Y893084D01*
X337977Y893168D01*
X337811Y893255D01*
X337798Y893258D01*
X337786Y893264D01*
X337605Y893314D01*
X337424Y893366D01*
X337410Y893367D01*
X337397Y893371D01*
X337209Y893384D01*
X337022Y893399D01*
X337009Y893397D01*
X336996Y893398D01*
X336808Y893374D01*
X336623Y893352D01*
X336610Y893348D01*
X336597Y893346D01*
X336281Y893245D01*
X333390Y892047D01*
X314310Y892047D01*
X310762Y893517D01*
X308047Y896232D01*
X306577Y899780D01*
X306577Y903620D01*
X308047Y907168D01*
X310762Y909883D01*
X314310Y911353D01*
X333390Y911353D01*
X336281Y910155D01*
X336294Y910151D01*
X336305Y910145D01*
X336319Y910141D01*
X336330Y910136D01*
X336448Y910104D01*
X336485Y910094D01*
X336666Y910039D01*
X336679Y910038D01*
X336692Y910034D01*
X336717Y910032D01*
X336718Y910032D01*
X336898Y910017D01*
X337067Y910001D01*
X337080Y910002D01*
X337094Y910001D01*
X337280Y910023D01*
X337467Y910042D01*
X337480Y910046D01*
X337493Y910048D01*
X337672Y910106D01*
X337852Y910162D01*
X337863Y910169D01*
X337876Y910173D01*
X338041Y910266D01*
X338205Y910356D01*
X338215Y910364D01*
X338227Y910371D01*
X338369Y910494D01*
X338513Y910615D01*
X338521Y910625D01*
X338532Y910634D01*
X338647Y910782D01*
X338764Y910930D01*
X338770Y910941D01*
X338778Y910952D01*
X338862Y911121D01*
X338948Y911288D01*
X338952Y911300D01*
X338958Y911313D01*
X339007Y911495D01*
X339058Y911675D01*
X339059Y911688D01*
X339062Y911701D01*
X339089Y912032D01*
X339089Y916768D01*
X339088Y916781D01*
X339089Y916795D01*
X339068Y916981D01*
X339049Y917169D01*
X339045Y917181D01*
X339044Y917195D01*
X338986Y917374D01*
X338931Y917554D01*
X338925Y917565D01*
X338921Y917578D01*
X338829Y917743D01*
X338739Y917908D01*
X338731Y917918D01*
X338724Y917930D01*
X338602Y918072D01*
X338482Y918217D01*
X338471Y918225D01*
X338463Y918235D01*
X338315Y918351D01*
X338168Y918469D01*
X338156Y918475D01*
X338146Y918484D01*
X337977Y918568D01*
X337811Y918655D01*
X337798Y918658D01*
X337786Y918664D01*
X337605Y918714D01*
X337424Y918766D01*
X337410Y918767D01*
X337397Y918771D01*
X337209Y918784D01*
X337022Y918799D01*
X337009Y918797D01*
X336996Y918798D01*
X336808Y918774D01*
X336623Y918752D01*
X336610Y918748D01*
X336597Y918746D01*
X336281Y918645D01*
X333390Y917447D01*
X314310Y917447D01*
X310762Y918917D01*
X308047Y921632D01*
X306577Y925180D01*
X306577Y929020D01*
X308047Y932568D01*
X310762Y935283D01*
X314310Y936753D01*
X333390Y936753D01*
X336281Y935555D01*
X336294Y935551D01*
X336305Y935545D01*
X336485Y935494D01*
X336666Y935439D01*
X336679Y935438D01*
X336692Y935434D01*
X336880Y935419D01*
X337067Y935401D01*
X337080Y935402D01*
X337094Y935401D01*
X337280Y935423D01*
X337467Y935442D01*
X337480Y935446D01*
X337493Y935448D01*
X337672Y935506D01*
X337852Y935562D01*
X337863Y935569D01*
X337876Y935573D01*
X338041Y935666D01*
X338205Y935756D01*
X338215Y935764D01*
X338227Y935771D01*
X338369Y935894D01*
X338513Y936015D01*
X338521Y936025D01*
X338532Y936034D01*
X338647Y936182D01*
X338764Y936330D01*
X338770Y936341D01*
X338778Y936352D01*
X338862Y936521D01*
X338948Y936688D01*
X338952Y936700D01*
X338958Y936713D01*
X339007Y936895D01*
X339058Y937075D01*
X339059Y937088D01*
X339062Y937101D01*
X339089Y937432D01*
X339089Y942168D01*
X339088Y942181D01*
X339089Y942195D01*
X339068Y942381D01*
X339049Y942569D01*
X339045Y942581D01*
X339044Y942595D01*
X338986Y942774D01*
X338931Y942954D01*
X338925Y942965D01*
X338921Y942978D01*
X338829Y943143D01*
X338739Y943308D01*
X338731Y943318D01*
X338724Y943330D01*
X338602Y943472D01*
X338482Y943617D01*
X338471Y943625D01*
X338463Y943635D01*
X338315Y943751D01*
X338168Y943869D01*
X338156Y943875D01*
X338146Y943884D01*
X337977Y943968D01*
X337811Y944055D01*
X337798Y944058D01*
X337786Y944064D01*
X337605Y944114D01*
X337424Y944166D01*
X337410Y944167D01*
X337397Y944171D01*
X337209Y944184D01*
X337022Y944199D01*
X337009Y944197D01*
X336996Y944198D01*
X336808Y944174D01*
X336623Y944152D01*
X336610Y944148D01*
X336597Y944146D01*
X336281Y944045D01*
X333390Y942847D01*
X314310Y942847D01*
X310762Y944317D01*
X308047Y947032D01*
X306577Y950580D01*
X306577Y954420D01*
X308047Y957968D01*
X310762Y960683D01*
X314310Y962153D01*
X333390Y962153D01*
X336281Y960955D01*
X336294Y960951D01*
X336305Y960945D01*
X336485Y960894D01*
X336666Y960839D01*
X336679Y960838D01*
X336692Y960834D01*
X336880Y960819D01*
X337067Y960801D01*
X337080Y960802D01*
X337094Y960801D01*
X337280Y960823D01*
X337467Y960842D01*
X337480Y960846D01*
X337493Y960848D01*
X337672Y960906D01*
X337852Y960962D01*
X337863Y960969D01*
X337876Y960973D01*
X338041Y961066D01*
X338205Y961156D01*
X338215Y961164D01*
X338227Y961171D01*
X338369Y961294D01*
X338513Y961415D01*
X338521Y961425D01*
X338532Y961434D01*
X338647Y961582D01*
X338764Y961730D01*
X338770Y961741D01*
X338778Y961752D01*
X338862Y961921D01*
X338948Y962088D01*
X338952Y962100D01*
X338958Y962113D01*
X339007Y962295D01*
X339058Y962475D01*
X339059Y962488D01*
X339062Y962501D01*
X339089Y962832D01*
X339089Y967064D01*
X339080Y967157D01*
X339081Y967250D01*
X339060Y967357D01*
X339049Y967464D01*
X339022Y967554D01*
X339004Y967645D01*
X338963Y967746D01*
X338931Y967849D01*
X338887Y967931D01*
X338851Y968018D01*
X338791Y968108D01*
X338739Y968203D01*
X338680Y968275D01*
X338628Y968353D01*
X338551Y968429D01*
X338482Y968513D01*
X338409Y968571D01*
X338343Y968637D01*
X338252Y968697D01*
X338168Y968765D01*
X338085Y968808D01*
X338008Y968860D01*
X337907Y968901D01*
X337811Y968951D01*
X337721Y968976D01*
X337635Y969012D01*
X337528Y969032D01*
X337424Y969062D01*
X337331Y969070D01*
X337239Y969087D01*
X337131Y969086D01*
X337022Y969095D01*
X336930Y969084D01*
X336837Y969083D01*
X336730Y969061D01*
X336623Y969048D01*
X336534Y969019D01*
X336443Y969000D01*
X336319Y968949D01*
X336240Y968923D01*
X336197Y968899D01*
X336136Y968874D01*
X335370Y968484D01*
X333849Y967989D01*
X332270Y967739D01*
X326389Y967739D01*
X326389Y977392D01*
X326387Y977410D01*
X326389Y977427D01*
X326368Y977610D01*
X326349Y977792D01*
X326344Y977809D01*
X326342Y977827D01*
X326285Y978002D01*
X326231Y978177D01*
X326223Y978193D01*
X326217Y978210D01*
X326127Y978370D01*
X326039Y978531D01*
X326028Y978545D01*
X326019Y978561D01*
X325899Y978700D01*
X325782Y978841D01*
X325768Y978852D01*
X325756Y978865D01*
X325611Y978978D01*
X325468Y979093D01*
X325452Y979101D01*
X325438Y979112D01*
X325273Y979194D01*
X325197Y979234D01*
X325111Y979386D01*
X325023Y979548D01*
X325012Y979561D01*
X325003Y979577D01*
X324883Y979716D01*
X324765Y979857D01*
X324752Y979868D01*
X324740Y979882D01*
X324595Y979994D01*
X324452Y980109D01*
X324436Y980117D01*
X324422Y980128D01*
X324257Y980210D01*
X324094Y980295D01*
X324077Y980300D01*
X324061Y980308D01*
X323883Y980355D01*
X323708Y980406D01*
X323690Y980408D01*
X323673Y980412D01*
X323342Y980439D01*
X306371Y980439D01*
X306814Y981800D01*
X307540Y983225D01*
X307786Y983564D01*
X307812Y983608D01*
X307844Y983648D01*
X307913Y983782D01*
X307989Y983912D01*
X308006Y983960D01*
X308029Y984005D01*
X308071Y984150D01*
X308120Y984292D01*
X308126Y984343D01*
X308141Y984392D01*
X308153Y984543D01*
X308173Y984692D01*
X308169Y984743D01*
X308173Y984794D01*
X308156Y984943D01*
X308146Y985093D01*
X308133Y985143D01*
X308127Y985193D01*
X308080Y985337D01*
X308040Y985482D01*
X308018Y985528D01*
X308002Y985576D01*
X307928Y985707D01*
X307860Y985842D01*
X307829Y985882D01*
X307804Y985927D01*
X307706Y986041D01*
X307613Y986159D01*
X307574Y986193D01*
X307541Y986232D01*
X307422Y986324D01*
X307308Y986422D01*
X307263Y986447D01*
X307223Y986478D01*
X307088Y986545D01*
X306957Y986619D01*
X306908Y986635D01*
X306862Y986658D01*
X306716Y986697D01*
X306573Y986743D01*
X306523Y986749D01*
X306473Y986762D01*
X306243Y986781D01*
X306173Y986789D01*
X306160Y986788D01*
X306143Y986789D01*
X236094Y986789D01*
X236076Y986787D01*
X236058Y986789D01*
X235876Y986768D01*
X235693Y986749D01*
X235676Y986744D01*
X235659Y986742D01*
X235484Y986685D01*
X235308Y986631D01*
X235293Y986623D01*
X235276Y986617D01*
X235116Y986527D01*
X234954Y986439D01*
X234941Y986428D01*
X234925Y986419D01*
X234786Y986299D01*
X234645Y986182D01*
X234634Y986168D01*
X234620Y986156D01*
X234508Y986011D01*
X234393Y985868D01*
X234385Y985852D01*
X234374Y985838D01*
X234292Y985673D01*
X234207Y985511D01*
X234202Y985494D01*
X234194Y985478D01*
X234147Y985299D01*
X234096Y985124D01*
X234094Y985106D01*
X234090Y985089D01*
X234063Y984758D01*
X234063Y961478D01*
X232872Y960287D01*
X200028Y960287D01*
X198837Y961478D01*
X198837Y984758D01*
X198835Y984776D01*
X198837Y984794D01*
X198816Y984976D01*
X198797Y985159D01*
X198792Y985176D01*
X198790Y985193D01*
X198733Y985368D01*
X198679Y985544D01*
X198671Y985559D01*
X198665Y985576D01*
X198575Y985736D01*
X198487Y985898D01*
X198476Y985911D01*
X198467Y985927D01*
X198347Y986066D01*
X198230Y986207D01*
X198216Y986218D01*
X198204Y986232D01*
X198059Y986344D01*
X197916Y986459D01*
X197900Y986467D01*
X197886Y986478D01*
X197721Y986560D01*
X197559Y986645D01*
X197542Y986650D01*
X197526Y986658D01*
X197347Y986705D01*
X197172Y986756D01*
X197154Y986758D01*
X197137Y986762D01*
X196806Y986789D01*
X146094Y986789D01*
X146076Y986787D01*
X146058Y986789D01*
X145876Y986768D01*
X145693Y986749D01*
X145676Y986744D01*
X145659Y986742D01*
X145484Y986685D01*
X145308Y986631D01*
X145293Y986623D01*
X145276Y986617D01*
X145116Y986527D01*
X144954Y986439D01*
X144941Y986428D01*
X144925Y986419D01*
X144786Y986299D01*
X144645Y986182D01*
X144634Y986168D01*
X144620Y986156D01*
X144508Y986011D01*
X144393Y985868D01*
X144385Y985852D01*
X144374Y985838D01*
X144292Y985673D01*
X144207Y985511D01*
X144202Y985494D01*
X144194Y985478D01*
X144147Y985299D01*
X144096Y985124D01*
X144094Y985106D01*
X144090Y985089D01*
X144063Y984758D01*
X144063Y961478D01*
X142872Y960287D01*
X110028Y960287D01*
X108837Y961478D01*
X108837Y984758D01*
X108835Y984776D01*
X108837Y984794D01*
X108816Y984976D01*
X108797Y985159D01*
X108792Y985176D01*
X108790Y985193D01*
X108733Y985368D01*
X108679Y985544D01*
X108671Y985559D01*
X108665Y985576D01*
X108575Y985736D01*
X108487Y985898D01*
X108476Y985911D01*
X108467Y985927D01*
X108347Y986066D01*
X108230Y986207D01*
X108216Y986218D01*
X108204Y986232D01*
X108059Y986344D01*
X107916Y986459D01*
X107900Y986467D01*
X107886Y986478D01*
X107721Y986560D01*
X107559Y986645D01*
X107542Y986650D01*
X107526Y986658D01*
X107347Y986705D01*
X107172Y986756D01*
X107154Y986758D01*
X107137Y986762D01*
X106806Y986789D01*
X43107Y986789D01*
X43057Y986784D01*
X43005Y986787D01*
X42857Y986764D01*
X42707Y986749D01*
X42658Y986734D01*
X42607Y986727D01*
X42466Y986675D01*
X42322Y986631D01*
X42277Y986607D01*
X42229Y986589D01*
X42100Y986511D01*
X41968Y986439D01*
X41929Y986407D01*
X41885Y986380D01*
X41774Y986278D01*
X41659Y986182D01*
X41627Y986142D01*
X41589Y986107D01*
X41501Y985985D01*
X41406Y985868D01*
X41383Y985823D01*
X41353Y985781D01*
X41290Y985644D01*
X41221Y985511D01*
X41207Y985462D01*
X41185Y985415D01*
X41151Y985268D01*
X41109Y985124D01*
X41105Y985073D01*
X41094Y985023D01*
X41089Y984872D01*
X41077Y984722D01*
X41082Y984672D01*
X41081Y984621D01*
X41106Y984472D01*
X41123Y984323D01*
X41139Y984274D01*
X41148Y984224D01*
X41202Y984083D01*
X41248Y983940D01*
X41273Y983895D01*
X41292Y983848D01*
X41412Y983650D01*
X41446Y983589D01*
X41455Y983579D01*
X41464Y983564D01*
X41710Y983225D01*
X42436Y981800D01*
X42879Y980439D01*
X25908Y980439D01*
X25890Y980437D01*
X25873Y980439D01*
X25690Y980418D01*
X25508Y980399D01*
X25491Y980394D01*
X25473Y980392D01*
X25298Y980335D01*
X25123Y980281D01*
X25107Y980273D01*
X25090Y980267D01*
X24930Y980177D01*
X24769Y980089D01*
X24755Y980078D01*
X24739Y980069D01*
X24600Y979949D01*
X24459Y979832D01*
X24448Y979818D01*
X24435Y979806D01*
X24322Y979661D01*
X24207Y979518D01*
X24199Y979502D01*
X24188Y979488D01*
X24106Y979323D01*
X24066Y979247D01*
X23914Y979161D01*
X23752Y979073D01*
X23739Y979062D01*
X23723Y979053D01*
X23584Y978933D01*
X23443Y978815D01*
X23432Y978802D01*
X23418Y978790D01*
X23306Y978645D01*
X23191Y978502D01*
X23183Y978486D01*
X23172Y978472D01*
X23090Y978307D01*
X23005Y978144D01*
X23000Y978127D01*
X22992Y978111D01*
X22944Y977933D01*
X22894Y977758D01*
X22892Y977740D01*
X22888Y977723D01*
X22861Y977392D01*
X22861Y967739D01*
X16980Y967739D01*
X15401Y967989D01*
X13880Y968484D01*
X13114Y968874D01*
X13027Y968908D01*
X12945Y968951D01*
X12840Y968981D01*
X12739Y969020D01*
X12647Y969036D01*
X12558Y969062D01*
X12449Y969071D01*
X12343Y969090D01*
X12249Y969087D01*
X12156Y969095D01*
X12049Y969082D01*
X11940Y969079D01*
X11849Y969059D01*
X11757Y969048D01*
X11653Y969014D01*
X11548Y968990D01*
X11462Y968952D01*
X11374Y968923D01*
X11279Y968870D01*
X11180Y968825D01*
X11104Y968771D01*
X11023Y968725D01*
X10941Y968654D01*
X10853Y968591D01*
X10789Y968523D01*
X10718Y968462D01*
X10652Y968376D01*
X10578Y968297D01*
X10529Y968218D01*
X10472Y968144D01*
X10423Y968047D01*
X10366Y967954D01*
X10334Y967867D01*
X10292Y967783D01*
X10264Y967679D01*
X10227Y967577D01*
X10212Y967485D01*
X10188Y967395D01*
X10177Y967261D01*
X10164Y967179D01*
X10166Y967130D01*
X10161Y967064D01*
X10161Y962832D01*
X10162Y962819D01*
X10161Y962805D01*
X10182Y962619D01*
X10201Y962431D01*
X10205Y962419D01*
X10206Y962405D01*
X10264Y962226D01*
X10319Y962046D01*
X10325Y962035D01*
X10329Y962022D01*
X10421Y961857D01*
X10511Y961692D01*
X10519Y961682D01*
X10526Y961670D01*
X10648Y961528D01*
X10768Y961383D01*
X10779Y961375D01*
X10787Y961365D01*
X10935Y961249D01*
X11082Y961131D01*
X11094Y961125D01*
X11104Y961116D01*
X11273Y961032D01*
X11439Y960945D01*
X11452Y960942D01*
X11464Y960936D01*
X11645Y960886D01*
X11826Y960834D01*
X11840Y960833D01*
X11853Y960829D01*
X12041Y960816D01*
X12228Y960801D01*
X12241Y960803D01*
X12254Y960802D01*
X12442Y960826D01*
X12627Y960848D01*
X12640Y960852D01*
X12653Y960854D01*
X12969Y960955D01*
X15860Y962153D01*
X34940Y962153D01*
X38488Y960683D01*
X41203Y957968D01*
X41265Y957819D01*
X41275Y957799D01*
X41282Y957778D01*
X41371Y957622D01*
X41455Y957464D01*
X41469Y957447D01*
X41480Y957427D01*
X41597Y957292D01*
X41712Y957153D01*
X41729Y957139D01*
X41743Y957122D01*
X41885Y957013D01*
X42024Y956900D01*
X42044Y956889D01*
X42062Y956876D01*
X42222Y956796D01*
X42381Y956713D01*
X42402Y956706D01*
X42422Y956696D01*
X42595Y956650D01*
X42767Y956600D01*
X42789Y956598D01*
X42811Y956592D01*
X43142Y956565D01*
X64309Y956565D01*
X65802Y955946D01*
X117746Y904002D01*
X118365Y902509D01*
X118365Y745475D01*
X118367Y745448D01*
X118365Y745422D01*
X118387Y745248D01*
X118405Y745074D01*
X118412Y745049D01*
X118414Y745038D01*
X118414Y745037D01*
X118416Y745022D01*
X118471Y744857D01*
X118523Y744690D01*
X118534Y744668D01*
X118539Y744655D01*
X118540Y744652D01*
X118544Y744641D01*
X118631Y744489D01*
X118715Y744335D01*
X118728Y744319D01*
X118737Y744304D01*
X118740Y744300D01*
X118745Y744292D01*
X118960Y744039D01*
X262367Y600632D01*
X262367Y600631D01*
X263796Y599202D01*
X264415Y597709D01*
X264415Y450100D01*
X264422Y450027D01*
X264420Y449954D01*
X264442Y449827D01*
X264455Y449699D01*
X264476Y449629D01*
X264489Y449557D01*
X264535Y449437D01*
X264573Y449314D01*
X264608Y449250D01*
X264634Y449182D01*
X264703Y449073D01*
X264765Y448960D01*
X264811Y448904D01*
X264851Y448842D01*
X264940Y448750D01*
X265022Y448651D01*
X265079Y448605D01*
X265130Y448552D01*
X265236Y448479D01*
X265336Y448399D01*
X265401Y448365D01*
X265461Y448323D01*
X265579Y448272D01*
X265693Y448213D01*
X265764Y448193D01*
X265831Y448164D01*
X265957Y448137D01*
X266080Y448102D01*
X266153Y448096D01*
X266225Y448081D01*
X266353Y448079D01*
X266482Y448069D01*
X266554Y448077D01*
X266628Y448077D01*
X266754Y448101D01*
X266881Y448116D01*
X266951Y448138D01*
X267023Y448152D01*
X267142Y448201D01*
X267264Y448241D01*
X267328Y448277D01*
X267396Y448304D01*
X267503Y448375D01*
X267615Y448439D01*
X267670Y448486D01*
X267731Y448527D01*
X267822Y448618D01*
X267919Y448702D01*
X267964Y448760D01*
X268016Y448811D01*
X268113Y448951D01*
X268166Y449020D01*
X268181Y449049D01*
X268205Y449084D01*
X271166Y454213D01*
X276037Y459084D01*
X282002Y462528D01*
X288656Y464311D01*
X295544Y464311D01*
X302198Y462528D01*
X308163Y459084D01*
X313034Y454213D01*
X315995Y449084D01*
X316038Y449025D01*
X316073Y448960D01*
X316155Y448862D01*
X316230Y448757D01*
X316283Y448707D01*
X316330Y448651D01*
X316430Y448571D01*
X316525Y448483D01*
X316587Y448445D01*
X316644Y448399D01*
X316758Y448340D01*
X316868Y448272D01*
X316936Y448247D01*
X317001Y448213D01*
X317125Y448178D01*
X317245Y448133D01*
X317318Y448122D01*
X317388Y448102D01*
X317517Y448091D01*
X317643Y448072D01*
X317716Y448075D01*
X317790Y448069D01*
X317917Y448084D01*
X318046Y448090D01*
X318117Y448107D01*
X318189Y448116D01*
X318312Y448156D01*
X318436Y448187D01*
X318502Y448218D01*
X318572Y448241D01*
X318684Y448304D01*
X318800Y448359D01*
X318859Y448403D01*
X318923Y448439D01*
X319020Y448522D01*
X319123Y448599D01*
X319172Y448654D01*
X319228Y448702D01*
X319306Y448803D01*
X319392Y448899D01*
X319429Y448962D01*
X319474Y449020D01*
X319532Y449135D01*
X319597Y449246D01*
X319621Y449315D01*
X319654Y449380D01*
X319687Y449505D01*
X319729Y449626D01*
X319739Y449698D01*
X319758Y449769D01*
X319772Y449938D01*
X319784Y450025D01*
X319782Y450058D01*
X319785Y450100D01*
X319785Y549925D01*
X319783Y549952D01*
X319785Y549978D01*
X319763Y550152D01*
X319745Y550326D01*
X319738Y550351D01*
X319734Y550378D01*
X319679Y550543D01*
X319627Y550710D01*
X319614Y550734D01*
X319606Y550759D01*
X319519Y550911D01*
X319435Y551065D01*
X319418Y551085D01*
X319405Y551108D01*
X319190Y551361D01*
X168004Y702548D01*
X167385Y704041D01*
X167385Y747167D01*
X167384Y747176D01*
X167385Y747185D01*
X167364Y747377D01*
X167345Y747568D01*
X167343Y747576D01*
X167342Y747585D01*
X167284Y747768D01*
X167227Y747953D01*
X167223Y747961D01*
X167220Y747969D01*
X167127Y748138D01*
X167035Y748307D01*
X167030Y748314D01*
X167025Y748321D01*
X166900Y748469D01*
X166778Y748616D01*
X166771Y748622D01*
X166765Y748628D01*
X166613Y748748D01*
X166464Y748868D01*
X166456Y748872D01*
X166449Y748878D01*
X166277Y748965D01*
X166107Y749054D01*
X166098Y749056D01*
X166090Y749060D01*
X165904Y749112D01*
X165720Y749165D01*
X165711Y749166D01*
X165702Y749168D01*
X165510Y749183D01*
X165318Y749198D01*
X165310Y749197D01*
X165301Y749198D01*
X165108Y749173D01*
X164919Y749151D01*
X164910Y749149D01*
X164901Y749147D01*
X164718Y749086D01*
X164536Y749026D01*
X164528Y749022D01*
X164520Y749019D01*
X164354Y748924D01*
X164185Y748829D01*
X164178Y748823D01*
X164171Y748818D01*
X163918Y748604D01*
X162327Y747013D01*
X155173Y747013D01*
X150113Y752073D01*
X150113Y759227D01*
X155173Y764287D01*
X162327Y764287D01*
X163918Y762696D01*
X163925Y762691D01*
X163930Y762684D01*
X164080Y762564D01*
X164229Y762441D01*
X164237Y762437D01*
X164244Y762432D01*
X164414Y762343D01*
X164585Y762253D01*
X164594Y762250D01*
X164601Y762246D01*
X164786Y762193D01*
X164971Y762138D01*
X164980Y762137D01*
X164988Y762135D01*
X165179Y762119D01*
X165372Y762102D01*
X165381Y762103D01*
X165390Y762102D01*
X165579Y762124D01*
X165772Y762145D01*
X165781Y762148D01*
X165789Y762149D01*
X165971Y762208D01*
X166156Y762266D01*
X166164Y762271D01*
X166172Y762274D01*
X166341Y762369D01*
X166508Y762461D01*
X166515Y762467D01*
X166523Y762471D01*
X166669Y762597D01*
X166815Y762722D01*
X166821Y762729D01*
X166828Y762735D01*
X166945Y762886D01*
X167065Y763038D01*
X167069Y763046D01*
X167074Y763053D01*
X167160Y763225D01*
X167247Y763397D01*
X167250Y763405D01*
X167254Y763413D01*
X167304Y763599D01*
X167355Y763785D01*
X167356Y763793D01*
X167358Y763802D01*
X167385Y764133D01*
X167385Y823367D01*
X167384Y823376D01*
X167385Y823385D01*
X167364Y823577D01*
X167345Y823768D01*
X167343Y823776D01*
X167342Y823785D01*
X167284Y823968D01*
X167227Y824153D01*
X167223Y824161D01*
X167220Y824169D01*
X167127Y824338D01*
X167035Y824507D01*
X167030Y824514D01*
X167025Y824521D01*
X166900Y824669D01*
X166778Y824816D01*
X166771Y824822D01*
X166765Y824828D01*
X166613Y824948D01*
X166464Y825068D01*
X166456Y825072D01*
X166449Y825078D01*
X166277Y825165D01*
X166107Y825254D01*
X166098Y825256D01*
X166090Y825260D01*
X165904Y825312D01*
X165720Y825365D01*
X165711Y825366D01*
X165702Y825368D01*
X165510Y825383D01*
X165318Y825398D01*
X165310Y825397D01*
X165301Y825398D01*
X165108Y825373D01*
X164919Y825351D01*
X164910Y825349D01*
X164901Y825347D01*
X164718Y825286D01*
X164536Y825226D01*
X164528Y825222D01*
X164520Y825219D01*
X164354Y825124D01*
X164185Y825029D01*
X164178Y825023D01*
X164171Y825018D01*
X163918Y824804D01*
X162327Y823213D01*
X155173Y823213D01*
X150113Y828273D01*
X150113Y835427D01*
X155173Y840487D01*
X162327Y840487D01*
X163918Y838896D01*
X163925Y838891D01*
X163930Y838884D01*
X164080Y838764D01*
X164229Y838641D01*
X164237Y838637D01*
X164244Y838632D01*
X164414Y838543D01*
X164585Y838453D01*
X164594Y838450D01*
X164601Y838446D01*
X164786Y838393D01*
X164971Y838338D01*
X164980Y838337D01*
X164988Y838335D01*
X165179Y838319D01*
X165372Y838302D01*
X165381Y838303D01*
X165390Y838302D01*
X165579Y838324D01*
X165772Y838345D01*
X165781Y838348D01*
X165789Y838349D01*
X165971Y838408D01*
X166156Y838466D01*
X166164Y838471D01*
X166172Y838474D01*
X166341Y838569D01*
X166508Y838661D01*
X166515Y838667D01*
X166523Y838671D01*
X166669Y838797D01*
X166815Y838922D01*
X166821Y838929D01*
X166828Y838935D01*
X166945Y839086D01*
X167065Y839238D01*
X167069Y839246D01*
X167074Y839253D01*
X167160Y839425D01*
X167247Y839597D01*
X167250Y839605D01*
X167254Y839613D01*
X167304Y839799D01*
X167355Y839985D01*
X167356Y839993D01*
X167358Y840002D01*
X167385Y840333D01*
X167385Y896395D01*
X167383Y896421D01*
X167385Y896448D01*
X167363Y896622D01*
X167345Y896795D01*
X167338Y896821D01*
X167334Y896847D01*
X167279Y897013D01*
X167227Y897180D01*
X167214Y897204D01*
X167206Y897229D01*
X167119Y897381D01*
X167035Y897534D01*
X167018Y897555D01*
X167005Y897578D01*
X166790Y897831D01*
X161035Y903586D01*
X161035Y912214D01*
X167136Y918315D01*
X175764Y918315D01*
X181865Y912214D01*
X181865Y903586D01*
X176110Y897831D01*
X176093Y897810D01*
X176072Y897793D01*
X175965Y897655D01*
X175855Y897520D01*
X175842Y897496D01*
X175826Y897475D01*
X175748Y897318D01*
X175666Y897164D01*
X175658Y897138D01*
X175646Y897114D01*
X175601Y896945D01*
X175551Y896778D01*
X175549Y896751D01*
X175542Y896725D01*
X175515Y896395D01*
X175515Y840333D01*
X175516Y840324D01*
X175515Y840315D01*
X175536Y840123D01*
X175555Y839932D01*
X175557Y839924D01*
X175558Y839915D01*
X175616Y839732D01*
X175673Y839547D01*
X175677Y839539D01*
X175680Y839531D01*
X175773Y839362D01*
X175865Y839193D01*
X175870Y839186D01*
X175875Y839179D01*
X176000Y839031D01*
X176122Y838884D01*
X176129Y838878D01*
X176135Y838872D01*
X176287Y838752D01*
X176436Y838632D01*
X176444Y838628D01*
X176451Y838622D01*
X176623Y838535D01*
X176793Y838446D01*
X176802Y838444D01*
X176810Y838440D01*
X176996Y838388D01*
X177180Y838335D01*
X177189Y838334D01*
X177198Y838332D01*
X177390Y838317D01*
X177582Y838302D01*
X177590Y838303D01*
X177599Y838302D01*
X177792Y838327D01*
X177981Y838349D01*
X177990Y838351D01*
X177999Y838353D01*
X178182Y838414D01*
X178364Y838474D01*
X178372Y838478D01*
X178380Y838481D01*
X178546Y838576D01*
X178715Y838671D01*
X178722Y838677D01*
X178729Y838682D01*
X178982Y838896D01*
X180573Y840487D01*
X187727Y840487D01*
X192787Y835427D01*
X192787Y828273D01*
X187727Y823213D01*
X180573Y823213D01*
X178982Y824804D01*
X178975Y824809D01*
X178970Y824816D01*
X178820Y824936D01*
X178671Y825059D01*
X178663Y825063D01*
X178656Y825068D01*
X178486Y825157D01*
X178315Y825247D01*
X178306Y825250D01*
X178299Y825254D01*
X178114Y825307D01*
X177929Y825362D01*
X177920Y825363D01*
X177912Y825365D01*
X177721Y825381D01*
X177528Y825398D01*
X177519Y825397D01*
X177510Y825398D01*
X177321Y825376D01*
X177128Y825355D01*
X177119Y825352D01*
X177111Y825351D01*
X176929Y825292D01*
X176744Y825234D01*
X176736Y825229D01*
X176728Y825226D01*
X176559Y825131D01*
X176392Y825039D01*
X176385Y825033D01*
X176377Y825029D01*
X176231Y824903D01*
X176085Y824778D01*
X176079Y824771D01*
X176072Y824765D01*
X175955Y824614D01*
X175835Y824462D01*
X175831Y824454D01*
X175826Y824447D01*
X175740Y824275D01*
X175653Y824103D01*
X175650Y824095D01*
X175646Y824087D01*
X175596Y823901D01*
X175545Y823715D01*
X175544Y823707D01*
X175542Y823698D01*
X175515Y823367D01*
X175515Y764851D01*
X175516Y764842D01*
X175515Y764833D01*
X175536Y764642D01*
X175555Y764451D01*
X175557Y764442D01*
X175558Y764433D01*
X175616Y764251D01*
X175673Y764066D01*
X175677Y764058D01*
X175680Y764049D01*
X175773Y763881D01*
X175865Y763712D01*
X175870Y763705D01*
X175875Y763697D01*
X176000Y763549D01*
X176122Y763402D01*
X176129Y763397D01*
X176135Y763390D01*
X176287Y763270D01*
X176436Y763150D01*
X176444Y763146D01*
X176451Y763140D01*
X176623Y763053D01*
X176793Y762965D01*
X176802Y762962D01*
X176810Y762958D01*
X176996Y762906D01*
X177180Y762853D01*
X177189Y762852D01*
X177198Y762850D01*
X177390Y762836D01*
X177582Y762820D01*
X177590Y762821D01*
X177599Y762821D01*
X177792Y762845D01*
X177981Y762867D01*
X177990Y762870D01*
X177999Y762871D01*
X178182Y762932D01*
X178364Y762992D01*
X178372Y762996D01*
X178380Y762999D01*
X178546Y763095D01*
X178715Y763190D01*
X178722Y763196D01*
X178729Y763200D01*
X178982Y763415D01*
X180362Y764795D01*
X182119Y764795D01*
X182119Y755650D01*
X182119Y746505D01*
X180362Y746505D01*
X178982Y747885D01*
X178975Y747891D01*
X178970Y747898D01*
X178820Y748018D01*
X178671Y748140D01*
X178663Y748144D01*
X178656Y748150D01*
X178486Y748238D01*
X178315Y748329D01*
X178306Y748331D01*
X178299Y748335D01*
X178114Y748389D01*
X177929Y748444D01*
X177920Y748444D01*
X177912Y748447D01*
X177721Y748463D01*
X177528Y748480D01*
X177519Y748479D01*
X177510Y748480D01*
X177321Y748458D01*
X177128Y748437D01*
X177119Y748434D01*
X177111Y748433D01*
X176929Y748373D01*
X176744Y748315D01*
X176736Y748311D01*
X176728Y748308D01*
X176561Y748214D01*
X176392Y748120D01*
X176385Y748114D01*
X176377Y748110D01*
X176232Y747985D01*
X176085Y747860D01*
X176079Y747853D01*
X176072Y747847D01*
X175956Y747696D01*
X175835Y747544D01*
X175831Y747536D01*
X175826Y747529D01*
X175740Y747357D01*
X175653Y747185D01*
X175650Y747176D01*
X175646Y747168D01*
X175596Y746982D01*
X175545Y746797D01*
X175544Y746788D01*
X175542Y746780D01*
X175515Y746449D01*
X175515Y707375D01*
X175517Y707348D01*
X175515Y707322D01*
X175537Y707148D01*
X175555Y706974D01*
X175562Y706949D01*
X175566Y706922D01*
X175621Y706757D01*
X175673Y706590D01*
X175686Y706566D01*
X175694Y706541D01*
X175781Y706389D01*
X175865Y706235D01*
X175882Y706215D01*
X175895Y706192D01*
X176110Y705939D01*
X327296Y554752D01*
X327915Y553259D01*
X327915Y288391D01*
X327917Y288364D01*
X327915Y288338D01*
X327937Y288164D01*
X327955Y287990D01*
X327962Y287965D01*
X327966Y287938D01*
X328021Y287772D01*
X328073Y287605D01*
X328086Y287582D01*
X328094Y287556D01*
X328181Y287405D01*
X328265Y287251D01*
X328282Y287231D01*
X328295Y287208D01*
X328510Y286955D01*
X332487Y282977D01*
X332487Y275823D01*
X327427Y270763D01*
X320273Y270763D01*
X315213Y275823D01*
X315213Y282977D01*
X319190Y286955D01*
X319207Y286975D01*
X319228Y286993D01*
X319335Y287131D01*
X319445Y287266D01*
X319458Y287290D01*
X319474Y287311D01*
X319552Y287468D01*
X319634Y287622D01*
X319642Y287647D01*
X319654Y287671D01*
X319699Y287841D01*
X319749Y288008D01*
X319751Y288034D01*
X319758Y288060D01*
X319785Y288391D01*
X319785Y426200D01*
X319778Y426273D01*
X319780Y426346D01*
X319758Y426473D01*
X319745Y426601D01*
X319724Y426671D01*
X319711Y426743D01*
X319665Y426863D01*
X319627Y426986D01*
X319592Y427050D01*
X319566Y427118D01*
X319497Y427227D01*
X319435Y427340D01*
X319389Y427396D01*
X319349Y427458D01*
X319260Y427550D01*
X319178Y427649D01*
X319121Y427695D01*
X319070Y427748D01*
X318964Y427821D01*
X318864Y427901D01*
X318799Y427935D01*
X318739Y427977D01*
X318621Y428028D01*
X318507Y428087D01*
X318436Y428107D01*
X318369Y428136D01*
X318243Y428163D01*
X318120Y428198D01*
X318047Y428204D01*
X317975Y428219D01*
X317847Y428221D01*
X317718Y428231D01*
X317646Y428223D01*
X317572Y428223D01*
X317446Y428199D01*
X317319Y428184D01*
X317249Y428162D01*
X317177Y428148D01*
X317058Y428099D01*
X316936Y428059D01*
X316872Y428023D01*
X316804Y427996D01*
X316697Y427925D01*
X316585Y427861D01*
X316530Y427814D01*
X316469Y427773D01*
X316378Y427682D01*
X316281Y427598D01*
X316236Y427540D01*
X316184Y427489D01*
X316087Y427349D01*
X316034Y427280D01*
X316019Y427251D01*
X315995Y427216D01*
X313034Y422087D01*
X308163Y417216D01*
X302198Y413772D01*
X295544Y411989D01*
X288656Y411989D01*
X282002Y413772D01*
X276037Y417216D01*
X271166Y422087D01*
X268205Y427216D01*
X268162Y427275D01*
X268127Y427340D01*
X268045Y427438D01*
X267970Y427543D01*
X267917Y427593D01*
X267870Y427649D01*
X267770Y427729D01*
X267675Y427817D01*
X267613Y427855D01*
X267556Y427901D01*
X267442Y427960D01*
X267332Y428028D01*
X267264Y428053D01*
X267199Y428087D01*
X267075Y428122D01*
X266955Y428167D01*
X266882Y428178D01*
X266812Y428198D01*
X266683Y428209D01*
X266557Y428228D01*
X266484Y428225D01*
X266410Y428231D01*
X266283Y428216D01*
X266154Y428210D01*
X266083Y428193D01*
X266011Y428184D01*
X265888Y428144D01*
X265764Y428113D01*
X265698Y428082D01*
X265628Y428059D01*
X265516Y427996D01*
X265400Y427941D01*
X265341Y427897D01*
X265277Y427861D01*
X265180Y427778D01*
X265077Y427701D01*
X265028Y427646D01*
X264972Y427598D01*
X264894Y427497D01*
X264808Y427401D01*
X264771Y427338D01*
X264726Y427280D01*
X264668Y427165D01*
X264603Y427054D01*
X264579Y426985D01*
X264546Y426920D01*
X264513Y426795D01*
X264471Y426674D01*
X264461Y426602D01*
X264442Y426531D01*
X264428Y426362D01*
X264416Y426275D01*
X264418Y426242D01*
X264415Y426200D01*
X264415Y345425D01*
X264417Y345398D01*
X264415Y345372D01*
X264437Y345198D01*
X264455Y345024D01*
X264462Y344999D01*
X264466Y344972D01*
X264521Y344807D01*
X264573Y344640D01*
X264586Y344616D01*
X264594Y344591D01*
X264681Y344439D01*
X264765Y344285D01*
X264782Y344265D01*
X264795Y344242D01*
X265010Y343989D01*
X301896Y307102D01*
X302515Y305609D01*
X302515Y288391D01*
X302517Y288364D01*
X302515Y288338D01*
X302537Y288164D01*
X302555Y287990D01*
X302562Y287965D01*
X302566Y287938D01*
X302621Y287772D01*
X302673Y287605D01*
X302686Y287582D01*
X302694Y287556D01*
X302781Y287405D01*
X302865Y287251D01*
X302882Y287231D01*
X302895Y287208D01*
X303110Y286955D01*
X307087Y282977D01*
X307087Y275823D01*
X302027Y270763D01*
X294873Y270763D01*
X289813Y275823D01*
X289813Y282977D01*
X293790Y286955D01*
X293807Y286975D01*
X293828Y286993D01*
X293935Y287131D01*
X294045Y287266D01*
X294058Y287290D01*
X294074Y287311D01*
X294152Y287468D01*
X294234Y287622D01*
X294242Y287647D01*
X294254Y287671D01*
X294299Y287841D01*
X294349Y288008D01*
X294351Y288034D01*
X294358Y288060D01*
X294385Y288391D01*
X294385Y302275D01*
X294383Y302302D01*
X294385Y302328D01*
X294363Y302502D01*
X294345Y302676D01*
X294338Y302701D01*
X294334Y302728D01*
X294279Y302893D01*
X294227Y303060D01*
X294214Y303084D01*
X294206Y303109D01*
X294119Y303261D01*
X294035Y303415D01*
X294018Y303435D01*
X294005Y303458D01*
X293790Y303711D01*
X256904Y340598D01*
X256285Y342091D01*
X256285Y594375D01*
X256283Y594402D01*
X256285Y594428D01*
X256263Y594602D01*
X256245Y594776D01*
X256238Y594801D01*
X256234Y594828D01*
X256179Y594993D01*
X256127Y595160D01*
X256114Y595184D01*
X256106Y595209D01*
X256019Y595361D01*
X255935Y595515D01*
X255918Y595535D01*
X255905Y595558D01*
X255690Y595811D01*
X110854Y740648D01*
X110235Y742141D01*
X110235Y899175D01*
X110233Y899202D01*
X110235Y899228D01*
X110213Y899402D01*
X110195Y899576D01*
X110188Y899601D01*
X110184Y899628D01*
X110129Y899793D01*
X110077Y899960D01*
X110064Y899984D01*
X110056Y900009D01*
X109969Y900161D01*
X109885Y900315D01*
X109868Y900335D01*
X109855Y900358D01*
X109640Y900611D01*
X62411Y947840D01*
X62391Y947857D01*
X62373Y947878D01*
X62235Y947985D01*
X62100Y948095D01*
X62076Y948108D01*
X62055Y948124D01*
X61898Y948202D01*
X61744Y948284D01*
X61719Y948292D01*
X61694Y948304D01*
X61525Y948349D01*
X61358Y948399D01*
X61332Y948401D01*
X61306Y948408D01*
X60975Y948435D01*
X43142Y948435D01*
X43119Y948433D01*
X43097Y948435D01*
X42920Y948413D01*
X42741Y948395D01*
X42720Y948389D01*
X42697Y948386D01*
X42528Y948330D01*
X42356Y948277D01*
X42336Y948267D01*
X42315Y948260D01*
X42160Y948171D01*
X42002Y948085D01*
X41985Y948071D01*
X41966Y948060D01*
X41831Y947943D01*
X41693Y947828D01*
X41679Y947810D01*
X41662Y947796D01*
X41553Y947654D01*
X41440Y947514D01*
X41430Y947494D01*
X41417Y947476D01*
X41265Y947181D01*
X41203Y947032D01*
X38488Y944317D01*
X34940Y942847D01*
X15860Y942847D01*
X12969Y944045D01*
X12956Y944049D01*
X12945Y944055D01*
X12765Y944106D01*
X12584Y944161D01*
X12571Y944162D01*
X12558Y944166D01*
X12370Y944181D01*
X12183Y944199D01*
X12170Y944198D01*
X12156Y944199D01*
X11970Y944177D01*
X11783Y944158D01*
X11770Y944154D01*
X11757Y944152D01*
X11578Y944094D01*
X11398Y944038D01*
X11387Y944031D01*
X11374Y944027D01*
X11209Y943934D01*
X11045Y943844D01*
X11035Y943836D01*
X11023Y943829D01*
X10881Y943706D01*
X10737Y943585D01*
X10729Y943575D01*
X10718Y943566D01*
X10603Y943418D01*
X10486Y943270D01*
X10480Y943259D01*
X10472Y943248D01*
X10388Y943079D01*
X10302Y942912D01*
X10298Y942900D01*
X10292Y942887D01*
X10243Y942705D01*
X10192Y942525D01*
X10191Y942512D01*
X10188Y942499D01*
X10161Y942168D01*
X10161Y937432D01*
X10162Y937419D01*
X10161Y937405D01*
X10182Y937219D01*
X10201Y937031D01*
X10205Y937019D01*
X10206Y937005D01*
X10264Y936826D01*
X10319Y936646D01*
X10325Y936635D01*
X10329Y936622D01*
X10421Y936457D01*
X10511Y936292D01*
X10519Y936282D01*
X10526Y936270D01*
X10648Y936128D01*
X10768Y935983D01*
X10779Y935975D01*
X10787Y935965D01*
X10935Y935849D01*
X11082Y935731D01*
X11094Y935725D01*
X11104Y935716D01*
X11273Y935632D01*
X11439Y935545D01*
X11452Y935542D01*
X11464Y935536D01*
X11645Y935486D01*
X11826Y935434D01*
X11840Y935433D01*
X11853Y935429D01*
X12041Y935416D01*
X12228Y935401D01*
X12241Y935403D01*
X12254Y935402D01*
X12442Y935426D01*
X12627Y935448D01*
X12640Y935452D01*
X12653Y935454D01*
X12969Y935555D01*
X15860Y936753D01*
X34940Y936753D01*
X38488Y935283D01*
X41203Y932568D01*
X42673Y929020D01*
X42673Y925180D01*
X41203Y921632D01*
X38488Y918917D01*
X34940Y917447D01*
X15860Y917447D01*
X12969Y918645D01*
X12956Y918649D01*
X12945Y918655D01*
X12765Y918706D01*
X12584Y918761D01*
X12571Y918762D01*
X12558Y918766D01*
X12370Y918781D01*
X12183Y918799D01*
X12170Y918798D01*
X12156Y918799D01*
X11970Y918777D01*
X11783Y918758D01*
X11770Y918754D01*
X11757Y918752D01*
X11578Y918694D01*
X11398Y918638D01*
X11387Y918631D01*
X11374Y918627D01*
X11209Y918534D01*
X11045Y918444D01*
X11035Y918436D01*
X11023Y918429D01*
X10881Y918306D01*
X10737Y918185D01*
X10729Y918175D01*
X10718Y918166D01*
X10603Y918018D01*
X10486Y917870D01*
X10480Y917859D01*
X10472Y917848D01*
X10388Y917679D01*
X10302Y917512D01*
X10298Y917500D01*
X10292Y917487D01*
X10243Y917305D01*
X10192Y917125D01*
X10191Y917112D01*
X10188Y917099D01*
X10161Y916768D01*
X10161Y912032D01*
X10162Y912019D01*
X10161Y912005D01*
X10161Y912003D01*
X10161Y912000D01*
X10173Y911897D01*
X10182Y911819D01*
X10201Y911631D01*
X10205Y911619D01*
X10206Y911605D01*
X10264Y911426D01*
X10319Y911246D01*
X10325Y911235D01*
X10329Y911222D01*
X10421Y911057D01*
X10511Y910892D01*
X10519Y910882D01*
X10526Y910870D01*
X10648Y910728D01*
X10768Y910583D01*
X10779Y910575D01*
X10787Y910565D01*
X10935Y910449D01*
X11082Y910331D01*
X11094Y910325D01*
X11104Y910316D01*
X11273Y910232D01*
X11439Y910145D01*
X11452Y910142D01*
X11464Y910136D01*
X11645Y910086D01*
X11826Y910034D01*
X11840Y910033D01*
X11853Y910029D01*
X12041Y910016D01*
X12228Y910001D01*
X12241Y910003D01*
X12254Y910002D01*
X12442Y910026D01*
X12569Y910041D01*
X12602Y910044D01*
X12605Y910045D01*
X12627Y910048D01*
X12640Y910052D01*
X12653Y910054D01*
X12969Y910155D01*
X15860Y911353D01*
X34940Y911353D01*
X38488Y909883D01*
X41203Y907168D01*
X41265Y907019D01*
X41275Y906999D01*
X41282Y906978D01*
X41371Y906822D01*
X41455Y906664D01*
X41469Y906647D01*
X41480Y906627D01*
X41597Y906492D01*
X41712Y906353D01*
X41729Y906339D01*
X41743Y906322D01*
X41885Y906213D01*
X42024Y906100D01*
X42044Y906089D01*
X42062Y906076D01*
X42222Y905996D01*
X42381Y905913D01*
X42402Y905906D01*
X42422Y905896D01*
X42595Y905850D01*
X42767Y905800D01*
X42789Y905798D01*
X42811Y905792D01*
X43142Y905765D01*
X57959Y905765D01*
X59452Y905146D01*
X73296Y891302D01*
X73915Y889809D01*
X73915Y786591D01*
X73296Y785098D01*
X23710Y735511D01*
X23693Y735491D01*
X23672Y735473D01*
X23565Y735335D01*
X23455Y735200D01*
X23442Y735176D01*
X23426Y735155D01*
X23348Y734998D01*
X23266Y734844D01*
X23258Y734819D01*
X23246Y734794D01*
X23201Y734625D01*
X23151Y734458D01*
X23149Y734432D01*
X23142Y734406D01*
X23115Y734075D01*
X23115Y210036D01*
X23117Y210009D01*
X23115Y209982D01*
X23137Y209808D01*
X23155Y209635D01*
X23162Y209609D01*
X23166Y209583D01*
X23221Y209417D01*
X23273Y209250D01*
X23286Y209226D01*
X23294Y209201D01*
X23381Y209049D01*
X23465Y208896D01*
X23482Y208876D01*
X23495Y208852D01*
X23710Y208599D01*
X25080Y207229D01*
X26163Y204615D01*
X26163Y201785D01*
X25080Y199171D01*
X23079Y197170D01*
X22373Y196878D01*
X20465Y196087D01*
X17635Y196087D01*
X15021Y197170D01*
X13628Y198563D01*
X13621Y198568D01*
X13616Y198575D01*
X13466Y198696D01*
X13317Y198818D01*
X13309Y198822D01*
X13302Y198828D01*
X13132Y198916D01*
X12961Y199006D01*
X12952Y199009D01*
X12945Y199013D01*
X12760Y199066D01*
X12575Y199121D01*
X12566Y199122D01*
X12558Y199125D01*
X12367Y199140D01*
X12174Y199158D01*
X12165Y199157D01*
X12156Y199157D01*
X11967Y199135D01*
X11774Y199114D01*
X11765Y199112D01*
X11757Y199111D01*
X11575Y199051D01*
X11390Y198993D01*
X11382Y198988D01*
X11374Y198986D01*
X11207Y198891D01*
X11038Y198798D01*
X11031Y198792D01*
X11023Y198788D01*
X10878Y198663D01*
X10731Y198537D01*
X10725Y198530D01*
X10718Y198525D01*
X10602Y198374D01*
X10481Y198222D01*
X10477Y198213D01*
X10472Y198207D01*
X10386Y198035D01*
X10299Y197863D01*
X10296Y197854D01*
X10292Y197846D01*
X10242Y197660D01*
X10191Y197475D01*
X10190Y197466D01*
X10188Y197457D01*
X10161Y197126D01*
X10161Y12192D01*
X10163Y12174D01*
X10161Y12156D01*
X10182Y11974D01*
X10201Y11791D01*
X10206Y11774D01*
X10208Y11757D01*
X10265Y11582D01*
X10319Y11406D01*
X10327Y11391D01*
X10333Y11374D01*
X10423Y11214D01*
X10511Y11052D01*
X10522Y11039D01*
X10531Y11023D01*
X10651Y10884D01*
X10768Y10743D01*
X10782Y10732D01*
X10794Y10718D01*
X10939Y10606D01*
X11082Y10491D01*
X11098Y10483D01*
X11112Y10472D01*
X11277Y10390D01*
X11439Y10305D01*
X11456Y10300D01*
X11472Y10292D01*
X11651Y10245D01*
X11826Y10194D01*
X11844Y10192D01*
X11861Y10188D01*
X12192Y10161D01*
X127146Y10161D01*
X127164Y10163D01*
G37*
G36*
X12236Y207244D02*
X12236Y207244D01*
X12245Y207243D01*
X12437Y207267D01*
X12627Y207289D01*
X12636Y207292D01*
X12645Y207293D01*
X12827Y207355D01*
X13010Y207414D01*
X13018Y207419D01*
X13026Y207422D01*
X13194Y207518D01*
X13361Y207612D01*
X13368Y207618D01*
X13375Y207623D01*
X13628Y207837D01*
X14390Y208599D01*
X14407Y208620D01*
X14428Y208637D01*
X14534Y208775D01*
X14645Y208911D01*
X14658Y208934D01*
X14674Y208956D01*
X14752Y209112D01*
X14834Y209267D01*
X14842Y209292D01*
X14854Y209316D01*
X14899Y209485D01*
X14949Y209652D01*
X14951Y209679D01*
X14958Y209705D01*
X14985Y210036D01*
X14985Y737409D01*
X15604Y738902D01*
X65190Y788489D01*
X65207Y788509D01*
X65228Y788527D01*
X65335Y788665D01*
X65445Y788800D01*
X65458Y788824D01*
X65474Y788845D01*
X65552Y789002D01*
X65634Y789156D01*
X65642Y789181D01*
X65654Y789206D01*
X65699Y789375D01*
X65749Y789542D01*
X65751Y789568D01*
X65758Y789594D01*
X65785Y789925D01*
X65785Y886475D01*
X65783Y886502D01*
X65785Y886528D01*
X65763Y886702D01*
X65745Y886876D01*
X65738Y886901D01*
X65734Y886928D01*
X65679Y887093D01*
X65627Y887260D01*
X65614Y887284D01*
X65606Y887309D01*
X65519Y887461D01*
X65435Y887615D01*
X65418Y887635D01*
X65405Y887658D01*
X65190Y887911D01*
X56061Y897040D01*
X56041Y897057D01*
X56023Y897078D01*
X55885Y897185D01*
X55750Y897295D01*
X55726Y897308D01*
X55705Y897324D01*
X55548Y897402D01*
X55394Y897484D01*
X55369Y897492D01*
X55344Y897504D01*
X55175Y897549D01*
X55008Y897599D01*
X54982Y897601D01*
X54956Y897608D01*
X54625Y897635D01*
X43142Y897635D01*
X43119Y897633D01*
X43097Y897635D01*
X42920Y897613D01*
X42741Y897595D01*
X42720Y897589D01*
X42697Y897586D01*
X42528Y897530D01*
X42356Y897477D01*
X42336Y897467D01*
X42315Y897460D01*
X42160Y897371D01*
X42002Y897285D01*
X41985Y897271D01*
X41966Y897260D01*
X41831Y897143D01*
X41693Y897028D01*
X41679Y897010D01*
X41662Y896996D01*
X41553Y896854D01*
X41440Y896714D01*
X41430Y896694D01*
X41417Y896676D01*
X41265Y896381D01*
X41203Y896232D01*
X38488Y893517D01*
X34940Y892047D01*
X15860Y892047D01*
X12969Y893245D01*
X12956Y893249D01*
X12945Y893255D01*
X12765Y893306D01*
X12584Y893361D01*
X12571Y893362D01*
X12558Y893366D01*
X12370Y893381D01*
X12183Y893399D01*
X12170Y893398D01*
X12156Y893399D01*
X11970Y893377D01*
X11783Y893358D01*
X11770Y893354D01*
X11757Y893352D01*
X11578Y893294D01*
X11398Y893238D01*
X11387Y893231D01*
X11374Y893227D01*
X11209Y893134D01*
X11045Y893044D01*
X11035Y893036D01*
X11023Y893029D01*
X10881Y892906D01*
X10737Y892785D01*
X10729Y892775D01*
X10718Y892766D01*
X10603Y892618D01*
X10486Y892470D01*
X10480Y892459D01*
X10472Y892448D01*
X10388Y892279D01*
X10302Y892112D01*
X10298Y892100D01*
X10292Y892087D01*
X10243Y891905D01*
X10192Y891725D01*
X10191Y891712D01*
X10188Y891699D01*
X10161Y891368D01*
X10161Y886632D01*
X10162Y886619D01*
X10161Y886605D01*
X10182Y886419D01*
X10201Y886231D01*
X10205Y886219D01*
X10206Y886205D01*
X10264Y886026D01*
X10319Y885846D01*
X10325Y885835D01*
X10329Y885822D01*
X10421Y885657D01*
X10511Y885492D01*
X10519Y885482D01*
X10526Y885470D01*
X10648Y885328D01*
X10768Y885183D01*
X10779Y885175D01*
X10787Y885165D01*
X10935Y885049D01*
X11082Y884931D01*
X11094Y884925D01*
X11104Y884916D01*
X11273Y884832D01*
X11439Y884745D01*
X11452Y884742D01*
X11464Y884736D01*
X11645Y884686D01*
X11826Y884634D01*
X11840Y884633D01*
X11853Y884629D01*
X12041Y884616D01*
X12228Y884601D01*
X12241Y884603D01*
X12254Y884602D01*
X12442Y884626D01*
X12627Y884648D01*
X12640Y884652D01*
X12653Y884654D01*
X12969Y884755D01*
X15860Y885953D01*
X34940Y885953D01*
X38488Y884483D01*
X41203Y881768D01*
X42673Y878220D01*
X42673Y874380D01*
X41203Y870832D01*
X38488Y868117D01*
X34940Y866647D01*
X15860Y866647D01*
X12969Y867845D01*
X12956Y867849D01*
X12945Y867855D01*
X12765Y867906D01*
X12584Y867961D01*
X12571Y867962D01*
X12558Y867966D01*
X12370Y867981D01*
X12183Y867999D01*
X12170Y867998D01*
X12156Y867999D01*
X11970Y867977D01*
X11783Y867958D01*
X11770Y867954D01*
X11757Y867952D01*
X11578Y867894D01*
X11398Y867838D01*
X11387Y867831D01*
X11374Y867827D01*
X11209Y867734D01*
X11045Y867644D01*
X11035Y867636D01*
X11023Y867629D01*
X10881Y867506D01*
X10737Y867385D01*
X10729Y867375D01*
X10718Y867366D01*
X10602Y867217D01*
X10486Y867070D01*
X10480Y867059D01*
X10472Y867048D01*
X10388Y866879D01*
X10302Y866712D01*
X10298Y866700D01*
X10292Y866687D01*
X10243Y866505D01*
X10192Y866325D01*
X10191Y866312D01*
X10188Y866299D01*
X10161Y865968D01*
X10161Y861232D01*
X10161Y861224D01*
X10161Y861219D01*
X10162Y861214D01*
X10161Y861205D01*
X10182Y861019D01*
X10201Y860831D01*
X10205Y860819D01*
X10206Y860805D01*
X10264Y860626D01*
X10319Y860446D01*
X10325Y860435D01*
X10329Y860422D01*
X10421Y860257D01*
X10511Y860092D01*
X10519Y860082D01*
X10526Y860070D01*
X10648Y859928D01*
X10768Y859783D01*
X10779Y859775D01*
X10787Y859765D01*
X10935Y859649D01*
X11082Y859531D01*
X11094Y859525D01*
X11104Y859516D01*
X11273Y859432D01*
X11439Y859345D01*
X11452Y859342D01*
X11464Y859336D01*
X11645Y859286D01*
X11826Y859234D01*
X11840Y859233D01*
X11853Y859229D01*
X12041Y859216D01*
X12228Y859201D01*
X12241Y859203D01*
X12254Y859202D01*
X12442Y859226D01*
X12627Y859248D01*
X12640Y859252D01*
X12653Y859254D01*
X12969Y859355D01*
X15860Y860553D01*
X34940Y860553D01*
X38488Y859083D01*
X41203Y856368D01*
X42673Y852820D01*
X42673Y848980D01*
X41203Y845432D01*
X38488Y842717D01*
X34940Y841247D01*
X31496Y841247D01*
X31478Y841245D01*
X31460Y841247D01*
X31278Y841226D01*
X31095Y841207D01*
X31078Y841202D01*
X31061Y841200D01*
X30886Y841143D01*
X30710Y841089D01*
X30695Y841081D01*
X30678Y841075D01*
X30518Y840985D01*
X30356Y840897D01*
X30343Y840886D01*
X30327Y840877D01*
X30188Y840757D01*
X30047Y840640D01*
X30036Y840626D01*
X30022Y840614D01*
X29910Y840469D01*
X29795Y840326D01*
X29787Y840310D01*
X29776Y840296D01*
X29694Y840131D01*
X29609Y839969D01*
X29604Y839952D01*
X29596Y839936D01*
X29549Y839757D01*
X29498Y839582D01*
X29496Y839564D01*
X29492Y839547D01*
X29465Y839216D01*
X29465Y781536D01*
X29467Y781509D01*
X29465Y781482D01*
X29487Y781308D01*
X29505Y781135D01*
X29512Y781109D01*
X29516Y781083D01*
X29572Y780917D01*
X29623Y780750D01*
X29636Y780726D01*
X29644Y780701D01*
X29731Y780550D01*
X29815Y780396D01*
X29832Y780375D01*
X29845Y780352D01*
X30060Y780099D01*
X31430Y778729D01*
X32513Y776115D01*
X32513Y773285D01*
X31430Y770671D01*
X29429Y768670D01*
X26988Y767659D01*
X26815Y767587D01*
X23985Y767587D01*
X21371Y768670D01*
X19370Y770671D01*
X18287Y773285D01*
X18287Y776115D01*
X19370Y778729D01*
X20740Y780099D01*
X20757Y780120D01*
X20778Y780137D01*
X20885Y780275D01*
X20995Y780411D01*
X21008Y780434D01*
X21024Y780456D01*
X21102Y780612D01*
X21184Y780766D01*
X21192Y780792D01*
X21204Y780816D01*
X21249Y780985D01*
X21299Y781152D01*
X21301Y781179D01*
X21308Y781205D01*
X21335Y781536D01*
X21335Y839216D01*
X21333Y839234D01*
X21335Y839252D01*
X21314Y839434D01*
X21295Y839617D01*
X21290Y839634D01*
X21288Y839651D01*
X21231Y839826D01*
X21177Y840002D01*
X21169Y840017D01*
X21163Y840034D01*
X21073Y840194D01*
X20985Y840356D01*
X20974Y840369D01*
X20965Y840385D01*
X20845Y840524D01*
X20728Y840665D01*
X20714Y840676D01*
X20702Y840690D01*
X20557Y840802D01*
X20414Y840917D01*
X20398Y840925D01*
X20384Y840936D01*
X20219Y841018D01*
X20057Y841103D01*
X20040Y841108D01*
X20024Y841116D01*
X19845Y841163D01*
X19670Y841214D01*
X19652Y841216D01*
X19635Y841220D01*
X19304Y841247D01*
X15860Y841247D01*
X12969Y842445D01*
X12956Y842449D01*
X12945Y842455D01*
X12765Y842506D01*
X12584Y842561D01*
X12571Y842562D01*
X12558Y842566D01*
X12370Y842581D01*
X12183Y842599D01*
X12170Y842598D01*
X12156Y842599D01*
X11970Y842577D01*
X11783Y842558D01*
X11770Y842554D01*
X11757Y842552D01*
X11578Y842494D01*
X11398Y842438D01*
X11387Y842431D01*
X11374Y842427D01*
X11209Y842334D01*
X11045Y842244D01*
X11035Y842236D01*
X11023Y842229D01*
X10881Y842106D01*
X10737Y841985D01*
X10729Y841975D01*
X10718Y841966D01*
X10603Y841818D01*
X10486Y841670D01*
X10480Y841659D01*
X10472Y841648D01*
X10388Y841479D01*
X10302Y841312D01*
X10298Y841300D01*
X10292Y841287D01*
X10243Y841105D01*
X10192Y840925D01*
X10191Y840912D01*
X10188Y840899D01*
X10161Y840568D01*
X10161Y209274D01*
X10162Y209265D01*
X10161Y209256D01*
X10181Y209065D01*
X10201Y208873D01*
X10203Y208864D01*
X10204Y208855D01*
X10262Y208672D01*
X10319Y208488D01*
X10323Y208480D01*
X10326Y208472D01*
X10419Y208304D01*
X10511Y208134D01*
X10516Y208127D01*
X10521Y208119D01*
X10645Y207973D01*
X10768Y207825D01*
X10775Y207819D01*
X10781Y207812D01*
X10933Y207692D01*
X11082Y207572D01*
X11090Y207568D01*
X11097Y207563D01*
X11270Y207475D01*
X11439Y207387D01*
X11448Y207384D01*
X11456Y207380D01*
X11641Y207329D01*
X11826Y207275D01*
X11835Y207275D01*
X11844Y207272D01*
X12036Y207258D01*
X12228Y207243D01*
X12236Y207244D01*
G37*
%LPC*%
G36*
X161180Y223202D02*
X161180Y223202D01*
X155461Y225570D01*
X151085Y229947D01*
X148716Y235665D01*
X148716Y241855D01*
X151085Y247573D01*
X155461Y251950D01*
X155674Y252037D01*
X155674Y252038D01*
X161180Y254318D01*
X194420Y254318D01*
X200139Y251950D01*
X204515Y247573D01*
X206884Y241855D01*
X206884Y235665D01*
X204515Y229947D01*
X200139Y225570D01*
X194420Y223202D01*
X161180Y223202D01*
G37*
%LPD*%
%LPC*%
G36*
X161180Y317182D02*
X161180Y317182D01*
X155461Y319550D01*
X151085Y323927D01*
X148716Y329645D01*
X148716Y335835D01*
X151085Y341553D01*
X155461Y345930D01*
X159268Y347506D01*
X161180Y348298D01*
X194420Y348298D01*
X200139Y345930D01*
X204515Y341553D01*
X206884Y335835D01*
X206884Y329645D01*
X204515Y323927D01*
X200139Y319550D01*
X198213Y318753D01*
X194420Y317182D01*
X161180Y317182D01*
G37*
%LPD*%
%LPC*%
G36*
X205278Y722162D02*
X205278Y722162D01*
X204087Y723353D01*
X204087Y756197D01*
X205278Y757388D01*
X238122Y757388D01*
X239313Y756197D01*
X239313Y723353D01*
X238122Y722162D01*
X205278Y722162D01*
G37*
%LPD*%
%LPC*%
G36*
X103678Y71287D02*
X103678Y71287D01*
X102487Y72478D01*
X102487Y105322D01*
X103678Y106513D01*
X136522Y106513D01*
X137713Y105322D01*
X137713Y72478D01*
X136522Y71287D01*
X103678Y71287D01*
G37*
%LPD*%
%LPC*%
G36*
X193678Y71287D02*
X193678Y71287D01*
X192487Y72478D01*
X192487Y105322D01*
X193678Y106513D01*
X226522Y106513D01*
X227713Y105322D01*
X227713Y72478D01*
X226522Y71287D01*
X193678Y71287D01*
G37*
%LPD*%
%LPC*%
G36*
X116378Y490387D02*
X116378Y490387D01*
X115187Y491578D01*
X115187Y524422D01*
X116378Y525613D01*
X149222Y525613D01*
X150413Y524422D01*
X150413Y491578D01*
X149222Y490387D01*
X116378Y490387D01*
G37*
%LPD*%
%LPC*%
G36*
X295278Y722162D02*
X295278Y722162D01*
X294087Y723353D01*
X294087Y756197D01*
X295278Y757388D01*
X328122Y757388D01*
X329313Y756197D01*
X329313Y723353D01*
X328122Y722162D01*
X295278Y722162D01*
G37*
%LPD*%
%LPC*%
G36*
X155549Y437282D02*
X155549Y437282D01*
X155547Y437300D01*
X155549Y437317D01*
X155528Y437500D01*
X155509Y437682D01*
X155504Y437699D01*
X155502Y437717D01*
X155445Y437892D01*
X155414Y437992D01*
X155418Y437999D01*
X155465Y438177D01*
X155516Y438352D01*
X155518Y438370D01*
X155522Y438387D01*
X155549Y438718D01*
X155549Y448923D01*
X161517Y448923D01*
X162163Y448750D01*
X162742Y448415D01*
X163215Y447942D01*
X163550Y447363D01*
X163723Y446717D01*
X163723Y443555D01*
X163724Y443546D01*
X163723Y443537D01*
X163744Y443344D01*
X163763Y443155D01*
X163765Y443146D01*
X163766Y443137D01*
X163824Y442953D01*
X163881Y442770D01*
X163885Y442762D01*
X163888Y442753D01*
X163981Y442585D01*
X164073Y442416D01*
X164078Y442409D01*
X164083Y442401D01*
X164207Y442254D01*
X164330Y442106D01*
X164337Y442101D01*
X164343Y442094D01*
X164494Y441975D01*
X164644Y441854D01*
X164652Y441850D01*
X164659Y441844D01*
X164832Y441757D01*
X165001Y441669D01*
X165010Y441666D01*
X165018Y441662D01*
X165204Y441610D01*
X165388Y441557D01*
X165397Y441556D01*
X165406Y441554D01*
X165599Y441540D01*
X165790Y441524D01*
X165798Y441525D01*
X165807Y441525D01*
X166000Y441549D01*
X166189Y441571D01*
X166198Y441574D01*
X166207Y441575D01*
X166390Y441636D01*
X166572Y441696D01*
X166580Y441700D01*
X166588Y441703D01*
X166755Y441799D01*
X166923Y441894D01*
X166930Y441900D01*
X166937Y441904D01*
X167190Y442119D01*
X173486Y448415D01*
X182114Y448415D01*
X188215Y442314D01*
X188215Y433686D01*
X182114Y427585D01*
X173486Y427585D01*
X167190Y433881D01*
X167183Y433887D01*
X167178Y433894D01*
X167028Y434014D01*
X166879Y434136D01*
X166871Y434140D01*
X166864Y434146D01*
X166694Y434234D01*
X166523Y434325D01*
X166514Y434327D01*
X166507Y434331D01*
X166322Y434385D01*
X166137Y434440D01*
X166128Y434440D01*
X166120Y434443D01*
X165928Y434458D01*
X165736Y434476D01*
X165727Y434475D01*
X165718Y434476D01*
X165529Y434454D01*
X165336Y434433D01*
X165327Y434430D01*
X165319Y434429D01*
X165137Y434369D01*
X164952Y434311D01*
X164944Y434307D01*
X164936Y434304D01*
X164767Y434209D01*
X164600Y434116D01*
X164593Y434110D01*
X164585Y434106D01*
X164439Y433980D01*
X164293Y433856D01*
X164287Y433849D01*
X164280Y433843D01*
X164163Y433691D01*
X164043Y433540D01*
X164039Y433532D01*
X164034Y433525D01*
X163948Y433353D01*
X163861Y433181D01*
X163858Y433172D01*
X163854Y433164D01*
X163804Y432978D01*
X163753Y432793D01*
X163752Y432784D01*
X163750Y432775D01*
X163723Y432445D01*
X163723Y429283D01*
X163550Y428637D01*
X163215Y428058D01*
X162742Y427585D01*
X162163Y427250D01*
X161517Y427077D01*
X155549Y427077D01*
X155549Y437282D01*
G37*
%LPD*%
%LPC*%
G36*
X287176Y658852D02*
X287176Y658852D01*
X280277Y665751D01*
X280263Y665762D01*
X280252Y665776D01*
X280109Y665889D01*
X279966Y666006D01*
X279950Y666014D01*
X279936Y666025D01*
X279772Y666109D01*
X279610Y666195D01*
X279593Y666200D01*
X279577Y666208D01*
X279400Y666257D01*
X279224Y666309D01*
X279206Y666311D01*
X279189Y666316D01*
X279006Y666329D01*
X278823Y666346D01*
X278805Y666344D01*
X278787Y666345D01*
X278605Y666322D01*
X278423Y666302D01*
X278406Y666297D01*
X278388Y666295D01*
X278214Y666236D01*
X278039Y666181D01*
X278023Y666172D01*
X278006Y666166D01*
X277847Y666075D01*
X277687Y665986D01*
X277673Y665975D01*
X277657Y665966D01*
X277404Y665751D01*
X271014Y659360D01*
X262386Y659360D01*
X256285Y665461D01*
X256285Y674089D01*
X262386Y680190D01*
X271014Y680190D01*
X277404Y673799D01*
X277418Y673788D01*
X277430Y673774D01*
X277574Y673661D01*
X277716Y673544D01*
X277732Y673536D01*
X277746Y673525D01*
X277910Y673441D01*
X278072Y673355D01*
X278089Y673350D01*
X278105Y673342D01*
X278282Y673293D01*
X278458Y673241D01*
X278475Y673239D01*
X278493Y673234D01*
X278676Y673221D01*
X278859Y673204D01*
X278876Y673206D01*
X278894Y673205D01*
X279076Y673228D01*
X279259Y673248D01*
X279276Y673253D01*
X279294Y673255D01*
X279467Y673314D01*
X279643Y673369D01*
X279658Y673378D01*
X279675Y673384D01*
X279835Y673475D01*
X279995Y673564D01*
X280009Y673575D01*
X280024Y673584D01*
X280277Y673799D01*
X287176Y680698D01*
X288951Y680698D01*
X288951Y670493D01*
X288952Y670475D01*
X288951Y670458D01*
X288972Y670275D01*
X288991Y670093D01*
X288996Y670076D01*
X288998Y670058D01*
X289055Y669883D01*
X289086Y669783D01*
X289082Y669776D01*
X289034Y669598D01*
X288984Y669423D01*
X288982Y669405D01*
X288978Y669388D01*
X288951Y669057D01*
X288951Y658852D01*
X287176Y658852D01*
G37*
%LPD*%
%LPC*%
G36*
X232476Y659360D02*
X232476Y659360D01*
X231285Y660551D01*
X231285Y678999D01*
X232476Y680190D01*
X250924Y680190D01*
X252115Y678999D01*
X252115Y660551D01*
X250924Y659360D01*
X232476Y659360D01*
G37*
%LPD*%
%LPC*%
G36*
X137226Y897485D02*
X137226Y897485D01*
X136035Y898676D01*
X136035Y917124D01*
X137226Y918315D01*
X155674Y918315D01*
X156865Y917124D01*
X156865Y898676D01*
X155674Y897485D01*
X137226Y897485D01*
G37*
%LPD*%
%LPC*%
G36*
X192136Y897485D02*
X192136Y897485D01*
X186035Y903586D01*
X186035Y912214D01*
X192136Y918315D01*
X200764Y918315D01*
X206865Y912214D01*
X206865Y903586D01*
X200764Y897485D01*
X192136Y897485D01*
G37*
%LPD*%
%LPC*%
G36*
X299580Y28617D02*
X299580Y28617D01*
X295800Y30183D01*
X292908Y33075D01*
X291342Y36855D01*
X291342Y40945D01*
X292908Y44725D01*
X295800Y47617D01*
X299580Y49183D01*
X303670Y49183D01*
X307450Y47617D01*
X310342Y44725D01*
X311908Y40945D01*
X311908Y36855D01*
X310342Y33075D01*
X307450Y30183D01*
X303670Y28617D01*
X299580Y28617D01*
G37*
%LPD*%
%LPC*%
G36*
X299580Y113617D02*
X299580Y113617D01*
X295800Y115183D01*
X292908Y118075D01*
X291342Y121855D01*
X291342Y125945D01*
X292908Y129725D01*
X295800Y132617D01*
X299580Y134183D01*
X303670Y134183D01*
X307450Y132617D01*
X310342Y129725D01*
X311908Y125945D01*
X311908Y121855D01*
X310342Y118075D01*
X307450Y115183D01*
X303670Y113617D01*
X299580Y113617D01*
G37*
%LPD*%
%LPC*%
G36*
X48755Y113617D02*
X48755Y113617D01*
X44975Y115183D01*
X42083Y118075D01*
X40517Y121855D01*
X40517Y125945D01*
X42083Y129725D01*
X44975Y132617D01*
X48755Y134183D01*
X52845Y134183D01*
X56625Y132617D01*
X59517Y129725D01*
X61083Y125945D01*
X61083Y121855D01*
X59517Y118075D01*
X56625Y115183D01*
X52845Y113617D01*
X48755Y113617D01*
G37*
%LPD*%
%LPC*%
G36*
X48755Y28617D02*
X48755Y28617D01*
X44975Y30183D01*
X42083Y33075D01*
X40517Y36855D01*
X40517Y40945D01*
X42083Y44725D01*
X44975Y47617D01*
X48755Y49183D01*
X52845Y49183D01*
X56625Y47617D01*
X59517Y44725D01*
X61083Y40945D01*
X61083Y36855D01*
X59517Y33075D01*
X56625Y30183D01*
X52845Y28617D01*
X48755Y28617D01*
G37*
%LPD*%
%LPC*%
G36*
X55105Y691467D02*
X55105Y691467D01*
X51325Y693033D01*
X48433Y695925D01*
X46867Y699705D01*
X46867Y703795D01*
X48433Y707575D01*
X51325Y710467D01*
X52853Y711100D01*
X55105Y712033D01*
X59195Y712033D01*
X62975Y710467D01*
X65867Y707575D01*
X67433Y703795D01*
X67433Y699705D01*
X65867Y695925D01*
X62975Y693033D01*
X59195Y691467D01*
X55105Y691467D01*
G37*
%LPD*%
%LPC*%
G36*
X55105Y532717D02*
X55105Y532717D01*
X51325Y534283D01*
X48433Y537175D01*
X46867Y540955D01*
X46867Y545045D01*
X48433Y548825D01*
X51325Y551717D01*
X53607Y552662D01*
X53607Y552663D01*
X55105Y553283D01*
X59195Y553283D01*
X62975Y551717D01*
X65867Y548825D01*
X67433Y545045D01*
X67433Y540955D01*
X65867Y537175D01*
X62975Y534283D01*
X59195Y532717D01*
X55105Y532717D01*
G37*
%LPD*%
%LPC*%
G36*
X244073Y194563D02*
X244073Y194563D01*
X239013Y199623D01*
X239013Y206777D01*
X244073Y211837D01*
X251227Y211837D01*
X256287Y206777D01*
X256287Y199623D01*
X251227Y194563D01*
X244073Y194563D01*
G37*
%LPD*%
%LPC*%
G36*
X320273Y194563D02*
X320273Y194563D01*
X315213Y199623D01*
X315213Y206777D01*
X320273Y211837D01*
X327427Y211837D01*
X332487Y206777D01*
X332487Y199623D01*
X327427Y194563D01*
X320273Y194563D01*
G37*
%LPD*%
%LPC*%
G36*
X294873Y194563D02*
X294873Y194563D01*
X289813Y199623D01*
X289813Y206777D01*
X294873Y211837D01*
X302027Y211837D01*
X307087Y206777D01*
X307087Y199623D01*
X302027Y194563D01*
X294873Y194563D01*
G37*
%LPD*%
%LPC*%
G36*
X129773Y823213D02*
X129773Y823213D01*
X124713Y828273D01*
X124713Y835427D01*
X129773Y840487D01*
X136927Y840487D01*
X141987Y835427D01*
X141987Y828273D01*
X136927Y823213D01*
X129773Y823213D01*
G37*
%LPD*%
%LPC*%
G36*
X129773Y747013D02*
X129773Y747013D01*
X124713Y752073D01*
X124713Y759227D01*
X129773Y764287D01*
X136927Y764287D01*
X141987Y759227D01*
X141987Y752073D01*
X136927Y747013D01*
X129773Y747013D01*
G37*
%LPD*%
%LPC*%
G36*
X27939Y967739D02*
X27939Y967739D01*
X27939Y975361D01*
X42879Y975361D01*
X42436Y974000D01*
X41710Y972575D01*
X40770Y971281D01*
X39639Y970150D01*
X38345Y969210D01*
X36920Y968484D01*
X35399Y967989D01*
X33820Y967739D01*
X27939Y967739D01*
G37*
%LPD*%
%LPC*%
G36*
X315430Y967739D02*
X315430Y967739D01*
X313851Y967989D01*
X312330Y968484D01*
X310905Y969210D01*
X309611Y970150D01*
X308480Y971281D01*
X307540Y972575D01*
X306814Y974000D01*
X306371Y975361D01*
X321311Y975361D01*
X321311Y967739D01*
X315430Y967739D01*
G37*
%LPD*%
%LPC*%
G36*
X141877Y440749D02*
X141877Y440749D01*
X141877Y446717D01*
X142050Y447363D01*
X142385Y447942D01*
X142858Y448415D01*
X143437Y448750D01*
X144083Y448923D01*
X150051Y448923D01*
X150051Y440749D01*
X141877Y440749D01*
G37*
%LPD*%
%LPC*%
G36*
X129177Y21649D02*
X129177Y21649D01*
X129177Y27617D01*
X129350Y28263D01*
X129685Y28842D01*
X130158Y29315D01*
X130737Y29650D01*
X131383Y29823D01*
X137351Y29823D01*
X137351Y21649D01*
X129177Y21649D01*
G37*
%LPD*%
%LPC*%
G36*
X144083Y427077D02*
X144083Y427077D01*
X143437Y427250D01*
X142858Y427585D01*
X142385Y428058D01*
X142050Y428637D01*
X141877Y429283D01*
X141877Y435251D01*
X150051Y435251D01*
X150051Y427077D01*
X144083Y427077D01*
G37*
%LPD*%
%LPC*%
G36*
X294449Y672524D02*
X294449Y672524D01*
X294449Y680698D01*
X296224Y680698D01*
X302623Y674299D01*
X302623Y672524D01*
X294449Y672524D01*
G37*
%LPD*%
%LPC*%
G36*
X294449Y658852D02*
X294449Y658852D01*
X294449Y667026D01*
X302623Y667026D01*
X302623Y665251D01*
X296224Y658852D01*
X294449Y658852D01*
G37*
%LPD*%
%LPC*%
G36*
X304374Y156649D02*
X304374Y156649D01*
X304374Y164353D01*
X305767Y163900D01*
X307281Y163129D01*
X308655Y162131D01*
X309856Y160930D01*
X310854Y159556D01*
X311625Y158042D01*
X312078Y156649D01*
X304374Y156649D01*
G37*
%LPD*%
%LPC*%
G36*
X59899Y575749D02*
X59899Y575749D01*
X59899Y583453D01*
X61292Y583000D01*
X62806Y582229D01*
X64180Y581231D01*
X65381Y580030D01*
X66379Y578656D01*
X67150Y577142D01*
X67603Y575749D01*
X59899Y575749D01*
G37*
%LPD*%
%LPC*%
G36*
X53549Y156649D02*
X53549Y156649D01*
X53549Y164353D01*
X54942Y163900D01*
X56456Y163129D01*
X57830Y162131D01*
X59031Y160930D01*
X60029Y159556D01*
X60800Y158042D01*
X61253Y156649D01*
X53549Y156649D01*
G37*
%LPD*%
%LPC*%
G36*
X59899Y734499D02*
X59899Y734499D01*
X59899Y742203D01*
X61292Y741750D01*
X62806Y740979D01*
X64180Y739981D01*
X65381Y738780D01*
X66379Y737406D01*
X67150Y735892D01*
X67603Y734499D01*
X59899Y734499D01*
G37*
%LPD*%
%LPC*%
G36*
X291172Y156649D02*
X291172Y156649D01*
X291625Y158042D01*
X292396Y159556D01*
X293394Y160930D01*
X294595Y162131D01*
X295969Y163129D01*
X297483Y163900D01*
X298876Y164353D01*
X298876Y156649D01*
X291172Y156649D01*
G37*
%LPD*%
%LPC*%
G36*
X40347Y156649D02*
X40347Y156649D01*
X40800Y158042D01*
X41571Y159556D01*
X42569Y160930D01*
X43770Y162131D01*
X45144Y163129D01*
X46658Y163900D01*
X48051Y164353D01*
X48051Y156649D01*
X40347Y156649D01*
G37*
%LPD*%
%LPC*%
G36*
X59899Y729001D02*
X59899Y729001D01*
X67603Y729001D01*
X67150Y727608D01*
X66379Y726094D01*
X65381Y724720D01*
X64180Y723519D01*
X62806Y722521D01*
X61292Y721750D01*
X59899Y721297D01*
X59899Y729001D01*
G37*
%LPD*%
%LPC*%
G36*
X53549Y151151D02*
X53549Y151151D01*
X61253Y151151D01*
X60800Y149758D01*
X60029Y148244D01*
X59031Y146870D01*
X57830Y145669D01*
X56456Y144671D01*
X54942Y143900D01*
X53549Y143447D01*
X53549Y151151D01*
G37*
%LPD*%
%LPC*%
G36*
X46697Y575749D02*
X46697Y575749D01*
X47150Y577142D01*
X47921Y578656D01*
X48919Y580030D01*
X50120Y581231D01*
X51494Y582229D01*
X53008Y583000D01*
X54401Y583453D01*
X54401Y575749D01*
X46697Y575749D01*
G37*
%LPD*%
%LPC*%
G36*
X46697Y734499D02*
X46697Y734499D01*
X47150Y735892D01*
X47921Y737406D01*
X48919Y738780D01*
X50120Y739981D01*
X51494Y740979D01*
X53008Y741750D01*
X54401Y742203D01*
X54401Y734499D01*
X46697Y734499D01*
G37*
%LPD*%
%LPC*%
G36*
X59899Y570251D02*
X59899Y570251D01*
X67603Y570251D01*
X67150Y568858D01*
X66379Y567344D01*
X65381Y565970D01*
X64180Y564769D01*
X62806Y563771D01*
X61292Y563000D01*
X59899Y562547D01*
X59899Y570251D01*
G37*
%LPD*%
%LPC*%
G36*
X304374Y151151D02*
X304374Y151151D01*
X312078Y151151D01*
X311625Y149758D01*
X310854Y148244D01*
X309856Y146870D01*
X308655Y145669D01*
X307281Y144671D01*
X305767Y143900D01*
X304374Y143447D01*
X304374Y151151D01*
G37*
%LPD*%
%LPC*%
G36*
X53008Y563000D02*
X53008Y563000D01*
X51494Y563771D01*
X50120Y564769D01*
X48919Y565970D01*
X47921Y567344D01*
X47150Y568858D01*
X46697Y570251D01*
X54401Y570251D01*
X54401Y562547D01*
X53008Y563000D01*
G37*
%LPD*%
%LPC*%
G36*
X297483Y143900D02*
X297483Y143900D01*
X295969Y144671D01*
X294595Y145669D01*
X293394Y146870D01*
X292396Y148244D01*
X291625Y149758D01*
X291172Y151151D01*
X298876Y151151D01*
X298876Y143447D01*
X297483Y143900D01*
G37*
%LPD*%
%LPC*%
G36*
X46658Y143900D02*
X46658Y143900D01*
X45144Y144671D01*
X43770Y145669D01*
X42569Y146870D01*
X41571Y148244D01*
X40800Y149758D01*
X40347Y151151D01*
X48051Y151151D01*
X48051Y143447D01*
X46658Y143900D01*
G37*
%LPD*%
%LPC*%
G36*
X53008Y721750D02*
X53008Y721750D01*
X51494Y722521D01*
X50120Y723519D01*
X48919Y724720D01*
X47921Y726094D01*
X47150Y727608D01*
X46697Y729001D01*
X54401Y729001D01*
X54401Y721297D01*
X53008Y721750D01*
G37*
%LPD*%
%LPC*%
G36*
X186181Y757681D02*
X186181Y757681D01*
X186181Y764795D01*
X187938Y764795D01*
X193295Y759438D01*
X193295Y757681D01*
X186181Y757681D01*
G37*
%LPD*%
%LPC*%
G36*
X186181Y746505D02*
X186181Y746505D01*
X186181Y753619D01*
X193295Y753619D01*
X193295Y751862D01*
X187938Y746505D01*
X186181Y746505D01*
G37*
%LPD*%
D10*
X152800Y438000D03*
D11*
X177800Y438000D03*
X202800Y438000D03*
D12*
X222800Y508000D03*
X132800Y508000D03*
D13*
X301625Y38900D03*
X301625Y123900D03*
X301625Y153900D03*
X50800Y38900D03*
X50800Y123900D03*
X50800Y153900D03*
X57150Y616750D03*
X57150Y701750D03*
X57150Y731750D03*
X57150Y458000D03*
X57150Y543000D03*
X57150Y573000D03*
D10*
X140100Y18900D03*
D11*
X165100Y18900D03*
X190100Y18900D03*
D12*
X210100Y88900D03*
X120100Y88900D03*
D10*
X146450Y907900D03*
D11*
X171450Y907900D03*
X196450Y907900D03*
D12*
X216450Y977900D03*
X126450Y977900D03*
D10*
X241700Y669775D03*
D11*
X266700Y669775D03*
X291700Y669775D03*
D12*
X311700Y739775D03*
X221700Y739775D03*
D14*
X273050Y203200D03*
X273050Y279400D03*
D15*
X247650Y279400D03*
X247650Y203200D03*
X323850Y279400D03*
X323850Y203200D03*
D14*
X298450Y203200D03*
X298450Y279400D03*
X133350Y755650D03*
X133350Y831850D03*
X158750Y755650D03*
X158750Y831850D03*
D15*
X184150Y831850D03*
X184150Y755650D03*
D16*
X33020Y977900D02*
X17780Y977900D01*
X17780Y952500D02*
X33020Y952500D01*
X33020Y927100D02*
X17780Y927100D01*
X17780Y901700D02*
X33020Y901700D01*
X33020Y876300D02*
X17780Y876300D01*
X17780Y850900D02*
X33020Y850900D01*
X316230Y977900D02*
X331470Y977900D01*
X331470Y952500D02*
X316230Y952500D01*
X316230Y927100D02*
X331470Y927100D01*
X331470Y901700D02*
X316230Y901700D01*
X316230Y876300D02*
X331470Y876300D01*
X331470Y850900D02*
X316230Y850900D01*
D17*
X191326Y238760D02*
X164275Y238760D01*
X164275Y285750D02*
X191326Y285750D01*
X191326Y332740D02*
X164275Y332740D01*
D18*
X311150Y622300D03*
X50800Y812800D03*
X76200Y234950D03*
D19*
X25400Y774700D02*
X25400Y850900D01*
X82550Y774700D02*
X101600Y755650D01*
X101600Y723900D01*
X247650Y577850D01*
X247650Y336550D01*
X273050Y311150D01*
X273050Y279400D01*
D18*
X25400Y774700D03*
X82550Y774700D03*
D19*
X323850Y552450D02*
X323850Y279400D01*
X323850Y552450D02*
X171450Y704850D01*
X171450Y907900D01*
X57150Y901700D02*
X25400Y901700D01*
X57150Y901700D02*
X69850Y889000D01*
X69850Y787400D01*
X19050Y736600D01*
X19050Y203200D01*
D18*
X19050Y203200D03*
D19*
X260350Y596900D02*
X114300Y742950D01*
X114300Y901700D01*
X63500Y952500D01*
X25400Y952500D01*
X298450Y304800D02*
X298450Y279400D01*
X298450Y304800D02*
X260350Y342900D01*
X260350Y596900D01*
X222250Y304800D02*
X247650Y279400D01*
X222250Y304800D02*
X57150Y304800D01*
X31750Y330200D01*
X31750Y590550D02*
X57150Y615950D01*
X57150Y616750D01*
X31750Y590550D02*
X31750Y330200D01*
X127000Y152400D02*
X165100Y114300D01*
X127000Y152400D02*
X127000Y273050D01*
X139700Y285750D01*
X177800Y285750D01*
X165100Y114300D02*
X165100Y18900D01*
X202800Y438000D02*
X203200Y438150D01*
X203200Y406400D02*
X203166Y406382D01*
X203131Y406368D01*
X203094Y406357D01*
X203057Y406350D01*
X203019Y406346D01*
X202981Y406346D01*
X202943Y406350D01*
X202906Y406357D01*
X202869Y406368D01*
X202834Y406382D01*
X202800Y406400D01*
X76200Y406400D01*
X57150Y425450D01*
X57150Y458000D01*
X202800Y438000D02*
X202840Y437995D01*
X202881Y437994D01*
X202921Y437997D01*
X202962Y438004D01*
X203001Y438015D01*
X203039Y438029D01*
X203075Y438047D01*
X203110Y438068D01*
X203142Y438092D01*
X203172Y438120D01*
X203200Y438150D01*
X203200Y406400D01*
X260350Y247650D02*
X273050Y234950D01*
X273050Y203200D01*
X203200Y361950D02*
X203200Y406400D01*
X203200Y361950D02*
X260350Y304800D01*
X260350Y247650D01*
M02*
