G04 EAGLE Gerber RS-274X export*
G75*
%MOMM*%
%FSLAX34Y34*%
%LPD*%
%INSoldermask Top*%
%IPPOS*%
%AMOC8*
5,1,8,0,0,1.08239X$1,22.5*%
G01*
%ADD10C,3.403200*%
%ADD11R,1.879600X1.879600*%
%ADD12P,2.034460X8X292.500000*%
%ADD13R,3.319200X3.319200*%
%ADD14C,1.853200*%
%ADD15P,1.649562X8X112.500000*%
%ADD16P,1.649562X8X292.500000*%
%ADD17C,1.727200*%
%ADD18C,2.908300*%
%ADD19C,1.219200*%


D10*
X292100Y438150D03*
D11*
X152800Y438000D03*
D12*
X177800Y438000D03*
X202800Y438000D03*
D13*
X222800Y508000D03*
X132800Y508000D03*
D14*
X301625Y38900D03*
X301625Y123900D03*
X301625Y153900D03*
X50800Y38900D03*
X50800Y123900D03*
X50800Y153900D03*
X57150Y616750D03*
X57150Y701750D03*
X57150Y731750D03*
X57150Y458000D03*
X57150Y543000D03*
X57150Y573000D03*
D11*
X140100Y18900D03*
D12*
X165100Y18900D03*
X190100Y18900D03*
D13*
X210100Y88900D03*
X120100Y88900D03*
D11*
X146450Y907900D03*
D12*
X171450Y907900D03*
X196450Y907900D03*
D13*
X216450Y977900D03*
X126450Y977900D03*
D11*
X241700Y669775D03*
D12*
X266700Y669775D03*
X291700Y669775D03*
D13*
X311700Y739775D03*
X221700Y739775D03*
D15*
X273050Y203200D03*
X273050Y279400D03*
D16*
X247650Y279400D03*
X247650Y203200D03*
X323850Y279400D03*
X323850Y203200D03*
D15*
X298450Y203200D03*
X298450Y279400D03*
X133350Y755650D03*
X133350Y831850D03*
X158750Y755650D03*
X158750Y831850D03*
D16*
X184150Y831850D03*
X184150Y755650D03*
D17*
X33020Y977900D02*
X17780Y977900D01*
X17780Y952500D02*
X33020Y952500D01*
X33020Y927100D02*
X17780Y927100D01*
X17780Y901700D02*
X33020Y901700D01*
X33020Y876300D02*
X17780Y876300D01*
X17780Y850900D02*
X33020Y850900D01*
X316230Y977900D02*
X331470Y977900D01*
X331470Y952500D02*
X316230Y952500D01*
X316230Y927100D02*
X331470Y927100D01*
X331470Y901700D02*
X316230Y901700D01*
X316230Y876300D02*
X331470Y876300D01*
X331470Y850900D02*
X316230Y850900D01*
D18*
X191326Y238760D02*
X164275Y238760D01*
X164275Y285750D02*
X191326Y285750D01*
X191326Y332740D02*
X164275Y332740D01*
D19*
X311150Y622300D03*
X50800Y812800D03*
X76200Y234950D03*
X25400Y774700D03*
X82550Y774700D03*
X19050Y203200D03*
M02*
