M48
;GenerationSoftware,Autodesk,EAGLE,9.6.2*%
;CreationDate,2022-05-04T14:07:06Z*%
FMAT,2
ICI,OFF
METRIC,TZ,000.000
T7C0.610
T6C0.813
T5C1.016
T4C1.100
T3C1.803
T2C2.100
T1C3.200
%
G90
M71
T1
X29210Y43815
T2
X22170Y73978
X31170Y73978
X12645Y97790
X21645Y97790
X12010Y8890
X21010Y8890
X22280Y50800
X13280Y50800
T3
X17780Y33274
X17780Y28575
X17780Y23876
T4
X30162Y3890
X30162Y12390
X30162Y15390
X5080Y3890
X5080Y12390
X5080Y15390
X5715Y61675
X5715Y70175
X5715Y73175
X5715Y45800
X5715Y54300
X5715Y57300
X14010Y1890
X16510Y1890
X19010Y1890
X20280Y43800
X17780Y43800
X14645Y90790
X17145Y90790
X19645Y90790
X15280Y43800
X29170Y66978
X24170Y66978
X26670Y66978
T5
X32385Y85090
X32385Y87630
X32385Y90170
X32385Y92710
X32385Y95250
X32385Y97790
X2540Y85090
X2540Y87630
X2540Y90170
X2540Y92710
X2540Y95250
X2540Y97790
T6
X13335Y83185
X15875Y75565
X15875Y83185
X18415Y83185
X18415Y75565
X13335Y75565
X29845Y27940
X29845Y20320
X32385Y20320
X32385Y27940
X24765Y20320
X24765Y27940
X27305Y27940
X27305Y20320
T7
X2540Y77470
X8255Y77470
X1905Y20320
X7620Y23495
X5080Y81280
X31115Y62230
M30