G04 EAGLE Gerber RS-274X export*
G75*
%MOMM*%
%FSLAX34Y34*%
%LPD*%
%IN*%
%IPPOS*%
%AMOC8*
5,1,8,0,0,1.08239X$1,22.5*%
G01*
%ADD10C,0.254000*%


D10*
X0Y0D02*
X349250Y0D01*
X349250Y996950D01*
X0Y996950D01*
X0Y0D01*
X308100Y437626D02*
X308032Y436581D01*
X307895Y435542D01*
X307690Y434515D01*
X307419Y433503D01*
X307083Y432511D01*
X306682Y431543D01*
X306218Y430604D01*
X305695Y429696D01*
X305113Y428825D01*
X304475Y427994D01*
X303784Y427207D01*
X303043Y426466D01*
X302256Y425775D01*
X301425Y425138D01*
X300554Y424556D01*
X299646Y424032D01*
X298707Y423568D01*
X297739Y423167D01*
X296747Y422831D01*
X295735Y422560D01*
X294708Y422355D01*
X293669Y422219D01*
X292624Y422150D01*
X291576Y422150D01*
X290531Y422219D01*
X289492Y422355D01*
X288465Y422560D01*
X287453Y422831D01*
X286461Y423167D01*
X285493Y423568D01*
X284554Y424032D01*
X283646Y424556D01*
X282775Y425138D01*
X281944Y425775D01*
X281157Y426466D01*
X280416Y427207D01*
X279725Y427994D01*
X279088Y428825D01*
X278506Y429696D01*
X277982Y430604D01*
X277518Y431543D01*
X277117Y432511D01*
X276781Y433503D01*
X276510Y434515D01*
X276305Y435542D01*
X276169Y436581D01*
X276100Y437626D01*
X276100Y438674D01*
X276169Y439719D01*
X276305Y440758D01*
X276510Y441785D01*
X276781Y442797D01*
X277117Y443789D01*
X277518Y444757D01*
X277982Y445696D01*
X278506Y446604D01*
X279088Y447475D01*
X279725Y448306D01*
X280416Y449093D01*
X281157Y449834D01*
X281944Y450525D01*
X282775Y451163D01*
X283646Y451745D01*
X284554Y452268D01*
X285493Y452732D01*
X286461Y453133D01*
X287453Y453469D01*
X288465Y453740D01*
X289492Y453945D01*
X290531Y454082D01*
X291576Y454150D01*
X292624Y454150D01*
X293669Y454082D01*
X294708Y453945D01*
X295735Y453740D01*
X296747Y453469D01*
X297739Y453133D01*
X298707Y452732D01*
X299646Y452268D01*
X300554Y451745D01*
X301425Y451163D01*
X302256Y450525D01*
X303043Y449834D01*
X303784Y449093D01*
X304475Y448306D01*
X305113Y447475D01*
X305695Y446604D01*
X306218Y445696D01*
X306682Y444757D01*
X307083Y443789D01*
X307419Y442797D01*
X307690Y441785D01*
X307895Y440758D01*
X308032Y439719D01*
X308100Y438674D01*
X308100Y437626D01*
M02*
